#N canvas -1848 122 1362 691 10;
#X obj 651 461 f;
#X obj 868 691 dac~;
#X floatatom 621 527 5 0 0 0 - - -;
#X obj 624 587 *~;
#X obj 639 566 line~;
#X msg 649 587 0.1 100;
#X msg 676 566 0 100;
#X obj 620 461 f;
#X obj 711 461 f;
#X obj 680 461 f;
#X obj 769 461 f;
#X obj 739 461 f;
#X obj 830 461 f;
#X obj 799 461 f;
#X floatatom 693 442 5 0 0 0 - - -;
#X floatatom 620 441 5 0 0 0 - - -;
#X floatatom 657 442 5 0 0 0 - - -;
#X floatatom 729 441 5 0 0 0 - - -;
#X floatatom 838 442 5 0 0 0 - - -;
#X floatatom 766 442 5 0 0 0 - - -;
#X floatatom 802 442 5 0 0 0 - - -;
#X floatatom 875 442 5 0 0 0 - - -;
#X obj 354 314 bng 30 250 50 0 empty empty empty 17 7 0 10 -262144
-1 -1;
#X obj 315 314 bng 30 250 50 0 empty empty empty 17 7 0 10 -262144
-1 -1;
#X obj 353 276 bng 30 250 50 0 empty empty empty 17 7 0 10 -262144
-1 -1;
#X obj 314 276 bng 30 250 50 0 empty empty empty 17 7 0 10 -262144
-1 -1;
#X obj 432 314 bng 30 250 50 0 empty empty empty 17 7 0 10 -262144
-1 -1;
#X obj 393 314 bng 30 250 50 0 empty empty empty 17 7 0 10 -262144
-1 -1;
#X obj 431 277 bng 30 250 50 0 empty empty empty 17 7 0 10 -262144
-1 -1;
#X obj 392 277 bng 30 250 50 0 empty empty empty 17 7 0 10 -262144
-1 -1;
#X obj 653 505 f;
#X obj 622 505 f;
#X obj 713 505 f;
#X obj 682 505 f;
#X obj 772 505 f;
#X obj 741 505 f;
#X obj 832 505 f;
#X obj 801 505 f;
#X floatatom 692 485 5 0 0 0 - - -;
#X floatatom 620 485 5 0 0 0 - - -;
#X floatatom 656 485 5 0 0 0 - - -;
#X floatatom 728 484 5 0 0 0 - - -;
#X floatatom 837 485 5 0 0 0 - - -;
#X floatatom 765 485 5 0 0 0 - - -;
#X floatatom 801 485 5 0 0 0 - - -;
#X floatatom 874 485 5 0 0 0 - - -;
#X obj 356 387 bng 30 250 50 0 empty empty empty 17 7 0 10 -262144
-1 -1;
#X obj 317 387 bng 30 250 50 0 empty empty empty 17 7 0 10 -262144
-1 -1;
#X obj 355 349 bng 30 250 50 0 empty empty empty 17 7 0 10 -262144
-1 -1;
#X obj 316 349 bng 30 250 50 0 empty empty empty 17 7 0 10 -262144
-1 -1;
#X obj 434 387 bng 30 250 50 0 empty empty empty 17 7 0 10 -262144
-1 -1;
#X obj 395 387 bng 30 250 50 0 empty empty empty 17 7 0 10 -262144
-1 -1;
#X obj 432 349 bng 30 250 50 0 empty empty empty 17 7 0 10 -262144
-1 -1;
#X obj 394 350 bng 30 250 50 0 empty empty empty 17 7 0 10 -262144
-1 -1;
#X floatatom 1139 526 5 0 0 0 - - -;
#X obj 1139 585 *~;
#X obj 1153 564 line~;
#X msg 1164 585 0.1 100;
#X msg 1190 564 0 100;
#X obj 153 113 bng 30 250 50 0 empty empty empty 17 7 0 10 -4034 -1
-1;
#X obj 153 145 bng 30 250 50 0 empty empty empty 17 7 0 10 -258113
-1 -1;
#X obj 153 183 bng 30 250 50 0 empty empty empty 17 7 0 10 -258113
-1 -1;
#X obj 583 474 f;
#X floatatom 583 492 5 0 0 0 - - -;
#X obj 718 568 phasor~;
#X floatatom 714 525 0 0 0 0 - - -;
#X obj 718 609 *~;
#X obj 732 589 line~;
#X msg 743 609 0.1 100;
#X msg 769 589 0 100;
#X obj 621 545 osc~;
#X obj 1139 544 osc~;
#X obj 714 546 sig~;
#X obj 1171 461 f;
#X obj 1140 461 f;
#X obj 1231 461 f;
#X obj 1200 461 f;
#X obj 1289 461 f;
#X obj 1259 461 f;
#X obj 1350 461 f;
#X obj 1319 461 f;
#X floatatom 1211 441 5 0 0 0 - - -;
#X floatatom 1138 440 5 0 0 0 - - -;
#X floatatom 1175 441 5 0 0 0 - - -;
#X floatatom 1247 440 5 0 0 0 - - -;
#X floatatom 1356 441 5 0 0 0 - - -;
#X floatatom 1284 441 5 0 0 0 - - -;
#X floatatom 1320 441 5 0 0 0 - - -;
#X floatatom 1393 441 5 0 0 0 - - -;
#X obj 1170 503 f;
#X obj 1140 503 f;
#X obj 1230 503 f;
#X obj 1199 503 f;
#X obj 1289 503 f;
#X obj 1258 503 f;
#X obj 1349 503 f;
#X obj 1318 503 f;
#X floatatom 1210 483 5 0 0 0 - - -;
#X floatatom 1138 483 5 0 0 0 - - -;
#X floatatom 1174 483 5 0 0 0 - - -;
#X floatatom 1246 482 5 0 0 0 - - -;
#X floatatom 1355 483 5 0 0 0 - - -;
#X floatatom 1283 483 5 0 0 0 - - -;
#X floatatom 1319 483 5 0 0 0 - - -;
#X floatatom 1392 483 5 0 0 0 - - -;
#X obj 127 115 vsl 15 128 0 1 0 0 empty empty empty 0 -9 0 10 -262144
-1 -1 0 1;
#X obj 1085 428 vsl 15 128 0 0.1 0 0 empty empty empty 0 -9 0 10 -262144
-1 -1 0 1;
#X obj 108 115 vsl 15 128 0 1 0 0 empty empty empty 0 -9 0 10 -262144
-1 -1 0 1;
#X obj 448 111 bng 15 250 50 0 empty empty empty 0 -6 0 10 -262144
-1 -1;
#X obj 448 129 bng 15 250 50 0 empty empty empty 0 -6 0 10 -262144
-1 -1;
#X obj 448 147 bng 15 250 50 0 empty empty empty 0 -6 0 10 -262144
-1 -1;
#X obj 448 165 bng 15 250 50 0 empty empty empty 0 -6 0 10 -262144
-1 -1;
#X obj 467 111 bng 15 250 50 0 empty empty empty 0 -6 0 10 -262144
-1 -1;
#X obj 466 129 bng 15 250 50 0 empty empty empty 0 -6 0 10 -262144
-1 -1;
#X obj 466 147 bng 15 250 50 0 empty empty empty 0 -6 0 10 -262144
-1 -1;
#X obj 466 165 bng 15 250 50 0 empty empty empty 0 -6 0 10 -262144
-1 -1;
#N canvas -1437 156 782 721 1Cmaj 0;
#X obj -3 -49 inlet;
#X obj 33 -49 inlet;
#X obj 5 315 outlet;
#X obj 47 315 outlet;
#X obj 89 315 outlet;
#X obj 131 315 outlet;
#X obj 173 315 outlet;
#X obj 215 315 outlet;
#X obj 257 315 outlet;
#X obj 299 315 outlet;
#X obj 341 315 outlet;
#X obj 383 315 outlet;
#X obj 425 315 outlet;
#X obj 467 315 outlet;
#X obj 509 315 outlet;
#X obj 551 315 outlet;
#X obj 593 315 outlet;
#X obj 635 315 outlet;
#X obj 69 -49 inlet;
#X obj 105 -49 inlet;
#X obj 141 -49 inlet;
#X obj 177 -49 inlet;
#X obj 213 -49 inlet;
#X obj 249 -49 inlet;
#X obj 285 -49 inlet;
#X obj 321 -49 inlet;
#X obj 357 -49 inlet;
#X obj 393 -49 inlet;
#X obj 429 -49 inlet;
#X obj 465 -49 inlet;
#X obj 501 -49 inlet;
#X obj 537 -49 inlet;
#N canvas -1294 112 776 534 1cmaj 0;
#X obj 83 26 inlet;
#X obj 115 222 f;
#X obj 139 222 f;
#X obj 163 222 f;
#X obj 187 222 f;
#X obj 211 222 f;
#X obj 235 222 f;
#X obj 259 222 f;
#X obj 283 222 f;
#X obj 307 222 f;
#X obj 331 222 f;
#X obj 355 222 f;
#X obj 379 222 f;
#X obj 403 222 f;
#X obj 427 222 f;
#X obj 451 222 f;
#X obj 475 222 f;
#X obj -6 170 t b b b b b b b b b b b b b b b b;
#X obj 5 315 outlet;
#X obj 47 315 outlet;
#X obj 89 315 outlet;
#X obj 131 315 outlet;
#X obj 173 315 outlet;
#X obj 215 315 outlet;
#X obj 257 315 outlet;
#X obj 299 315 outlet;
#X obj 341 315 outlet;
#X obj 383 315 outlet;
#X obj 425 315 outlet;
#X obj 467 315 outlet;
#X obj 509 315 outlet;
#X obj 551 315 outlet;
#X obj 593 315 outlet;
#X obj 635 315 outlet;
#X msg 56 126 32.7;
#X msg 96 126 36.71;
#X msg 136 126 41.2;
#X msg 177 126 43.65;
#X msg 217 126 49;
#X msg 258 126 55;
#X msg 287 126 61.74;
#X msg 327 126 65.41;
#X msg 367 126 73.42;
#X msg 407 126 82.41;
#X msg 447 126 87.31;
#X msg 487 126 98;
#X msg 515 126 110;
#X msg 543 126 123.5;
#X msg 583 126 130.8;
#X msg 623 126 146.8;
#X obj 297 72 loadbang;
#X obj 201 59 bng 15 250 50 0 empty empty empty 0 -6 0 10 -262144 -1
-1;
#X connect 0 0 17 0;
#X connect 1 0 18 0;
#X connect 2 0 19 0;
#X connect 3 0 20 0;
#X connect 4 0 21 0;
#X connect 5 0 22 0;
#X connect 6 0 23 0;
#X connect 7 0 24 0;
#X connect 8 0 25 0;
#X connect 9 0 26 0;
#X connect 10 0 27 0;
#X connect 11 0 28 0;
#X connect 12 0 29 0;
#X connect 13 0 30 0;
#X connect 14 0 31 0;
#X connect 15 0 32 0;
#X connect 16 0 33 0;
#X connect 17 0 1 0;
#X connect 17 1 2 0;
#X connect 17 2 3 0;
#X connect 17 3 4 0;
#X connect 17 4 5 0;
#X connect 17 5 6 0;
#X connect 17 6 7 0;
#X connect 17 7 8 0;
#X connect 17 8 9 0;
#X connect 17 9 10 0;
#X connect 17 10 11 0;
#X connect 17 11 12 0;
#X connect 17 12 13 0;
#X connect 17 13 14 0;
#X connect 17 14 15 0;
#X connect 17 15 16 0;
#X connect 34 0 1 1;
#X connect 35 0 2 1;
#X connect 36 0 3 1;
#X connect 37 0 4 1;
#X connect 38 0 5 1;
#X connect 39 0 6 1;
#X connect 40 0 7 1;
#X connect 41 0 8 1;
#X connect 42 0 9 1;
#X connect 43 0 10 1;
#X connect 44 0 11 1;
#X connect 45 0 12 1;
#X connect 46 0 13 1;
#X connect 47 0 14 1;
#X connect 48 0 15 1;
#X connect 49 0 16 1;
#X connect 50 0 34 0;
#X connect 50 0 35 0;
#X connect 50 0 36 0;
#X connect 50 0 37 0;
#X connect 50 0 38 0;
#X connect 50 0 39 0;
#X connect 50 0 40 0;
#X connect 50 0 41 0;
#X connect 50 0 42 0;
#X connect 50 0 43 0;
#X connect 50 0 44 0;
#X connect 50 0 45 0;
#X connect 50 0 46 0;
#X connect 50 0 47 0;
#X connect 50 0 48 0;
#X connect 50 0 49 0;
#X connect 51 0 34 0;
#X connect 51 0 35 0;
#X connect 51 0 36 0;
#X connect 51 0 37 0;
#X connect 51 0 38 0;
#X connect 51 0 39 0;
#X connect 51 0 40 0;
#X connect 51 0 41 0;
#X connect 51 0 42 0;
#X connect 51 0 43 0;
#X connect 51 0 44 0;
#X connect 51 0 45 0;
#X connect 51 0 46 0;
#X connect 51 0 47 0;
#X connect 51 0 48 0;
#X connect 51 0 49 0;
#X restore 12 43 pd 1cmaj;
#N canvas -1098 327 703 701 2cmaj 0;
#X obj 83 26 inlet;
#X obj 115 222 f;
#X obj 139 222 f;
#X obj 163 222 f;
#X obj 187 222 f;
#X obj 211 222 f;
#X obj 235 222 f;
#X obj 259 222 f;
#X obj 283 222 f;
#X obj 307 222 f;
#X obj 331 222 f;
#X obj 355 222 f;
#X obj 379 222 f;
#X obj 403 222 f;
#X obj 427 222 f;
#X obj 451 222 f;
#X obj 475 222 f;
#X obj -6 170 t b b b b b b b b b b b b b b b b;
#X obj 5 315 outlet;
#X obj 47 315 outlet;
#X obj 89 315 outlet;
#X obj 131 315 outlet;
#X obj 173 315 outlet;
#X obj 215 315 outlet;
#X obj 257 315 outlet;
#X obj 299 315 outlet;
#X obj 341 315 outlet;
#X obj 383 315 outlet;
#X obj 425 315 outlet;
#X obj 467 315 outlet;
#X obj 509 315 outlet;
#X obj 551 315 outlet;
#X obj 593 315 outlet;
#X obj 635 315 outlet;
#X obj 297 72 loadbang;
#X obj 201 59 bng 15 250 50 0 empty empty empty 0 -6 0 10 -262144 -1
-1;
#X msg 56 126 65.41;
#X msg 96 126 73.42;
#X msg 136 126 82.41;
#X msg 177 126 87.31;
#X msg 217 126 98;
#X msg 258 126 110;
#X msg 287 126 123.5;
#X msg 327 126 130.8;
#X msg 367 126 146.8;
#X msg 407 126 164.8;
#X msg 447 126 174.6;
#X msg 487 126 196;
#X msg 583 126 261.6;
#X msg 623 126 293.7;
#X msg 515 126 220;
#X msg 543 126 246.9;
#X connect 0 0 17 0;
#X connect 1 0 18 0;
#X connect 2 0 19 0;
#X connect 3 0 20 0;
#X connect 4 0 21 0;
#X connect 5 0 22 0;
#X connect 6 0 23 0;
#X connect 7 0 24 0;
#X connect 8 0 25 0;
#X connect 9 0 26 0;
#X connect 10 0 27 0;
#X connect 11 0 28 0;
#X connect 12 0 29 0;
#X connect 13 0 30 0;
#X connect 14 0 31 0;
#X connect 15 0 32 0;
#X connect 16 0 33 0;
#X connect 17 0 1 0;
#X connect 17 1 2 0;
#X connect 17 2 3 0;
#X connect 17 3 4 0;
#X connect 17 4 5 0;
#X connect 17 5 6 0;
#X connect 17 6 7 0;
#X connect 17 7 8 0;
#X connect 17 8 9 0;
#X connect 17 9 10 0;
#X connect 17 10 11 0;
#X connect 17 11 12 0;
#X connect 17 12 13 0;
#X connect 17 13 14 0;
#X connect 17 14 15 0;
#X connect 17 15 16 0;
#X connect 34 0 36 0;
#X connect 34 0 37 0;
#X connect 34 0 38 0;
#X connect 34 0 39 0;
#X connect 34 0 40 0;
#X connect 34 0 41 0;
#X connect 34 0 42 0;
#X connect 34 0 43 0;
#X connect 34 0 44 0;
#X connect 34 0 45 0;
#X connect 34 0 46 0;
#X connect 34 0 47 0;
#X connect 34 0 50 0;
#X connect 34 0 51 0;
#X connect 34 0 48 0;
#X connect 34 0 49 0;
#X connect 35 0 36 0;
#X connect 35 0 37 0;
#X connect 35 0 38 0;
#X connect 35 0 39 0;
#X connect 35 0 40 0;
#X connect 35 0 41 0;
#X connect 35 0 42 0;
#X connect 35 0 43 0;
#X connect 35 0 44 0;
#X connect 35 0 45 0;
#X connect 35 0 46 0;
#X connect 35 0 47 0;
#X connect 35 0 50 0;
#X connect 35 0 51 0;
#X connect 35 0 48 0;
#X connect 35 0 49 0;
#X connect 36 0 1 1;
#X connect 37 0 2 1;
#X connect 38 0 3 1;
#X connect 39 0 4 1;
#X connect 40 0 5 1;
#X connect 41 0 6 1;
#X connect 42 0 7 1;
#X connect 43 0 8 1;
#X connect 44 0 9 1;
#X connect 45 0 10 1;
#X connect 46 0 11 1;
#X connect 47 0 12 1;
#X connect 48 0 15 1;
#X connect 49 0 16 1;
#X connect 50 0 13 1;
#X connect 51 0 14 1;
#X restore 67 43 pd 2cmaj;
#N canvas 0 50 764 522 3cmaj 0;
#X obj 83 26 inlet;
#X obj 115 222 f;
#X obj 139 222 f;
#X obj 163 222 f;
#X obj 187 222 f;
#X obj 211 222 f;
#X obj 235 222 f;
#X obj 259 222 f;
#X obj 283 222 f;
#X obj 307 222 f;
#X obj 331 222 f;
#X obj 355 222 f;
#X obj 379 222 f;
#X obj 403 222 f;
#X obj 427 222 f;
#X obj 451 222 f;
#X obj 475 222 f;
#X obj -6 170 t b b b b b b b b b b b b b b b b;
#X obj 5 315 outlet;
#X obj 47 315 outlet;
#X obj 89 315 outlet;
#X obj 131 315 outlet;
#X obj 173 315 outlet;
#X obj 215 315 outlet;
#X obj 257 315 outlet;
#X obj 299 315 outlet;
#X obj 341 315 outlet;
#X obj 383 315 outlet;
#X obj 425 315 outlet;
#X obj 467 315 outlet;
#X obj 509 315 outlet;
#X obj 551 315 outlet;
#X obj 593 315 outlet;
#X obj 635 315 outlet;
#X obj 297 72 loadbang;
#X obj 201 59 bng 15 250 50 0 empty empty empty 0 -6 0 10 -262144 -1
-1;
#X msg 56 126 130.8;
#X msg 136 126 164.8;
#X msg 177 126 174.6;
#X msg 217 126 196;
#X msg 258 126 220;
#X msg 286 126 246.9;
#X msg 327 126 261.6;
#X msg 367 126 293.7;
#X msg 407 126 329.6;
#X msg 447 126 349.2;
#X msg 487 126 392;
#X msg 515 126 440;
#X msg 543 126 493.9;
#X msg 583 126 523.3;
#X msg 623 126 587.3;
#X msg 96 126 146.8;
#X connect 0 0 17 0;
#X connect 1 0 18 0;
#X connect 2 0 19 0;
#X connect 3 0 20 0;
#X connect 4 0 21 0;
#X connect 5 0 22 0;
#X connect 6 0 23 0;
#X connect 7 0 24 0;
#X connect 8 0 25 0;
#X connect 9 0 26 0;
#X connect 10 0 27 0;
#X connect 11 0 28 0;
#X connect 12 0 29 0;
#X connect 13 0 30 0;
#X connect 14 0 31 0;
#X connect 15 0 32 0;
#X connect 16 0 33 0;
#X connect 17 0 1 0;
#X connect 17 1 2 0;
#X connect 17 2 3 0;
#X connect 17 3 4 0;
#X connect 17 4 5 0;
#X connect 17 5 6 0;
#X connect 17 6 7 0;
#X connect 17 7 8 0;
#X connect 17 8 9 0;
#X connect 17 9 10 0;
#X connect 17 10 11 0;
#X connect 17 11 12 0;
#X connect 17 12 13 0;
#X connect 17 13 14 0;
#X connect 17 14 15 0;
#X connect 17 15 16 0;
#X connect 34 0 36 0;
#X connect 34 0 51 0;
#X connect 34 0 37 0;
#X connect 34 0 38 0;
#X connect 34 0 39 0;
#X connect 34 0 40 0;
#X connect 34 0 41 0;
#X connect 34 0 42 0;
#X connect 34 0 43 0;
#X connect 34 0 44 0;
#X connect 34 0 45 0;
#X connect 34 0 46 0;
#X connect 34 0 47 0;
#X connect 34 0 48 0;
#X connect 34 0 49 0;
#X connect 34 0 50 0;
#X connect 35 0 36 0;
#X connect 35 0 51 0;
#X connect 35 0 37 0;
#X connect 35 0 38 0;
#X connect 35 0 39 0;
#X connect 35 0 40 0;
#X connect 35 0 41 0;
#X connect 35 0 42 0;
#X connect 35 0 43 0;
#X connect 35 0 44 0;
#X connect 35 0 45 0;
#X connect 35 0 46 0;
#X connect 35 0 47 0;
#X connect 35 0 48 0;
#X connect 35 0 49 0;
#X connect 35 0 50 0;
#X connect 36 0 1 1;
#X connect 37 0 3 1;
#X connect 38 0 4 1;
#X connect 39 0 5 1;
#X connect 40 0 6 1;
#X connect 41 0 7 1;
#X connect 42 0 8 1;
#X connect 43 0 9 1;
#X connect 44 0 10 1;
#X connect 45 0 11 1;
#X connect 46 0 12 1;
#X connect 47 0 13 1;
#X connect 48 0 14 1;
#X connect 49 0 15 1;
#X connect 50 0 16 1;
#X connect 51 0 2 1;
#X restore 122 43 pd 3cmaj;
#N canvas 0 50 756 514 4cmaj 0;
#X obj 83 26 inlet;
#X obj 115 222 f;
#X obj 139 222 f;
#X obj 163 222 f;
#X obj 187 222 f;
#X obj 211 222 f;
#X obj 235 222 f;
#X obj 259 222 f;
#X obj 283 222 f;
#X obj 307 222 f;
#X obj 331 222 f;
#X obj 355 222 f;
#X obj 379 222 f;
#X obj 403 222 f;
#X obj 427 222 f;
#X obj 451 222 f;
#X obj 475 222 f;
#X obj -6 170 t b b b b b b b b b b b b b b b b;
#X obj 5 315 outlet;
#X obj 47 315 outlet;
#X obj 89 315 outlet;
#X obj 131 315 outlet;
#X obj 173 315 outlet;
#X obj 215 315 outlet;
#X obj 257 315 outlet;
#X obj 299 315 outlet;
#X obj 341 315 outlet;
#X obj 383 315 outlet;
#X obj 425 315 outlet;
#X obj 467 315 outlet;
#X obj 509 315 outlet;
#X obj 551 315 outlet;
#X obj 593 315 outlet;
#X obj 635 315 outlet;
#X obj 297 72 loadbang;
#X obj 201 59 bng 15 250 50 0 empty empty empty 0 -6 0 10 -262144 -1
-1;
#X msg 56 126 261.6;
#X msg 96 126 293.7;
#X msg 136 126 329.6;
#X msg 177 126 349.2;
#X msg 217 126 392;
#X msg 258 126 440;
#X msg 287 126 493.9;
#X msg 327 126 523.3;
#X msg 366 126 587.3;
#X msg 407 126 659.3;
#X msg 447 126 698.5;
#X msg 487 126 784;
#X msg 515 126 880;
#X msg 543 126 987.8;
#X msg 583 126 1047;
#X msg 623 126 1175;
#X connect 0 0 17 0;
#X connect 1 0 18 0;
#X connect 2 0 19 0;
#X connect 3 0 20 0;
#X connect 4 0 21 0;
#X connect 5 0 22 0;
#X connect 6 0 23 0;
#X connect 7 0 24 0;
#X connect 8 0 25 0;
#X connect 9 0 26 0;
#X connect 10 0 27 0;
#X connect 11 0 28 0;
#X connect 12 0 29 0;
#X connect 13 0 30 0;
#X connect 14 0 31 0;
#X connect 15 0 32 0;
#X connect 16 0 33 0;
#X connect 17 0 1 0;
#X connect 17 1 2 0;
#X connect 17 2 3 0;
#X connect 17 3 4 0;
#X connect 17 4 5 0;
#X connect 17 5 6 0;
#X connect 17 6 7 0;
#X connect 17 7 8 0;
#X connect 17 8 9 0;
#X connect 17 9 10 0;
#X connect 17 10 11 0;
#X connect 17 11 12 0;
#X connect 17 12 13 0;
#X connect 17 13 14 0;
#X connect 17 14 15 0;
#X connect 17 15 16 0;
#X connect 34 0 36 0;
#X connect 34 0 37 0;
#X connect 34 0 38 0;
#X connect 34 0 39 0;
#X connect 34 0 40 0;
#X connect 34 0 41 0;
#X connect 34 0 42 0;
#X connect 34 0 43 0;
#X connect 34 0 44 0;
#X connect 34 0 45 0;
#X connect 34 0 46 0;
#X connect 34 0 47 0;
#X connect 34 0 48 0;
#X connect 34 0 49 0;
#X connect 34 0 50 0;
#X connect 34 0 51 0;
#X connect 35 0 36 0;
#X connect 35 0 37 0;
#X connect 35 0 38 0;
#X connect 35 0 39 0;
#X connect 35 0 40 0;
#X connect 35 0 41 0;
#X connect 35 0 42 0;
#X connect 35 0 43 0;
#X connect 35 0 44 0;
#X connect 35 0 45 0;
#X connect 35 0 46 0;
#X connect 35 0 47 0;
#X connect 35 0 48 0;
#X connect 35 0 49 0;
#X connect 35 0 50 0;
#X connect 35 0 51 0;
#X connect 36 0 1 1;
#X connect 37 0 2 1;
#X connect 38 0 3 1;
#X connect 39 0 4 1;
#X connect 40 0 5 1;
#X connect 41 0 6 1;
#X connect 42 0 7 1;
#X connect 43 0 8 1;
#X connect 44 0 9 1;
#X connect 45 0 10 1;
#X connect 46 0 11 1;
#X connect 47 0 12 1;
#X connect 48 0 13 1;
#X connect 49 0 14 1;
#X connect 50 0 15 1;
#X connect 51 0 16 1;
#X restore 177 43 pd 4cmaj;
#N canvas 622 130 748 506 2c#maj 0;
#X obj 83 26 inlet;
#X obj 115 222 f;
#X obj 139 222 f;
#X obj 163 222 f;
#X obj 187 222 f;
#X obj 211 222 f;
#X obj 235 222 f;
#X obj 259 222 f;
#X obj 283 222 f;
#X obj 307 222 f;
#X obj 331 222 f;
#X obj 355 222 f;
#X obj 379 222 f;
#X obj 403 222 f;
#X obj 427 222 f;
#X obj 451 222 f;
#X obj 475 222 f;
#X obj -6 170 t b b b b b b b b b b b b b b b b;
#X obj 5 315 outlet;
#X obj 47 315 outlet;
#X obj 89 315 outlet;
#X obj 131 315 outlet;
#X obj 173 315 outlet;
#X obj 215 315 outlet;
#X obj 257 315 outlet;
#X obj 299 315 outlet;
#X obj 341 315 outlet;
#X obj 383 315 outlet;
#X obj 425 315 outlet;
#X obj 467 315 outlet;
#X obj 509 315 outlet;
#X obj 551 315 outlet;
#X obj 593 315 outlet;
#X obj 635 315 outlet;
#X obj 297 72 loadbang;
#X obj 201 59 bng 15 250 50 0 empty empty empty 0 -6 0 10 -262144 -1
-1;
#X msg 56 126 69.3;
#X msg 96 126 77.78;
#X msg 136 126 43.65;
#X msg 177 126 46.25;
#X msg 217 126 51.91;
#X msg 258 126 58.27;
#X msg 298 126 65.41;
#X msg 338 126 69.3;
#X msg 378 126 77.78;
#X msg 418 126 87.31;
#X msg 458 126 92.5;
#X msg 492 126 103.8;
#X msg 533 126 116.5;
#X msg 573 126 130.8;
#X msg 612 126 138.6;
#X msg 652 126 155.6;
#X connect 0 0 17 0;
#X connect 1 0 18 0;
#X connect 2 0 19 0;
#X connect 3 0 20 0;
#X connect 4 0 21 0;
#X connect 5 0 22 0;
#X connect 6 0 23 0;
#X connect 7 0 24 0;
#X connect 8 0 25 0;
#X connect 9 0 26 0;
#X connect 10 0 27 0;
#X connect 11 0 28 0;
#X connect 12 0 29 0;
#X connect 13 0 30 0;
#X connect 14 0 31 0;
#X connect 15 0 32 0;
#X connect 16 0 33 0;
#X connect 17 0 1 0;
#X connect 17 1 2 0;
#X connect 17 2 3 0;
#X connect 17 3 4 0;
#X connect 17 4 5 0;
#X connect 17 5 6 0;
#X connect 17 6 7 0;
#X connect 17 7 8 0;
#X connect 17 8 9 0;
#X connect 17 9 10 0;
#X connect 17 10 11 0;
#X connect 17 11 12 0;
#X connect 17 12 13 0;
#X connect 17 13 14 0;
#X connect 17 14 15 0;
#X connect 17 15 16 0;
#X connect 34 0 36 0;
#X connect 34 0 37 0;
#X connect 34 0 38 0;
#X connect 34 0 39 0;
#X connect 34 0 40 0;
#X connect 34 0 41 0;
#X connect 34 0 42 0;
#X connect 34 0 43 0;
#X connect 34 0 44 0;
#X connect 34 0 45 0;
#X connect 34 0 46 0;
#X connect 34 0 47 0;
#X connect 34 0 48 0;
#X connect 34 0 49 0;
#X connect 34 0 50 0;
#X connect 34 0 51 0;
#X connect 35 0 36 0;
#X connect 35 0 37 0;
#X connect 35 0 38 0;
#X connect 35 0 39 0;
#X connect 35 0 40 0;
#X connect 35 0 41 0;
#X connect 35 0 42 0;
#X connect 35 0 43 0;
#X connect 35 0 44 0;
#X connect 35 0 45 0;
#X connect 35 0 46 0;
#X connect 35 0 47 0;
#X connect 35 0 48 0;
#X connect 35 0 49 0;
#X connect 35 0 50 0;
#X connect 35 0 51 0;
#X connect 36 0 1 1;
#X connect 37 0 2 1;
#X connect 38 0 3 1;
#X connect 39 0 4 1;
#X connect 40 0 5 1;
#X connect 41 0 6 1;
#X connect 42 0 7 1;
#X connect 43 0 8 1;
#X connect 44 0 9 1;
#X connect 45 0 10 1;
#X connect 46 0 11 1;
#X connect 47 0 12 1;
#X connect 48 0 13 1;
#X connect 49 0 14 1;
#X connect 50 0 15 1;
#X connect 51 0 16 1;
#X restore 315 42 pd 2c#maj;
#N canvas 0 50 756 514 1c#maj 0;
#X obj 83 26 inlet;
#X obj 115 222 f;
#X obj 139 222 f;
#X obj 163 222 f;
#X obj 187 222 f;
#X obj 211 222 f;
#X obj 235 222 f;
#X obj 259 222 f;
#X obj 283 222 f;
#X obj 307 222 f;
#X obj 331 222 f;
#X obj 355 222 f;
#X obj 379 222 f;
#X obj 403 222 f;
#X obj 427 222 f;
#X obj 451 222 f;
#X obj 475 222 f;
#X obj -6 170 t b b b b b b b b b b b b b b b b;
#X obj 5 315 outlet;
#X obj 47 315 outlet;
#X obj 89 315 outlet;
#X obj 131 315 outlet;
#X obj 173 315 outlet;
#X obj 215 315 outlet;
#X obj 257 315 outlet;
#X obj 299 315 outlet;
#X obj 341 315 outlet;
#X obj 383 315 outlet;
#X obj 425 315 outlet;
#X obj 467 315 outlet;
#X obj 509 315 outlet;
#X obj 551 315 outlet;
#X obj 593 315 outlet;
#X obj 635 315 outlet;
#X obj 334 24 loadbang;
#X obj 201 59 bng 15 250 50 0 empty empty empty 0 -6 0 10 -262144 -1
-1;
#X msg 56 126 34.65;
#X msg 96 126 38.89;
#X msg 136 126 43.65;
#X msg 177 126 46.25;
#X msg 217 126 51.91;
#X msg 258 126 58.27;
#X msg 312 126 65.41;
#X msg 352 126 69.3;
#X msg 392 126 77.78;
#X msg 432 126 87.31;
#X msg 472 126 92.5;
#X msg 512 126 103.8;
#X msg 555 126 116.5;
#X msg 598 126 130.8;
#X msg 638 126 138.6;
#X msg 678 126 155.6;
#X connect 0 0 17 0;
#X connect 1 0 18 0;
#X connect 2 0 19 0;
#X connect 3 0 20 0;
#X connect 4 0 21 0;
#X connect 5 0 22 0;
#X connect 6 0 23 0;
#X connect 7 0 24 0;
#X connect 8 0 25 0;
#X connect 9 0 26 0;
#X connect 10 0 27 0;
#X connect 11 0 28 0;
#X connect 12 0 29 0;
#X connect 13 0 30 0;
#X connect 14 0 31 0;
#X connect 15 0 32 0;
#X connect 16 0 33 0;
#X connect 17 0 1 0;
#X connect 17 1 2 0;
#X connect 17 2 3 0;
#X connect 17 3 4 0;
#X connect 17 4 5 0;
#X connect 17 5 6 0;
#X connect 17 6 7 0;
#X connect 17 7 8 0;
#X connect 17 8 9 0;
#X connect 17 9 10 0;
#X connect 17 10 11 0;
#X connect 17 11 12 0;
#X connect 17 12 13 0;
#X connect 17 13 14 0;
#X connect 17 14 15 0;
#X connect 17 15 16 0;
#X connect 34 0 36 0;
#X connect 34 0 37 0;
#X connect 34 0 38 0;
#X connect 34 0 39 0;
#X connect 34 0 40 0;
#X connect 34 0 41 0;
#X connect 34 0 42 0;
#X connect 34 0 43 0;
#X connect 34 0 44 0;
#X connect 34 0 45 0;
#X connect 34 0 46 0;
#X connect 34 0 47 0;
#X connect 34 0 48 0;
#X connect 34 0 49 0;
#X connect 34 0 50 0;
#X connect 34 0 51 0;
#X connect 35 0 36 0;
#X connect 35 0 37 0;
#X connect 35 0 38 0;
#X connect 35 0 39 0;
#X connect 35 0 40 0;
#X connect 35 0 41 0;
#X connect 35 0 42 0;
#X connect 35 0 43 0;
#X connect 35 0 44 0;
#X connect 35 0 45 0;
#X connect 35 0 46 0;
#X connect 35 0 47 0;
#X connect 35 0 48 0;
#X connect 35 0 49 0;
#X connect 35 0 50 0;
#X connect 35 0 51 0;
#X connect 36 0 1 1;
#X connect 37 0 2 1;
#X connect 38 0 3 1;
#X connect 39 0 4 1;
#X connect 40 0 5 1;
#X connect 41 0 6 1;
#X connect 42 0 7 1;
#X connect 43 0 8 1;
#X connect 44 0 9 1;
#X connect 45 0 10 1;
#X connect 46 0 11 1;
#X connect 47 0 12 1;
#X connect 48 0 13 1;
#X connect 49 0 14 1;
#X connect 50 0 15 1;
#X connect 51 0 16 1;
#X restore 254 43 pd 1c#maj;
#N canvas 0 50 744 502 3c#maj 0;
#X obj 83 26 inlet;
#X obj 115 222 f;
#X obj 139 222 f;
#X obj 163 222 f;
#X obj 187 222 f;
#X obj 211 222 f;
#X obj 235 222 f;
#X obj 259 222 f;
#X obj 283 222 f;
#X obj 307 222 f;
#X obj 331 222 f;
#X obj 355 222 f;
#X obj 379 222 f;
#X obj 403 222 f;
#X obj 427 222 f;
#X obj 451 222 f;
#X obj 475 222 f;
#X obj -6 170 t b b b b b b b b b b b b b b b b;
#X obj 5 315 outlet;
#X obj 47 315 outlet;
#X obj 89 315 outlet;
#X obj 131 315 outlet;
#X obj 173 315 outlet;
#X obj 215 315 outlet;
#X obj 257 315 outlet;
#X obj 299 315 outlet;
#X obj 341 315 outlet;
#X obj 383 315 outlet;
#X obj 425 315 outlet;
#X obj 467 315 outlet;
#X obj 509 315 outlet;
#X obj 551 315 outlet;
#X obj 593 315 outlet;
#X obj 635 315 outlet;
#X obj 297 72 loadbang;
#X obj 201 59 bng 15 250 50 0 empty empty empty 0 -6 0 10 -262144 -1
-1;
#X msg 56 126 138.6;
#X msg 96 126 155.6;
#X msg 136 126 174.6;
#X msg 177 126 185;
#X msg 206 126 207.7;
#X msg 250 126 233.1;
#X msg 287 126 277.2;
#X msg 327 126 311.1;
#X msg 367 126 349.2;
#X msg 407 126 370;
#X msg 436 126 415.3;
#X msg 477 126 466.2;
#X msg 515 126 523.3;
#X msg 557 126 554.4;
#X msg 597 126 622.3;
#X msg 637 126 698.5;
#X connect 0 0 17 0;
#X connect 1 0 18 0;
#X connect 2 0 19 0;
#X connect 3 0 20 0;
#X connect 4 0 21 0;
#X connect 5 0 22 0;
#X connect 6 0 23 0;
#X connect 7 0 24 0;
#X connect 8 0 25 0;
#X connect 9 0 26 0;
#X connect 10 0 27 0;
#X connect 11 0 28 0;
#X connect 12 0 29 0;
#X connect 13 0 30 0;
#X connect 14 0 31 0;
#X connect 15 0 32 0;
#X connect 16 0 33 0;
#X connect 17 0 1 0;
#X connect 17 1 2 0;
#X connect 17 2 3 0;
#X connect 17 3 4 0;
#X connect 17 4 5 0;
#X connect 17 5 6 0;
#X connect 17 6 7 0;
#X connect 17 7 8 0;
#X connect 17 8 9 0;
#X connect 17 9 10 0;
#X connect 17 10 11 0;
#X connect 17 11 12 0;
#X connect 17 12 13 0;
#X connect 17 13 14 0;
#X connect 17 14 15 0;
#X connect 17 15 16 0;
#X connect 34 0 36 0;
#X connect 34 0 37 0;
#X connect 34 0 38 0;
#X connect 34 0 39 0;
#X connect 34 0 40 0;
#X connect 34 0 41 0;
#X connect 34 0 42 0;
#X connect 34 0 43 0;
#X connect 34 0 44 0;
#X connect 34 0 45 0;
#X connect 34 0 46 0;
#X connect 34 0 47 0;
#X connect 34 0 48 0;
#X connect 34 0 49 0;
#X connect 34 0 50 0;
#X connect 34 0 51 0;
#X connect 35 0 36 0;
#X connect 35 0 37 0;
#X connect 35 0 38 0;
#X connect 35 0 39 0;
#X connect 35 0 40 0;
#X connect 35 0 41 0;
#X connect 35 0 42 0;
#X connect 35 0 43 0;
#X connect 35 0 44 0;
#X connect 35 0 45 0;
#X connect 35 0 46 0;
#X connect 35 0 47 0;
#X connect 35 0 48 0;
#X connect 35 0 49 0;
#X connect 35 0 50 0;
#X connect 35 0 51 0;
#X connect 36 0 1 1;
#X connect 37 0 2 1;
#X connect 38 0 3 1;
#X connect 39 0 4 1;
#X connect 40 0 5 1;
#X connect 41 0 6 1;
#X connect 42 0 7 1;
#X connect 43 0 8 1;
#X connect 44 0 9 1;
#X connect 45 0 10 1;
#X connect 46 0 11 1;
#X connect 47 0 12 1;
#X connect 48 0 13 1;
#X connect 49 0 14 1;
#X connect 50 0 15 1;
#X connect 51 0 16 1;
#X restore 376 42 pd 3c#maj;
#N canvas 0 50 740 498 4c#maj 0;
#X obj 83 26 inlet;
#X obj 115 222 f;
#X obj 139 222 f;
#X obj 163 222 f;
#X obj 187 222 f;
#X obj 211 222 f;
#X obj 235 222 f;
#X obj 259 222 f;
#X obj 283 222 f;
#X obj 307 222 f;
#X obj 331 222 f;
#X obj 355 222 f;
#X obj 379 222 f;
#X obj 403 222 f;
#X obj 427 222 f;
#X obj 451 222 f;
#X obj 475 222 f;
#X obj -6 170 t b b b b b b b b b b b b b b b b;
#X obj 5 315 outlet;
#X obj 47 315 outlet;
#X obj 89 315 outlet;
#X obj 131 315 outlet;
#X obj 173 315 outlet;
#X obj 215 315 outlet;
#X obj 257 315 outlet;
#X obj 299 315 outlet;
#X obj 341 315 outlet;
#X obj 383 315 outlet;
#X obj 425 315 outlet;
#X obj 467 315 outlet;
#X obj 509 315 outlet;
#X obj 551 315 outlet;
#X obj 593 315 outlet;
#X obj 635 315 outlet;
#X obj 297 72 loadbang;
#X obj 201 59 bng 15 250 50 0 empty empty empty 0 -6 0 10 -262144 -1
-1;
#X msg 55 126 277.2;
#X msg 96 126 311.1;
#X msg 135 126 349.2;
#X msg 177 126 370;
#X msg 207 126 415.3;
#X msg 248 126 466.2;
#X msg 287 126 523.3;
#X msg 327 126 554.4;
#X msg 367 126 622.3;
#X msg 407 126 698.5;
#X msg 447 126 740;
#X msg 478 126 830.6;
#X msg 515 126 932.3;
#X msg 555 126 1047;
#X msg 595 126 1109;
#X msg 635 126 1245;
#X connect 0 0 17 0;
#X connect 1 0 18 0;
#X connect 2 0 19 0;
#X connect 3 0 20 0;
#X connect 4 0 21 0;
#X connect 5 0 22 0;
#X connect 6 0 23 0;
#X connect 7 0 24 0;
#X connect 8 0 25 0;
#X connect 9 0 26 0;
#X connect 10 0 27 0;
#X connect 11 0 28 0;
#X connect 12 0 29 0;
#X connect 13 0 30 0;
#X connect 14 0 31 0;
#X connect 15 0 32 0;
#X connect 16 0 33 0;
#X connect 17 0 1 0;
#X connect 17 1 2 0;
#X connect 17 2 3 0;
#X connect 17 3 4 0;
#X connect 17 4 5 0;
#X connect 17 5 6 0;
#X connect 17 6 7 0;
#X connect 17 7 8 0;
#X connect 17 8 9 0;
#X connect 17 9 10 0;
#X connect 17 10 11 0;
#X connect 17 11 12 0;
#X connect 17 12 13 0;
#X connect 17 13 14 0;
#X connect 17 14 15 0;
#X connect 17 15 16 0;
#X connect 34 0 36 0;
#X connect 34 0 37 0;
#X connect 34 0 38 0;
#X connect 34 0 39 0;
#X connect 34 0 40 0;
#X connect 34 0 41 0;
#X connect 34 0 42 0;
#X connect 34 0 43 0;
#X connect 34 0 44 0;
#X connect 34 0 45 0;
#X connect 34 0 46 0;
#X connect 34 0 47 0;
#X connect 34 0 48 0;
#X connect 34 0 49 0;
#X connect 34 0 50 0;
#X connect 34 0 51 0;
#X connect 35 0 36 0;
#X connect 35 0 37 0;
#X connect 35 0 38 0;
#X connect 35 0 39 0;
#X connect 35 0 40 0;
#X connect 35 0 41 0;
#X connect 35 0 42 0;
#X connect 35 0 43 0;
#X connect 35 0 44 0;
#X connect 35 0 45 0;
#X connect 35 0 46 0;
#X connect 35 0 47 0;
#X connect 35 0 48 0;
#X connect 35 0 49 0;
#X connect 35 0 50 0;
#X connect 35 0 51 0;
#X connect 36 0 1 1;
#X connect 37 0 2 1;
#X connect 38 0 3 1;
#X connect 39 0 4 1;
#X connect 40 0 5 1;
#X connect 41 0 6 1;
#X connect 42 0 7 1;
#X connect 43 0 8 1;
#X connect 44 0 9 1;
#X connect 45 0 10 1;
#X connect 46 0 11 1;
#X connect 47 0 12 1;
#X connect 48 0 13 1;
#X connect 49 0 14 1;
#X connect 50 0 15 1;
#X connect 51 0 16 1;
#X restore 437 42 pd 4c#maj;
#X connect 0 0 32 0;
#X connect 1 0 33 0;
#X connect 18 0 34 0;
#X connect 19 0 35 0;
#X connect 20 0 37 0;
#X connect 21 0 36 0;
#X connect 22 0 38 0;
#X connect 23 0 39 0;
#X connect 32 0 2 0;
#X connect 32 1 3 0;
#X connect 32 2 4 0;
#X connect 32 3 5 0;
#X connect 32 4 6 0;
#X connect 32 5 7 0;
#X connect 32 6 8 0;
#X connect 32 7 9 0;
#X connect 32 8 10 0;
#X connect 32 9 11 0;
#X connect 32 10 12 0;
#X connect 32 11 13 0;
#X connect 32 12 14 0;
#X connect 32 13 15 0;
#X connect 32 14 16 0;
#X connect 32 15 17 0;
#X connect 33 0 2 0;
#X connect 33 1 3 0;
#X connect 33 2 4 0;
#X connect 33 3 5 0;
#X connect 33 4 6 0;
#X connect 33 5 7 0;
#X connect 33 6 8 0;
#X connect 33 7 9 0;
#X connect 33 8 10 0;
#X connect 33 9 11 0;
#X connect 33 10 12 0;
#X connect 33 11 13 0;
#X connect 33 12 14 0;
#X connect 33 13 15 0;
#X connect 33 14 16 0;
#X connect 33 15 17 0;
#X connect 34 0 2 0;
#X connect 34 1 3 0;
#X connect 34 2 4 0;
#X connect 34 3 5 0;
#X connect 34 4 6 0;
#X connect 34 5 7 0;
#X connect 34 6 8 0;
#X connect 34 7 9 0;
#X connect 34 8 10 0;
#X connect 34 9 11 0;
#X connect 34 10 12 0;
#X connect 34 11 13 0;
#X connect 34 12 14 0;
#X connect 34 13 15 0;
#X connect 34 14 16 0;
#X connect 34 15 17 0;
#X connect 35 0 2 0;
#X connect 35 1 3 0;
#X connect 35 2 4 0;
#X connect 35 3 5 0;
#X connect 35 4 6 0;
#X connect 35 5 7 0;
#X connect 35 6 8 0;
#X connect 35 7 9 0;
#X connect 35 8 10 0;
#X connect 35 9 11 0;
#X connect 35 10 12 0;
#X connect 35 11 13 0;
#X connect 35 12 14 0;
#X connect 35 13 15 0;
#X connect 35 14 16 0;
#X connect 35 15 17 0;
#X connect 36 0 2 0;
#X connect 36 1 3 0;
#X connect 36 2 4 0;
#X connect 36 3 5 0;
#X connect 36 4 6 0;
#X connect 36 5 7 0;
#X connect 36 6 8 0;
#X connect 36 7 9 0;
#X connect 36 8 10 0;
#X connect 36 9 11 0;
#X connect 36 10 12 0;
#X connect 36 11 13 0;
#X connect 36 12 14 0;
#X connect 36 13 15 0;
#X connect 36 14 16 0;
#X connect 36 15 17 0;
#X connect 37 0 2 0;
#X connect 37 1 3 0;
#X connect 37 2 4 0;
#X connect 37 3 5 0;
#X connect 37 4 6 0;
#X connect 37 5 7 0;
#X connect 37 6 8 0;
#X connect 37 7 9 0;
#X connect 37 8 10 0;
#X connect 37 9 11 0;
#X connect 37 10 12 0;
#X connect 37 11 13 0;
#X connect 37 12 14 0;
#X connect 37 13 15 0;
#X connect 37 14 16 0;
#X connect 37 15 17 0;
#X connect 38 0 2 0;
#X connect 38 1 3 0;
#X connect 38 2 4 0;
#X connect 38 3 5 0;
#X connect 38 4 6 0;
#X connect 38 5 7 0;
#X connect 38 6 8 0;
#X connect 38 7 9 0;
#X connect 38 8 10 0;
#X connect 38 9 11 0;
#X connect 38 10 12 0;
#X connect 38 11 13 0;
#X connect 38 12 14 0;
#X connect 38 13 15 0;
#X connect 38 14 16 0;
#X connect 38 15 17 0;
#X connect 39 0 2 0;
#X connect 39 1 3 0;
#X connect 39 2 4 0;
#X connect 39 3 5 0;
#X connect 39 4 6 0;
#X connect 39 5 7 0;
#X connect 39 6 8 0;
#X connect 39 7 9 0;
#X connect 39 8 10 0;
#X connect 39 9 11 0;
#X connect 39 10 12 0;
#X connect 39 11 13 0;
#X connect 39 12 14 0;
#X connect 39 13 15 0;
#X connect 39 14 16 0;
#X connect 39 15 17 0;
#X restore 554 186 pd 1Cmaj;
#X obj 823 647 /~ 8;
#X obj 776 656 /~ 8;
#X obj 911 633 /~ 8;
#X obj 296 11 inlet;
#X obj 305 37 bng 15 250 50 0 empty empty empty 17 7 0 10 -262144 -1
-1;
#X obj 306 60 random 15;
#X obj 196 88 select 0 1 2 3 4 5 6 7 8 9 10 11 12 13 14 15;
#X connect 0 0 2 0;
#X connect 0 0 65 0;
#X connect 2 0 70 0;
#X connect 3 0 118 0;
#X connect 4 0 3 1;
#X connect 5 0 4 0;
#X connect 6 0 4 0;
#X connect 7 0 2 0;
#X connect 7 0 65 0;
#X connect 8 0 2 0;
#X connect 8 0 65 0;
#X connect 9 0 2 0;
#X connect 9 0 65 0;
#X connect 10 0 2 0;
#X connect 10 0 65 0;
#X connect 11 0 2 0;
#X connect 11 0 65 0;
#X connect 12 0 2 0;
#X connect 12 0 65 0;
#X connect 13 0 2 0;
#X connect 13 0 65 0;
#X connect 14 0 9 1;
#X connect 15 0 7 1;
#X connect 16 0 0 1;
#X connect 17 0 8 1;
#X connect 18 0 13 1;
#X connect 19 0 11 1;
#X connect 20 0 10 1;
#X connect 21 0 12 1;
#X connect 22 0 8 0;
#X connect 22 0 75 0;
#X connect 23 0 0 0;
#X connect 23 0 73 0;
#X connect 24 0 9 0;
#X connect 24 0 76 0;
#X connect 25 0 7 0;
#X connect 25 0 74 0;
#X connect 26 0 12 0;
#X connect 26 0 79 0;
#X connect 27 0 10 0;
#X connect 27 0 77 0;
#X connect 28 0 13 0;
#X connect 28 0 80 0;
#X connect 29 0 11 0;
#X connect 29 0 78 0;
#X connect 30 0 2 0;
#X connect 30 0 65 0;
#X connect 31 0 2 0;
#X connect 31 0 65 0;
#X connect 32 0 2 0;
#X connect 32 0 65 0;
#X connect 33 0 2 0;
#X connect 33 0 65 0;
#X connect 34 0 2 0;
#X connect 34 0 65 0;
#X connect 35 0 2 0;
#X connect 35 0 65 0;
#X connect 36 0 2 0;
#X connect 36 0 65 0;
#X connect 37 0 2 0;
#X connect 37 0 65 0;
#X connect 38 0 33 1;
#X connect 39 0 31 1;
#X connect 40 0 30 1;
#X connect 41 0 32 1;
#X connect 42 0 37 1;
#X connect 43 0 35 1;
#X connect 44 0 34 1;
#X connect 45 0 36 1;
#X connect 46 0 32 0;
#X connect 46 0 91 0;
#X connect 47 0 30 0;
#X connect 47 0 89 0;
#X connect 48 0 33 0;
#X connect 48 0 92 0;
#X connect 49 0 31 0;
#X connect 49 0 90 0;
#X connect 50 0 36 0;
#X connect 50 0 95 0;
#X connect 51 0 34 0;
#X connect 51 0 93 0;
#X connect 52 0 37 0;
#X connect 52 0 96 0;
#X connect 53 0 35 0;
#X connect 53 0 94 0;
#X connect 54 0 71 0;
#X connect 55 0 119 0;
#X connect 56 0 55 1;
#X connect 57 0 56 0;
#X connect 58 0 56 0;
#X connect 59 0 5 0;
#X connect 59 0 57 0;
#X connect 59 0 68 0;
#X connect 60 0 6 0;
#X connect 60 0 58 0;
#X connect 60 0 69 0;
#X connect 61 0 62 0;
#X connect 62 0 70 0;
#X connect 62 0 71 0;
#X connect 62 0 72 0;
#X connect 63 0 62 1;
#X connect 64 0 66 0;
#X connect 65 0 72 0;
#X connect 66 0 117 0;
#X connect 67 0 66 1;
#X connect 68 0 67 0;
#X connect 69 0 67 0;
#X connect 70 0 3 0;
#X connect 71 0 55 0;
#X connect 72 0 64 0;
#X connect 73 0 54 0;
#X connect 74 0 54 0;
#X connect 75 0 54 0;
#X connect 76 0 54 0;
#X connect 77 0 54 0;
#X connect 78 0 54 0;
#X connect 79 0 54 0;
#X connect 80 0 54 0;
#X connect 81 0 76 1;
#X connect 82 0 74 1;
#X connect 83 0 73 1;
#X connect 84 0 75 1;
#X connect 85 0 80 1;
#X connect 86 0 78 1;
#X connect 87 0 77 1;
#X connect 88 0 79 1;
#X connect 89 0 54 0;
#X connect 90 0 54 0;
#X connect 91 0 54 0;
#X connect 92 0 54 0;
#X connect 93 0 54 0;
#X connect 94 0 54 0;
#X connect 95 0 54 0;
#X connect 96 0 54 0;
#X connect 97 0 92 1;
#X connect 98 0 90 1;
#X connect 99 0 89 1;
#X connect 100 0 91 1;
#X connect 101 0 96 1;
#X connect 102 0 94 1;
#X connect 103 0 93 1;
#X connect 104 0 95 1;
#X connect 105 0 67 0;
#X connect 106 0 56 0;
#X connect 107 0 4 0;
#X connect 108 0 116 0;
#X connect 109 0 116 1;
#X connect 110 0 116 2;
#X connect 111 0 116 3;
#X connect 112 0 116 4;
#X connect 113 0 116 5;
#X connect 114 0 116 6;
#X connect 115 0 116 7;
#X connect 116 0 15 0;
#X connect 116 1 16 0;
#X connect 116 2 14 0;
#X connect 116 3 17 0;
#X connect 116 4 19 0;
#X connect 116 5 20 0;
#X connect 116 6 18 0;
#X connect 116 7 21 0;
#X connect 116 8 39 0;
#X connect 116 9 40 0;
#X connect 116 10 38 0;
#X connect 116 11 41 0;
#X connect 116 12 43 0;
#X connect 116 13 44 0;
#X connect 116 14 42 0;
#X connect 116 15 45 0;
#X connect 117 0 1 1;
#X connect 118 0 1 0;
#X connect 119 0 1 0;
#X connect 120 0 121 0;
#X connect 121 0 122 0;
#X connect 122 0 123 0;
#X connect 123 0 25 0;
#X connect 123 1 24 0;
#X connect 123 2 29 0;
#X connect 123 3 28 0;
#X connect 123 4 23 0;
#X connect 123 5 22 0;
#X connect 123 6 27 0;
#X connect 123 7 26 0;
#X connect 123 8 49 0;
#X connect 123 9 48 0;
#X connect 123 10 53 0;
#X connect 123 11 52 0;
#X connect 123 12 47 0;
#X connect 123 13 46 0;
#X connect 123 14 51 0;
#X connect 123 15 50 0;
#X coords 0 -1 1 1 400 350 1 100 100;
