#N canvas 91 66 1440 750 10;
#X floatatom 1330 205 5 0 0 0 - - - 0;
#X obj 109 201 bng 15 250 50 0 empty empty empty 0 -6 0 10 #fc0400
#000000 #000000;
#X obj 124 201 bng 15 250 50 0 empty empty empty 0 -6 0 10 #fcfcfc
#000000 #000000;
#X obj 139 201 bng 15 250 50 0 empty empty empty 0 -6 0 10 #fcfcfc
#000000 #000000;
#X obj 154 201 bng 15 250 50 0 empty empty empty 0 -6 0 10 #fcfcfc
#000000 #000000;
#X obj 169 201 bng 15 250 50 0 empty empty empty 0 -6 0 10 #fc0400
#000000 #000000;
#X obj 184 201 bng 15 250 50 0 empty empty empty 0 -6 0 10 #fcfcfc
#000000 #000000;
#X obj 199 201 bng 15 250 50 0 empty empty empty 0 -6 0 10 #fcfcfc
#000000 #000000;
#X obj 214 201 bng 15 250 50 0 empty empty empty 0 -6 0 10 #fcfcfc
#000000 #000000;
#X obj 229 201 bng 15 250 50 0 empty empty empty 0 -6 0 10 #fc0400
#000000 #000000;
#X obj 244 201 bng 15 250 50 0 empty empty empty 0 -6 0 10 #fcfcfc
#000000 #000000;
#X obj 259 201 bng 15 250 50 0 empty empty empty 0 -6 0 10 #fcfcfc
#000000 #000000;
#X obj 274 201 bng 15 250 50 0 empty empty empty 0 -6 0 10 #fcfcfc
#000000 #000000;
#X obj 289 201 bng 15 250 50 0 empty empty empty 0 -6 0 10 #fc0400
#000000 #000000;
#X obj 304 201 bng 15 250 50 0 empty empty empty 0 -6 0 10 #fcfcfc
#000000 #000000;
#X obj 319 201 bng 15 250 50 0 empty empty empty 0 -6 0 10 #fcfcfc
#000000 #000000;
#X obj 334 201 bng 15 250 50 0 empty empty empty 0 -6 0 10 #fcfcfc
#000000 #000000;
#X obj 349 201 bng 15 250 50 0 empty empty empty 0 -6 0 10 #fc0400
#000000 #000000;
#X obj 364 201 bng 15 250 50 0 empty empty empty 0 -6 0 10 #fcfcfc
#000000 #000000;
#X obj 379 201 bng 15 250 50 0 empty empty empty 0 -6 0 10 #fcfcfc
#000000 #000000;
#X obj 394 201 bng 15 250 50 0 empty empty empty 0 -6 0 10 #fcfcfc
#000000 #000000;
#X obj 409 201 bng 15 250 50 0 empty empty empty 0 -6 0 10 #fc0400
#000000 #000000;
#X obj 424 201 bng 15 250 50 0 empty empty empty 0 -6 0 10 #fcfcfc
#000000 #000000;
#X obj 439 201 bng 15 250 50 0 empty empty empty 0 -6 0 10 #fcfcfc
#000000 #000000;
#X obj 454 201 bng 15 250 50 0 empty empty empty 0 -6 0 10 #fcfcfc
#000000 #000000;
#X obj 484 201 bng 15 250 50 0 empty empty empty 0 -6 0 10 #fcfcfc
#000000 #000000;
#X obj 499 201 bng 15 250 50 0 empty empty empty 0 -6 0 10 #fcfcfc
#000000 #000000;
#X obj 514 201 bng 15 250 50 0 empty empty empty 0 -6 0 10 #fcfcfc
#000000 #000000;
#X obj 529 201 bng 15 250 50 0 empty empty empty 0 -6 0 10 #fc0400
#000000 #000000;
#X obj 544 201 bng 15 250 50 0 empty empty empty 0 -6 0 10 #fcfcfc
#000000 #000000;
#X obj 559 201 bng 15 250 50 0 empty empty empty 0 -6 0 10 #fcfcfc
#000000 #000000;
#X obj 574 201 bng 15 250 50 0 empty empty empty 0 -6 0 10 #fcfcfc
#000000 #000000;
#X obj 469 201 bng 15 250 50 0 empty empty empty 0 -6 0 10 #fc0400
#000000 #000000;
#X obj 110 46 sel 0 1 2 3 4 5 6 7 8 9 10 11 12 13 14 15 16 17 18 19
20 21 22 23 24 25 26 27 28 29 30;
#X obj 1024 1182 drumcenter-01;
#X obj 98 1214 drumcenter-02;
#X obj 84 932 kik;
#X obj 1011 917 angriff-01;
#X obj 108 597 tgl 15 0 empty empty empty 17 7 0 10 #fc0400 #000000
#000000 0 1;
#X obj 125 597 tgl 15 0 empty empty empty 17 7 0 10 #fcfcfc #000000
#000000 0 1;
#X obj 142 597 tgl 15 0 empty empty empty 17 7 0 10 #fcfcfc #000000
#000000 0 1;
#X obj 159 597 tgl 15 0 empty empty empty 17 7 0 10 #fcfcfc #000000
#000000 0 1;
#X obj 176 597 tgl 15 0 empty empty empty 17 7 0 10 #fc0400 #000000
#000000 0 1;
#X obj 193 597 tgl 15 0 empty empty empty 17 7 0 10 #fcfcfc #000000
#000000 0 1;
#X obj 210 597 tgl 15 0 empty empty empty 17 7 0 10 #fcfcfc #000000
#000000 0 1;
#X obj 227 597 tgl 15 0 empty empty empty 17 7 0 10 #fcfcfc #000000
#000000 0 1;
#X obj 244 597 tgl 15 0 empty empty empty 17 7 0 10 #fc0400 #000000
#000000 0 1;
#X obj 261 597 tgl 15 0 empty empty empty 17 7 0 10 #fcfcfc #000000
#000000 0 1;
#X obj 278 597 tgl 15 0 empty empty empty 17 7 0 10 #fcfcfc #000000
#000000 0 1;
#X obj 295 597 tgl 15 0 empty empty empty 17 7 0 10 #fcfcfc #000000
#000000 0 1;
#X obj 312 597 tgl 15 0 empty empty empty 17 7 0 10 #fc0400 #000000
#000000 0 1;
#X obj 329 597 tgl 15 0 empty empty empty 17 7 0 10 #fcfcfc #000000
#000000 0 1;
#X obj 346 597 tgl 15 0 empty empty empty 17 7 0 10 #fcfcfc #000000
#000000 0 1;
#X obj 363 597 tgl 15 0 empty empty empty 17 7 0 10 #fcfcfc #000000
#000000 0 1;
#X obj 380 597 tgl 15 0 empty empty empty 17 7 0 10 #fc0400 #000000
#000000 0 1;
#X obj 397 597 tgl 15 0 empty empty empty 17 7 0 10 #fcfcfc #000000
#000000 0 1;
#X obj 414 597 tgl 15 0 empty empty empty 17 7 0 10 #fcfcfc #000000
#000000 0 1;
#X obj 431 597 tgl 15 0 empty empty empty 17 7 0 10 #fcfcfc #000000
#000000 0 1;
#X obj 448 597 tgl 15 0 empty empty empty 17 7 0 10 #fc0400 #000000
#000000 0 1;
#X obj 465 597 tgl 15 0 empty empty empty 17 7 0 10 #fcfcfc #000000
#000000 0 1;
#X obj 482 597 tgl 15 0 empty empty empty 17 7 0 10 #fcfcfc #000000
#000000 0 1;
#X obj 499 597 tgl 15 0 empty empty empty 17 7 0 10 #fcfcfc #000000
#000000 0 1;
#X obj 516 597 tgl 15 0 empty empty empty 17 7 0 10 #fc0400 #000000
#000000 0 1;
#X obj 533 597 tgl 15 0 empty empty empty 17 7 0 10 #fcfcfc #000000
#000000 0 1;
#X obj 550 597 tgl 15 0 empty empty empty 17 7 0 10 #fcfcfc #000000
#000000 0 1;
#X obj 567 597 tgl 15 0 empty empty empty 17 7 0 10 #fcfcfc #000000
#000000 0 1;
#X obj 584 597 tgl 15 0 empty empty empty 17 7 0 10 #fc0400 #000000
#000000 0 1;
#X obj 601 597 tgl 15 0 empty empty empty 17 7 0 10 #fcfcfc #000000
#000000 0 1;
#X obj 618 597 tgl 15 0 empty empty empty 17 7 0 10 #fcfcfc #000000
#000000 0 1;
#X obj 635 597 tgl 15 0 empty empty empty 17 7 0 10 #fcfcfc #000000
#000000 0 1;
#X obj 84 820 spigot;
#X obj 138 819 spigot;
#X obj 192 819 spigot;
#X obj 246 818 spigot;
#X obj 300 818 spigot;
#X obj 354 817 spigot;
#X obj 409 818 spigot;
#X obj 462 818 spigot;
#X obj 516 818 spigot;
#X obj 570 818 spigot;
#X obj 623 818 spigot;
#X obj 678 818 spigot;
#X obj 732 818 spigot;
#X obj 786 818 spigot;
#X obj 840 817 spigot;
#X obj 894 817 spigot;
#X obj 83 864 spigot;
#X obj 137 863 spigot;
#X obj 191 863 spigot;
#X obj 245 862 spigot;
#X obj 299 862 spigot;
#X obj 353 861 spigot;
#X obj 408 862 spigot;
#X obj 461 862 spigot;
#X obj 515 862 spigot;
#X obj 569 862 spigot;
#X obj 622 862 spigot;
#X obj 677 862 spigot;
#X obj 731 862 spigot;
#X obj 785 862 spigot;
#X obj 839 861 spigot;
#X obj 893 861 spigot;
#X obj 108 579 tgl 15 0 empty empty empty 17 7 0 10 #fc0400 #000000
#000000 0 1;
#X obj 125 579 tgl 15 0 empty empty empty 17 7 0 10 #fcfcfc #000000
#000000 0 1;
#X obj 142 579 tgl 15 0 empty empty empty 17 7 0 10 #fcfcfc #000000
#000000 0 1;
#X obj 159 579 tgl 15 0 empty empty empty 17 7 0 10 #fcfcfc #000000
#000000 0 1;
#X obj 176 579 tgl 15 0 empty empty empty 17 7 0 10 #fc0400 #000000
#000000 0 1;
#X obj 193 579 tgl 15 0 empty empty empty 17 7 0 10 #fcfcfc #000000
#000000 0 1;
#X obj 210 579 tgl 15 0 empty empty empty 17 7 0 10 #fcfcfc #000000
#000000 0 1;
#X obj 227 579 tgl 15 0 empty empty empty 17 7 0 10 #fcfcfc #000000
#000000 0 1;
#X obj 244 579 tgl 15 0 empty empty empty 17 7 0 10 #fc0400 #000000
#000000 0 1;
#X obj 261 579 tgl 15 0 empty empty empty 17 7 0 10 #fcfcfc #000000
#000000 0 1;
#X obj 278 579 tgl 15 0 empty empty empty 17 7 0 10 #fcfcfc #000000
#000000 0 1;
#X obj 295 579 tgl 15 0 empty empty empty 17 7 0 10 #fcfcfc #000000
#000000 0 1;
#X obj 312 579 tgl 15 0 empty empty empty 17 7 0 10 #fc0400 #000000
#000000 0 1;
#X obj 329 579 tgl 15 0 empty empty empty 17 7 0 10 #fcfcfc #000000
#000000 0 1;
#X obj 346 579 tgl 15 0 empty empty empty 17 7 0 10 #fcfcfc #000000
#000000 0 1;
#X obj 363 579 tgl 15 0 empty empty empty 17 7 0 10 #fcfcfc #000000
#000000 0 1;
#X obj 380 579 tgl 15 0 empty empty empty 17 7 0 10 #fc0400 #000000
#000000 0 1;
#X obj 397 579 tgl 15 0 empty empty empty 17 7 0 10 #fcfcfc #000000
#000000 0 1;
#X obj 414 579 tgl 15 0 empty empty empty 17 7 0 10 #fcfcfc #000000
#000000 0 1;
#X obj 431 579 tgl 15 0 empty empty empty 17 7 0 10 #fcfcfc #000000
#000000 0 1;
#X obj 448 579 tgl 15 0 empty empty empty 17 7 0 10 #fc0400 #000000
#000000 0 1;
#X obj 465 579 tgl 15 0 empty empty empty 17 7 0 10 #fcfcfc #000000
#000000 0 1;
#X obj 482 579 tgl 15 0 empty empty empty 17 7 0 10 #fcfcfc #000000
#000000 0 1;
#X obj 499 579 tgl 15 0 empty empty empty 17 7 0 10 #fcfcfc #000000
#000000 0 1;
#X obj 516 579 tgl 15 0 empty empty empty 17 7 0 10 #fc0400 #000000
#000000 0 1;
#X obj 533 579 tgl 15 0 empty empty empty 17 7 0 10 #fcfcfc #000000
#000000 0 1;
#X obj 550 579 tgl 15 0 empty empty empty 17 7 0 10 #fcfcfc #000000
#000000 0 1;
#X obj 567 579 tgl 15 0 empty empty empty 17 7 0 10 #fcfcfc #000000
#000000 0 1;
#X obj 584 579 tgl 15 0 empty empty empty 17 7 0 10 #fc0400 #000000
#000000 0 1;
#X obj 601 579 tgl 15 0 empty empty empty 17 7 0 10 #fcfcfc #000000
#000000 0 1;
#X obj 618 579 tgl 15 0 empty empty empty 17 7 0 10 #fcfcfc #000000
#000000 0 1;
#X obj 635 579 tgl 15 0 empty empty empty 17 7 0 10 #fcfcfc #000000
#000000 0 1;
#X obj 988 813 spigot;
#X obj 1042 812 spigot;
#X obj 1096 812 spigot;
#X obj 1150 811 spigot;
#X obj 1204 811 spigot;
#X obj 1258 810 spigot;
#X obj 1313 811 spigot;
#X obj 1366 811 spigot;
#X obj 1420 811 spigot;
#X obj 1474 811 spigot;
#X obj 1527 811 spigot;
#X obj 1582 811 spigot;
#X obj 1636 811 spigot;
#X obj 1690 811 spigot;
#X obj 1744 810 spigot;
#X obj 1798 810 spigot;
#X obj 987 857 spigot;
#X obj 1041 856 spigot;
#X obj 1095 856 spigot;
#X obj 1149 855 spigot;
#X obj 1203 855 spigot;
#X obj 1257 854 spigot;
#X obj 1312 855 spigot;
#X obj 1365 855 spigot;
#X obj 1419 855 spigot;
#X obj 1473 855 spigot;
#X obj 1526 855 spigot;
#X obj 1581 855 spigot;
#X obj 1635 855 spigot;
#X obj 1689 855 spigot;
#X obj 1743 854 spigot;
#X obj 1797 854 spigot;
#X obj 108 543 tgl 15 0 empty empty empty 17 7 0 10 #fc0400 #000000
#000000 0 1;
#X obj 125 543 tgl 15 0 empty empty empty 17 7 0 10 #fcfcfc #000000
#000000 0 1;
#X obj 142 543 tgl 15 0 empty empty empty 17 7 0 10 #fcfcfc #000000
#000000 0 1;
#X obj 159 543 tgl 15 0 empty empty empty 17 7 0 10 #fcfcfc #000000
#000000 0 1;
#X obj 176 543 tgl 15 0 empty empty empty 17 7 0 10 #fc0400 #000000
#000000 0 1;
#X obj 193 543 tgl 15 0 empty empty empty 17 7 0 10 #fcfcfc #000000
#000000 0 1;
#X obj 210 543 tgl 15 0 empty empty empty 17 7 0 10 #fcfcfc #000000
#000000 0 1;
#X obj 227 543 tgl 15 0 empty empty empty 17 7 0 10 #fcfcfc #000000
#000000 0 1;
#X obj 244 543 tgl 15 0 empty empty empty 17 7 0 10 #fc0400 #000000
#000000 0 1;
#X obj 261 543 tgl 15 0 empty empty empty 17 7 0 10 #fcfcfc #000000
#000000 0 1;
#X obj 278 543 tgl 15 0 empty empty empty 17 7 0 10 #fcfcfc #000000
#000000 0 1;
#X obj 295 543 tgl 15 0 empty empty empty 17 7 0 10 #fcfcfc #000000
#000000 0 1;
#X obj 312 543 tgl 15 0 empty empty empty 17 7 0 10 #fc0400 #000000
#000000 0 1;
#X obj 329 543 tgl 15 0 empty empty empty 17 7 0 10 #fcfcfc #000000
#000000 0 1;
#X obj 346 543 tgl 15 0 empty empty empty 17 7 0 10 #fcfcfc #000000
#000000 0 1;
#X obj 363 543 tgl 15 0 empty empty empty 17 7 0 10 #fcfcfc #000000
#000000 0 1;
#X obj 380 543 tgl 15 0 empty empty empty 17 7 0 10 #fc0400 #000000
#000000 0 1;
#X obj 397 543 tgl 15 0 empty empty empty 17 7 0 10 #fcfcfc #000000
#000000 0 1;
#X obj 414 543 tgl 15 0 empty empty empty 17 7 0 10 #fcfcfc #000000
#000000 0 1;
#X obj 431 543 tgl 15 0 empty empty empty 17 7 0 10 #fcfcfc #000000
#000000 0 1;
#X obj 448 543 tgl 15 0 empty empty empty 17 7 0 10 #fc0400 #000000
#000000 0 1;
#X obj 465 543 tgl 15 0 empty empty empty 17 7 0 10 #fcfcfc #000000
#000000 0 1;
#X obj 482 543 tgl 15 0 empty empty empty 17 7 0 10 #fcfcfc #000000
#000000 0 1;
#X obj 499 543 tgl 15 0 empty empty empty 17 7 0 10 #fcfcfc #000000
#000000 0 1;
#X obj 516 543 tgl 15 0 empty empty empty 17 7 0 10 #fc0400 #000000
#000000 0 1;
#X obj 533 543 tgl 15 0 empty empty empty 17 7 0 10 #fcfcfc #000000
#000000 0 1;
#X obj 550 543 tgl 15 0 empty empty empty 17 7 0 10 #fcfcfc #000000
#000000 0 1;
#X obj 567 543 tgl 15 0 empty empty empty 17 7 0 10 #fcfcfc #000000
#000000 0 1;
#X obj 584 543 tgl 15 0 empty empty empty 17 7 0 10 #fc0400 #000000
#000000 0 1;
#X obj 601 543 tgl 15 0 empty empty empty 17 7 0 10 #fcfcfc #000000
#000000 0 1;
#X obj 618 543 tgl 15 0 empty empty empty 17 7 0 10 #fcfcfc #000000
#000000 0 1;
#X obj 635 543 tgl 15 0 empty empty empty 17 7 0 10 #fcfcfc #000000
#000000 0 1;
#X obj 967 1040 spigot;
#X obj 1021 1039 spigot;
#X obj 1075 1039 spigot;
#X obj 1129 1038 spigot;
#X obj 1183 1038 spigot;
#X obj 1237 1037 spigot;
#X obj 1292 1038 spigot;
#X obj 1345 1038 spigot;
#X obj 1399 1038 spigot;
#X obj 1453 1038 spigot;
#X obj 1506 1038 spigot;
#X obj 1561 1038 spigot;
#X obj 1615 1038 spigot;
#X obj 1669 1038 spigot;
#X obj 1723 1037 spigot;
#X obj 1777 1037 spigot;
#X obj 966 1084 spigot;
#X obj 1020 1083 spigot;
#X obj 1074 1083 spigot;
#X obj 1128 1082 spigot;
#X obj 1182 1082 spigot;
#X obj 1236 1081 spigot;
#X obj 1291 1082 spigot;
#X obj 1344 1082 spigot;
#X obj 1398 1082 spigot;
#X obj 1452 1082 spigot;
#X obj 1505 1082 spigot;
#X obj 1560 1082 spigot;
#X obj 1614 1082 spigot;
#X obj 1668 1082 spigot;
#X obj 1722 1081 spigot;
#X obj 1776 1081 spigot;
#X obj 108 561 tgl 15 0 empty empty empty 17 7 0 10 #fc0400 #000000
#000000 0 1;
#X obj 125 561 tgl 15 0 empty empty empty 17 7 0 10 #fcfcfc #000000
#000000 0 1;
#X obj 142 561 tgl 15 0 empty empty empty 17 7 0 10 #fcfcfc #000000
#000000 0 1;
#X obj 159 561 tgl 15 0 empty empty empty 17 7 0 10 #fcfcfc #000000
#000000 0 1;
#X obj 176 561 tgl 15 0 empty empty empty 17 7 0 10 #fc0400 #000000
#000000 0 1;
#X obj 193 561 tgl 15 0 empty empty empty 17 7 0 10 #fcfcfc #000000
#000000 0 1;
#X obj 210 561 tgl 15 0 empty empty empty 17 7 0 10 #fcfcfc #000000
#000000 0 1;
#X obj 227 561 tgl 15 0 empty empty empty 17 7 0 10 #fcfcfc #000000
#000000 0 1;
#X obj 244 561 tgl 15 0 empty empty empty 17 7 0 10 #fc0400 #000000
#000000 0 1;
#X obj 261 561 tgl 15 0 empty empty empty 17 7 0 10 #fcfcfc #000000
#000000 0 1;
#X obj 278 561 tgl 15 0 empty empty empty 17 7 0 10 #fcfcfc #000000
#000000 0 1;
#X obj 295 561 tgl 15 0 empty empty empty 17 7 0 10 #fcfcfc #000000
#000000 0 1;
#X obj 312 561 tgl 15 0 empty empty empty 17 7 0 10 #fc0400 #000000
#000000 0 1;
#X obj 329 561 tgl 15 0 empty empty empty 17 7 0 10 #fcfcfc #000000
#000000 0 1;
#X obj 346 561 tgl 15 0 empty empty empty 17 7 0 10 #fcfcfc #000000
#000000 0 1;
#X obj 363 561 tgl 15 0 empty empty empty 17 7 0 10 #fcfcfc #000000
#000000 0 1;
#X obj 380 561 tgl 15 0 empty empty empty 17 7 0 10 #fc0400 #000000
#000000 0 1;
#X obj 397 561 tgl 15 0 empty empty empty 17 7 0 10 #fcfcfc #000000
#000000 0 1;
#X obj 414 561 tgl 15 0 empty empty empty 17 7 0 10 #fcfcfc #000000
#000000 0 1;
#X obj 431 561 tgl 15 0 empty empty empty 17 7 0 10 #fcfcfc #000000
#000000 0 1;
#X obj 448 561 tgl 15 0 empty empty empty 17 7 0 10 #fc0400 #000000
#000000 0 1;
#X obj 465 561 tgl 15 0 empty empty empty 17 7 0 10 #fcfcfc #000000
#000000 0 1;
#X obj 482 561 tgl 15 0 empty empty empty 17 7 0 10 #fcfcfc #000000
#000000 0 1;
#X obj 499 561 tgl 15 0 empty empty empty 17 7 0 10 #fcfcfc #000000
#000000 0 1;
#X obj 516 561 tgl 15 0 empty empty empty 17 7 0 10 #fc0400 #000000
#000000 0 1;
#X obj 533 561 tgl 15 0 empty empty empty 17 7 0 10 #fcfcfc #000000
#000000 0 1;
#X obj 550 561 tgl 15 0 empty empty empty 17 7 0 10 #fcfcfc #000000
#000000 0 1;
#X obj 567 561 tgl 15 0 empty empty empty 17 7 0 10 #fcfcfc #000000
#000000 0 1;
#X obj 584 561 tgl 15 0 empty empty empty 17 7 0 10 #fc0400 #000000
#000000 0 1;
#X obj 601 561 tgl 15 0 empty empty empty 17 7 0 10 #fcfcfc #000000
#000000 0 1;
#X obj 618 561 tgl 15 0 empty empty empty 17 7 0 10 #fcfcfc #000000
#000000 0 1;
#X obj 635 561 tgl 15 0 empty empty empty 17 7 0 10 #fcfcfc #000000
#000000 0 1;
#X obj 64 1008 spigot;
#X obj 118 1007 spigot;
#X obj 172 1007 spigot;
#X obj 226 1006 spigot;
#X obj 280 1006 spigot;
#X obj 334 1005 spigot;
#X obj 389 1006 spigot;
#X obj 442 1006 spigot;
#X obj 496 1006 spigot;
#X obj 550 1006 spigot;
#X obj 603 1006 spigot;
#X obj 658 1006 spigot;
#X obj 712 1006 spigot;
#X obj 766 1006 spigot;
#X obj 820 1005 spigot;
#X obj 874 1005 spigot;
#X obj 63 1052 spigot;
#X obj 117 1051 spigot;
#X obj 171 1051 spigot;
#X obj 225 1050 spigot;
#X obj 279 1050 spigot;
#X obj 333 1049 spigot;
#X obj 388 1050 spigot;
#X obj 441 1050 spigot;
#X obj 495 1050 spigot;
#X obj 549 1050 spigot;
#X obj 602 1050 spigot;
#X obj 657 1050 spigot;
#X obj 711 1050 spigot;
#X obj 765 1050 spigot;
#X obj 819 1049 spigot;
#X obj 873 1049 spigot;
#X obj 121 630 vsl 15 128 0 1 0 0 empty empty empty 0 -9 0 10 #fcfcfc
#000000 #000000 0 1;
#X obj 142 630 vsl 15 128 0 0.756 0 0 empty empty empty 0 -9 0 10 #fcfcfc
#000000 #000000 0 1;
#X obj 162 630 vsl 15 128 0 1 0 0 empty empty empty 0 -9 0 10 #fcfcfc
#000000 #000000 0 1;
#X obj 182 630 vsl 15 128 0 1 0 0 empty empty empty 0 -9 0 10 #fcfcfc
#000000 #000000 0 1;
#X obj 202 630 vsl 15 128 0 127 0 0 empty empty empty 0 -9 0 10 #fcfcfc
#000000 #000000 0 1;
#X obj 561 40 inlet;
#X obj 624 36 inlet;
#X floatatom 1586 421 5 0 0 0 - - - 0;
#X floatatom 1609 293 5 0 0 0 - - - 0;
#X msg 1281 444 0;
#X msg 1318 440 1;
#X obj 1586 398 expr (1/$f1) * 60000;
#X obj 1593 345 int;
#X floatatom 1594 373 5 0 0 0 - - - 0;
#X obj 1368 267 select 0 1 2 3;
#X floatatom 1353 409 5 0 0 0 - - - 0;
#X floatatom 1392 409 5 0 0 0 - - - 0;
#X floatatom 1431 409 5 0 0 0 - - - 0;
#X floatatom 1470 409 5 0 0 0 - - - 0;
#X obj 1353 431 expr $f1 + $f2 + $f3 + $f4;
#X floatatom 1353 454 5 0 0 0 - - - 0;
#X obj 1374 197 bng 15 250 50 0 empty empty empty 17 7 0 10 #fcfcfc
#000000 #000000;
#X obj 1374 216 f;
#X obj 1406 216 + 1;
#X obj 1372 241 % 4;
#X msg 1359 298 0;
#X msg 1389 298 1;
#X msg 1419 298 2;
#X msg 1449 298 3;
#X obj 1353 344 expr if($f1 == 0 \, $f2 * 2 \, 0) \; if($f1 == 1 \,
$f2 * 1 \, 0) \; if($f1 == 2 \, $f2 * 0.5 \, 0) \; if($f1 == 3 \, $f2
* 0.25 \, 0) \;;
#X obj 1389 526 f;
#X obj 1421 526 + 1;
#X obj 1282 486 bng 15 250 50 0 empty empty empty 17 7 0 10 #fcfcfc
#000000 #000000;
#X obj 146 112 bng 15 250 50 0 empty empty empty 17 7 0 10 #fcfcfc
#000000 #000000;
#X obj 128 112 bng 15 250 50 0 empty empty empty 17 7 0 10 #fcfcfc
#000000 #000000;
#X obj 116 145 bng 15 250 50 0 empty empty empty 17 7 0 10 #fcfcfc
#000000 #000000;
#X obj 1300 469 metro 500;
#X obj 1406 551 % 32;
#X obj 134 145 bng 15 250 50 0 empty empty empty 17 7 0 10 #fcfcfc
#000000 #000000;
#X obj 152 145 bng 15 250 50 0 empty empty empty 17 7 0 10 #fcfcfc
#000000 #000000;
#X obj 170 145 bng 15 250 50 0 empty empty empty 17 7 0 10 #fcfcfc
#000000 #000000;
#X obj 752 1639 outlet~;
#X obj 107 511 tgl 15 0 empty empty empty 17 7 0 10 #fc0400 #000000
#000000 0 1;
#X obj 124 511 tgl 15 0 empty empty empty 17 7 0 10 #fcfcfc #000000
#000000 0 1;
#X obj 141 511 tgl 15 0 empty empty empty 17 7 0 10 #fcfcfc #000000
#000000 0 1;
#X obj 158 511 tgl 15 0 empty empty empty 17 7 0 10 #fcfcfc #000000
#000000 0 1;
#X obj 175 511 tgl 15 0 empty empty empty 17 7 0 10 #fc0400 #000000
#000000 0 1;
#X obj 192 511 tgl 15 0 empty empty empty 17 7 0 10 #fcfcfc #000000
#000000 0 1;
#X obj 209 511 tgl 15 0 empty empty empty 17 7 0 10 #fcfcfc #000000
#000000 0 1;
#X obj 226 511 tgl 15 0 empty empty empty 17 7 0 10 #fcfcfc #000000
#000000 0 1;
#X obj 243 511 tgl 15 0 empty empty empty 17 7 0 10 #fc0400 #000000
#000000 0 1;
#X obj 260 511 tgl 15 0 empty empty empty 17 7 0 10 #fcfcfc #000000
#000000 0 1;
#X obj 277 511 tgl 15 0 empty empty empty 17 7 0 10 #fcfcfc #000000
#000000 0 1;
#X obj 294 511 tgl 15 0 empty empty empty 17 7 0 10 #fcfcfc #000000
#000000 0 1;
#X obj 311 511 tgl 15 0 empty empty empty 17 7 0 10 #fc0400 #000000
#000000 0 1;
#X obj 328 511 tgl 15 0 empty empty empty 17 7 0 10 #fcfcfc #000000
#000000 0 1;
#X obj 345 511 tgl 15 0 empty empty empty 17 7 0 10 #fcfcfc #000000
#000000 0 1;
#X obj 362 511 tgl 15 0 empty empty empty 17 7 0 10 #fcfcfc #000000
#000000 0 1;
#X obj 379 511 tgl 15 0 empty empty empty 17 7 0 10 #fc0400 #000000
#000000 0 1;
#X obj 396 511 tgl 15 0 empty empty empty 17 7 0 10 #fcfcfc #000000
#000000 0 1;
#X obj 413 511 tgl 15 0 empty empty empty 17 7 0 10 #fcfcfc #000000
#000000 0 1;
#X obj 430 511 tgl 15 0 empty empty empty 17 7 0 10 #fcfcfc #000000
#000000 0 1;
#X obj 447 511 tgl 15 0 empty empty empty 17 7 0 10 #fc0400 #000000
#000000 0 1;
#X obj 464 511 tgl 15 0 empty empty empty 17 7 0 10 #fcfcfc #000000
#000000 0 1;
#X obj 481 511 tgl 15 0 empty empty empty 17 7 0 10 #fcfcfc #000000
#000000 0 1;
#X obj 498 511 tgl 15 0 empty empty empty 17 7 0 10 #fcfcfc #000000
#000000 0 1;
#X obj 515 511 tgl 15 0 empty empty empty 17 7 0 10 #fc0400 #000000
#000000 0 1;
#X obj 532 511 tgl 15 0 empty empty empty 17 7 0 10 #fcfcfc #000000
#000000 0 1;
#X obj 549 511 tgl 15 0 empty empty empty 17 7 0 10 #fcfcfc #000000
#000000 0 1;
#X obj 566 511 tgl 15 0 empty empty empty 17 7 0 10 #fcfcfc #000000
#000000 0 1;
#X obj 583 511 tgl 15 0 empty empty empty 17 7 0 10 #fc0400 #000000
#000000 0 1;
#X obj 600 511 tgl 15 0 empty empty empty 17 7 0 10 #fcfcfc #000000
#000000 0 1;
#X obj 617 511 tgl 15 0 empty empty empty 17 7 0 10 #fcfcfc #000000
#000000 0 1;
#X obj 634 511 tgl 15 0 empty empty empty 17 7 0 10 #fcfcfc #000000
#000000 0 1;
#X obj 107 493 tgl 15 0 empty empty empty 17 7 0 10 #fc0400 #000000
#000000 0 1;
#X obj 124 493 tgl 15 0 empty empty empty 17 7 0 10 #fcfcfc #000000
#000000 0 1;
#X obj 141 493 tgl 15 0 empty empty empty 17 7 0 10 #fcfcfc #000000
#000000 0 1;
#X obj 158 493 tgl 15 0 empty empty empty 17 7 0 10 #fcfcfc #000000
#000000 0 1;
#X obj 175 493 tgl 15 0 empty empty empty 17 7 0 10 #fc0400 #000000
#000000 0 1;
#X obj 192 493 tgl 15 0 empty empty empty 17 7 0 10 #fcfcfc #000000
#000000 0 1;
#X obj 209 493 tgl 15 0 empty empty empty 17 7 0 10 #fcfcfc #000000
#000000 0 1;
#X obj 226 493 tgl 15 0 empty empty empty 17 7 0 10 #fcfcfc #000000
#000000 0 1;
#X obj 243 493 tgl 15 0 empty empty empty 17 7 0 10 #fc0400 #000000
#000000 0 1;
#X obj 260 493 tgl 15 0 empty empty empty 17 7 0 10 #fcfcfc #000000
#000000 0 1;
#X obj 277 493 tgl 15 0 empty empty empty 17 7 0 10 #fcfcfc #000000
#000000 0 1;
#X obj 294 493 tgl 15 0 empty empty empty 17 7 0 10 #fcfcfc #000000
#000000 0 1;
#X obj 311 493 tgl 15 0 empty empty empty 17 7 0 10 #fc0400 #000000
#000000 0 1;
#X obj 328 493 tgl 15 0 empty empty empty 17 7 0 10 #fcfcfc #000000
#000000 0 1;
#X obj 345 493 tgl 15 0 empty empty empty 17 7 0 10 #fcfcfc #000000
#000000 0 1;
#X obj 362 493 tgl 15 0 empty empty empty 17 7 0 10 #fcfcfc #000000
#000000 0 1;
#X obj 379 493 tgl 15 0 empty empty empty 17 7 0 10 #fc0400 #000000
#000000 0 1;
#X obj 396 493 tgl 15 0 empty empty empty 17 7 0 10 #fcfcfc #000000
#000000 0 1;
#X obj 413 493 tgl 15 0 empty empty empty 17 7 0 10 #fcfcfc #000000
#000000 0 1;
#X obj 430 493 tgl 15 0 empty empty empty 17 7 0 10 #fcfcfc #000000
#000000 0 1;
#X obj 447 493 tgl 15 0 empty empty empty 17 7 0 10 #fc0400 #000000
#000000 0 1;
#X obj 464 493 tgl 15 0 empty empty empty 17 7 0 10 #fcfcfc #000000
#000000 0 1;
#X obj 481 493 tgl 15 0 empty empty empty 17 7 0 10 #fcfcfc #000000
#000000 0 1;
#X obj 498 493 tgl 15 0 empty empty empty 17 7 0 10 #fcfcfc #000000
#000000 0 1;
#X obj 515 493 tgl 15 0 empty empty empty 17 7 0 10 #fc0400 #000000
#000000 0 1;
#X obj 532 493 tgl 15 0 empty empty empty 17 7 0 10 #fcfcfc #000000
#000000 0 1;
#X obj 549 493 tgl 15 0 empty empty empty 17 7 0 10 #fcfcfc #000000
#000000 0 1;
#X obj 566 493 tgl 15 0 empty empty empty 17 7 0 10 #fcfcfc #000000
#000000 0 1;
#X obj 583 493 tgl 15 0 empty empty empty 17 7 0 10 #fc0400 #000000
#000000 0 1;
#X obj 600 493 tgl 15 0 empty empty empty 17 7 0 10 #fcfcfc #000000
#000000 0 1;
#X obj 617 493 tgl 15 0 empty empty empty 17 7 0 10 #fcfcfc #000000
#000000 0 1;
#X obj 634 493 tgl 15 0 empty empty empty 17 7 0 10 #fcfcfc #000000
#000000 0 1;
#X obj 107 457 tgl 15 0 empty empty empty 17 7 0 10 #fc0400 #000000
#000000 0 1;
#X obj 124 457 tgl 15 0 empty empty empty 17 7 0 10 #fcfcfc #000000
#000000 0 1;
#X obj 141 457 tgl 15 0 empty empty empty 17 7 0 10 #fcfcfc #000000
#000000 0 1;
#X obj 158 457 tgl 15 0 empty empty empty 17 7 0 10 #fcfcfc #000000
#000000 0 1;
#X obj 175 457 tgl 15 0 empty empty empty 17 7 0 10 #fc0400 #000000
#000000 0 1;
#X obj 192 457 tgl 15 0 empty empty empty 17 7 0 10 #fcfcfc #000000
#000000 0 1;
#X obj 209 457 tgl 15 0 empty empty empty 17 7 0 10 #fcfcfc #000000
#000000 0 1;
#X obj 226 457 tgl 15 0 empty empty empty 17 7 0 10 #fcfcfc #000000
#000000 0 1;
#X obj 243 457 tgl 15 0 empty empty empty 17 7 0 10 #fc0400 #000000
#000000 0 1;
#X obj 260 457 tgl 15 0 empty empty empty 17 7 0 10 #fcfcfc #000000
#000000 0 1;
#X obj 277 457 tgl 15 0 empty empty empty 17 7 0 10 #fcfcfc #000000
#000000 0 1;
#X obj 294 457 tgl 15 0 empty empty empty 17 7 0 10 #fcfcfc #000000
#000000 0 1;
#X obj 311 457 tgl 15 0 empty empty empty 17 7 0 10 #fc0400 #000000
#000000 0 1;
#X obj 328 457 tgl 15 0 empty empty empty 17 7 0 10 #fcfcfc #000000
#000000 0 1;
#X obj 345 457 tgl 15 0 empty empty empty 17 7 0 10 #fcfcfc #000000
#000000 0 1;
#X obj 362 457 tgl 15 0 empty empty empty 17 7 0 10 #fcfcfc #000000
#000000 0 1;
#X obj 379 457 tgl 15 0 empty empty empty 17 7 0 10 #fc0400 #000000
#000000 0 1;
#X obj 396 457 tgl 15 0 empty empty empty 17 7 0 10 #fcfcfc #000000
#000000 0 1;
#X obj 413 457 tgl 15 0 empty empty empty 17 7 0 10 #fcfcfc #000000
#000000 0 1;
#X obj 430 457 tgl 15 0 empty empty empty 17 7 0 10 #fcfcfc #000000
#000000 0 1;
#X obj 447 457 tgl 15 0 empty empty empty 17 7 0 10 #fc0400 #000000
#000000 0 1;
#X obj 464 457 tgl 15 0 empty empty empty 17 7 0 10 #fcfcfc #000000
#000000 0 1;
#X obj 481 457 tgl 15 0 empty empty empty 17 7 0 10 #fcfcfc #000000
#000000 0 1;
#X obj 498 457 tgl 15 0 empty empty empty 17 7 0 10 #fcfcfc #000000
#000000 0 1;
#X obj 515 457 tgl 15 0 empty empty empty 17 7 0 10 #fc0400 #000000
#000000 0 1;
#X obj 532 457 tgl 15 0 empty empty empty 17 7 0 10 #fcfcfc #000000
#000000 0 1;
#X obj 549 457 tgl 15 0 empty empty empty 17 7 0 10 #fcfcfc #000000
#000000 0 1;
#X obj 566 457 tgl 15 0 empty empty empty 17 7 0 10 #fcfcfc #000000
#000000 0 1;
#X obj 583 457 tgl 15 0 empty empty empty 17 7 0 10 #fc0400 #000000
#000000 0 1;
#X obj 600 457 tgl 15 0 empty empty empty 17 7 0 10 #fcfcfc #000000
#000000 0 1;
#X obj 617 457 tgl 15 0 empty empty empty 17 7 0 10 #fcfcfc #000000
#000000 0 1;
#X obj 634 457 tgl 15 0 empty empty empty 17 7 0 10 #fcfcfc #000000
#000000 0 1;
#X obj 107 475 tgl 15 0 empty empty empty 17 7 0 10 #fc0400 #000000
#000000 0 1;
#X obj 124 475 tgl 15 0 empty empty empty 17 7 0 10 #fcfcfc #000000
#000000 0 1;
#X obj 141 475 tgl 15 0 empty empty empty 17 7 0 10 #fcfcfc #000000
#000000 0 1;
#X obj 158 475 tgl 15 0 empty empty empty 17 7 0 10 #fcfcfc #000000
#000000 0 1;
#X obj 175 475 tgl 15 0 empty empty empty 17 7 0 10 #fc0400 #000000
#000000 0 1;
#X obj 192 475 tgl 15 0 empty empty empty 17 7 0 10 #fcfcfc #000000
#000000 0 1;
#X obj 209 475 tgl 15 0 empty empty empty 17 7 0 10 #fcfcfc #000000
#000000 0 1;
#X obj 226 475 tgl 15 0 empty empty empty 17 7 0 10 #fcfcfc #000000
#000000 0 1;
#X obj 243 475 tgl 15 0 empty empty empty 17 7 0 10 #fc0400 #000000
#000000 0 1;
#X obj 260 475 tgl 15 0 empty empty empty 17 7 0 10 #fcfcfc #000000
#000000 0 1;
#X obj 277 475 tgl 15 0 empty empty empty 17 7 0 10 #fcfcfc #000000
#000000 0 1;
#X obj 294 475 tgl 15 0 empty empty empty 17 7 0 10 #fcfcfc #000000
#000000 0 1;
#X obj 311 475 tgl 15 0 empty empty empty 17 7 0 10 #fc0400 #000000
#000000 0 1;
#X obj 328 475 tgl 15 0 empty empty empty 17 7 0 10 #fcfcfc #000000
#000000 0 1;
#X obj 345 475 tgl 15 0 empty empty empty 17 7 0 10 #fcfcfc #000000
#000000 0 1;
#X obj 362 475 tgl 15 0 empty empty empty 17 7 0 10 #fcfcfc #000000
#000000 0 1;
#X obj 379 475 tgl 15 0 empty empty empty 17 7 0 10 #fc0400 #000000
#000000 0 1;
#X obj 396 475 tgl 15 0 empty empty empty 17 7 0 10 #fcfcfc #000000
#000000 0 1;
#X obj 413 475 tgl 15 0 empty empty empty 17 7 0 10 #fcfcfc #000000
#000000 0 1;
#X obj 430 475 tgl 15 0 empty empty empty 17 7 0 10 #fcfcfc #000000
#000000 0 1;
#X obj 447 475 tgl 15 0 empty empty empty 17 7 0 10 #fc0400 #000000
#000000 0 1;
#X obj 464 475 tgl 15 0 empty empty empty 17 7 0 10 #fcfcfc #000000
#000000 0 1;
#X obj 481 475 tgl 15 0 empty empty empty 17 7 0 10 #fcfcfc #000000
#000000 0 1;
#X obj 498 475 tgl 15 0 empty empty empty 17 7 0 10 #fcfcfc #000000
#000000 0 1;
#X obj 515 475 tgl 15 0 empty empty empty 17 7 0 10 #fc0400 #000000
#000000 0 1;
#X obj 532 475 tgl 15 0 empty empty empty 17 7 0 10 #fcfcfc #000000
#000000 0 1;
#X obj 549 475 tgl 15 0 empty empty empty 17 7 0 10 #fcfcfc #000000
#000000 0 1;
#X obj 566 475 tgl 15 0 empty empty empty 17 7 0 10 #fcfcfc #000000
#000000 0 1;
#X obj 583 475 tgl 15 0 empty empty empty 17 7 0 10 #fc0400 #000000
#000000 0 1;
#X obj 600 475 tgl 15 0 empty empty empty 17 7 0 10 #fcfcfc #000000
#000000 0 1;
#X obj 617 475 tgl 15 0 empty empty empty 17 7 0 10 #fcfcfc #000000
#000000 0 1;
#X obj 634 475 tgl 15 0 empty empty empty 17 7 0 10 #fcfcfc #000000
#000000 0 1;
#X obj 109 429 tgl 15 0 empty empty empty 17 7 0 10 #fc0400 #000000
#000000 0 1;
#X obj 126 429 tgl 15 0 empty empty empty 17 7 0 10 #fcfcfc #000000
#000000 0 1;
#X obj 143 429 tgl 15 0 empty empty empty 17 7 0 10 #fcfcfc #000000
#000000 0 1;
#X obj 160 429 tgl 15 0 empty empty empty 17 7 0 10 #fcfcfc #000000
#000000 0 1;
#X obj 177 429 tgl 15 0 empty empty empty 17 7 0 10 #fc0400 #000000
#000000 0 1;
#X obj 194 429 tgl 15 0 empty empty empty 17 7 0 10 #fcfcfc #000000
#000000 0 1;
#X obj 211 429 tgl 15 0 empty empty empty 17 7 0 10 #fcfcfc #000000
#000000 0 1;
#X obj 228 429 tgl 15 0 empty empty empty 17 7 0 10 #fcfcfc #000000
#000000 0 1;
#X obj 245 429 tgl 15 0 empty empty empty 17 7 0 10 #fc0400 #000000
#000000 0 1;
#X obj 262 429 tgl 15 0 empty empty empty 17 7 0 10 #fcfcfc #000000
#000000 0 1;
#X obj 279 429 tgl 15 0 empty empty empty 17 7 0 10 #fcfcfc #000000
#000000 0 1;
#X obj 296 429 tgl 15 0 empty empty empty 17 7 0 10 #fcfcfc #000000
#000000 0 1;
#X obj 313 429 tgl 15 0 empty empty empty 17 7 0 10 #fc0400 #000000
#000000 0 1;
#X obj 330 429 tgl 15 0 empty empty empty 17 7 0 10 #fcfcfc #000000
#000000 0 1;
#X obj 347 429 tgl 15 0 empty empty empty 17 7 0 10 #fcfcfc #000000
#000000 0 1;
#X obj 364 429 tgl 15 0 empty empty empty 17 7 0 10 #fcfcfc #000000
#000000 0 1;
#X obj 381 429 tgl 15 0 empty empty empty 17 7 0 10 #fc0400 #000000
#000000 0 1;
#X obj 398 429 tgl 15 0 empty empty empty 17 7 0 10 #fcfcfc #000000
#000000 0 1;
#X obj 415 429 tgl 15 0 empty empty empty 17 7 0 10 #fcfcfc #000000
#000000 0 1;
#X obj 432 429 tgl 15 0 empty empty empty 17 7 0 10 #fcfcfc #000000
#000000 0 1;
#X obj 449 429 tgl 15 0 empty empty empty 17 7 0 10 #fc0400 #000000
#000000 0 1;
#X obj 466 429 tgl 15 0 empty empty empty 17 7 0 10 #fcfcfc #000000
#000000 0 1;
#X obj 483 429 tgl 15 0 empty empty empty 17 7 0 10 #fcfcfc #000000
#000000 0 1;
#X obj 500 429 tgl 15 0 empty empty empty 17 7 0 10 #fcfcfc #000000
#000000 0 1;
#X obj 517 429 tgl 15 0 empty empty empty 17 7 0 10 #fc0400 #000000
#000000 0 1;
#X obj 534 429 tgl 15 0 empty empty empty 17 7 0 10 #fcfcfc #000000
#000000 0 1;
#X obj 551 429 tgl 15 0 empty empty empty 17 7 0 10 #fcfcfc #000000
#000000 0 1;
#X obj 568 429 tgl 15 0 empty empty empty 17 7 0 10 #fcfcfc #000000
#000000 0 1;
#X obj 585 429 tgl 15 0 empty empty empty 17 7 0 10 #fc0400 #000000
#000000 0 1;
#X obj 602 429 tgl 15 0 empty empty empty 17 7 0 10 #fcfcfc #000000
#000000 0 1;
#X obj 619 429 tgl 15 0 empty empty empty 17 7 0 10 #fcfcfc #000000
#000000 0 1;
#X obj 636 429 tgl 15 0 empty empty empty 17 7 0 10 #fcfcfc #000000
#000000 0 1;
#X obj 109 411 tgl 15 0 empty empty empty 17 7 0 10 #fc0400 #000000
#000000 0 1;
#X obj 126 411 tgl 15 0 empty empty empty 17 7 0 10 #fcfcfc #000000
#000000 0 1;
#X obj 143 411 tgl 15 0 empty empty empty 17 7 0 10 #fcfcfc #000000
#000000 0 1;
#X obj 160 411 tgl 15 0 empty empty empty 17 7 0 10 #fcfcfc #000000
#000000 0 1;
#X obj 177 411 tgl 15 0 empty empty empty 17 7 0 10 #fc0400 #000000
#000000 0 1;
#X obj 194 411 tgl 15 0 empty empty empty 17 7 0 10 #fcfcfc #000000
#000000 0 1;
#X obj 211 411 tgl 15 0 empty empty empty 17 7 0 10 #fcfcfc #000000
#000000 0 1;
#X obj 228 411 tgl 15 0 empty empty empty 17 7 0 10 #fcfcfc #000000
#000000 0 1;
#X obj 245 411 tgl 15 0 empty empty empty 17 7 0 10 #fc0400 #000000
#000000 0 1;
#X obj 262 411 tgl 15 0 empty empty empty 17 7 0 10 #fcfcfc #000000
#000000 0 1;
#X obj 279 411 tgl 15 0 empty empty empty 17 7 0 10 #fcfcfc #000000
#000000 0 1;
#X obj 296 411 tgl 15 0 empty empty empty 17 7 0 10 #fcfcfc #000000
#000000 0 1;
#X obj 313 411 tgl 15 0 empty empty empty 17 7 0 10 #fc0400 #000000
#000000 0 1;
#X obj 330 411 tgl 15 0 empty empty empty 17 7 0 10 #fcfcfc #000000
#000000 0 1;
#X obj 347 411 tgl 15 0 empty empty empty 17 7 0 10 #fcfcfc #000000
#000000 0 1;
#X obj 364 411 tgl 15 0 empty empty empty 17 7 0 10 #fcfcfc #000000
#000000 0 1;
#X obj 381 411 tgl 15 0 empty empty empty 17 7 0 10 #fc0400 #000000
#000000 0 1;
#X obj 398 411 tgl 15 0 empty empty empty 17 7 0 10 #fcfcfc #000000
#000000 0 1;
#X obj 415 411 tgl 15 0 empty empty empty 17 7 0 10 #fcfcfc #000000
#000000 0 1;
#X obj 432 411 tgl 15 0 empty empty empty 17 7 0 10 #fcfcfc #000000
#000000 0 1;
#X obj 449 411 tgl 15 0 empty empty empty 17 7 0 10 #fc0400 #000000
#000000 0 1;
#X obj 466 411 tgl 15 0 empty empty empty 17 7 0 10 #fcfcfc #000000
#000000 0 1;
#X obj 483 411 tgl 15 0 empty empty empty 17 7 0 10 #fcfcfc #000000
#000000 0 1;
#X obj 500 411 tgl 15 0 empty empty empty 17 7 0 10 #fcfcfc #000000
#000000 0 1;
#X obj 517 411 tgl 15 0 empty empty empty 17 7 0 10 #fc0400 #000000
#000000 0 1;
#X obj 534 411 tgl 15 0 empty empty empty 17 7 0 10 #fcfcfc #000000
#000000 0 1;
#X obj 551 411 tgl 15 0 empty empty empty 17 7 0 10 #fcfcfc #000000
#000000 0 1;
#X obj 568 411 tgl 15 0 empty empty empty 17 7 0 10 #fcfcfc #000000
#000000 0 1;
#X obj 585 411 tgl 15 0 empty empty empty 17 7 0 10 #fc0400 #000000
#000000 0 1;
#X obj 602 411 tgl 15 0 empty empty empty 17 7 0 10 #fcfcfc #000000
#000000 0 1;
#X obj 619 411 tgl 15 0 empty empty empty 17 7 0 10 #fcfcfc #000000
#000000 0 1;
#X obj 636 411 tgl 15 0 empty empty empty 17 7 0 10 #fcfcfc #000000
#000000 0 1;
#X obj 109 375 tgl 15 0 empty empty empty 17 7 0 10 #fc0400 #000000
#000000 0 1;
#X obj 126 375 tgl 15 0 empty empty empty 17 7 0 10 #fcfcfc #000000
#000000 0 1;
#X obj 143 375 tgl 15 0 empty empty empty 17 7 0 10 #fcfcfc #000000
#000000 0 1;
#X obj 160 375 tgl 15 0 empty empty empty 17 7 0 10 #fcfcfc #000000
#000000 0 1;
#X obj 177 375 tgl 15 0 empty empty empty 17 7 0 10 #fc0400 #000000
#000000 0 1;
#X obj 194 375 tgl 15 0 empty empty empty 17 7 0 10 #fcfcfc #000000
#000000 0 1;
#X obj 211 375 tgl 15 0 empty empty empty 17 7 0 10 #fcfcfc #000000
#000000 0 1;
#X obj 228 375 tgl 15 0 empty empty empty 17 7 0 10 #fcfcfc #000000
#000000 0 1;
#X obj 245 375 tgl 15 0 empty empty empty 17 7 0 10 #fc0400 #000000
#000000 0 1;
#X obj 262 375 tgl 15 0 empty empty empty 17 7 0 10 #fcfcfc #000000
#000000 0 1;
#X obj 279 375 tgl 15 0 empty empty empty 17 7 0 10 #fcfcfc #000000
#000000 0 1;
#X obj 296 375 tgl 15 0 empty empty empty 17 7 0 10 #fcfcfc #000000
#000000 0 1;
#X obj 313 375 tgl 15 0 empty empty empty 17 7 0 10 #fc0400 #000000
#000000 0 1;
#X obj 330 375 tgl 15 0 empty empty empty 17 7 0 10 #fcfcfc #000000
#000000 0 1;
#X obj 347 375 tgl 15 0 empty empty empty 17 7 0 10 #fcfcfc #000000
#000000 0 1;
#X obj 364 375 tgl 15 0 empty empty empty 17 7 0 10 #fcfcfc #000000
#000000 0 1;
#X obj 381 375 tgl 15 0 empty empty empty 17 7 0 10 #fc0400 #000000
#000000 0 1;
#X obj 398 375 tgl 15 0 empty empty empty 17 7 0 10 #fcfcfc #000000
#000000 0 1;
#X obj 415 375 tgl 15 0 empty empty empty 17 7 0 10 #fcfcfc #000000
#000000 0 1;
#X obj 432 375 tgl 15 0 empty empty empty 17 7 0 10 #fcfcfc #000000
#000000 0 1;
#X obj 449 375 tgl 15 0 empty empty empty 17 7 0 10 #fc0400 #000000
#000000 0 1;
#X obj 466 375 tgl 15 0 empty empty empty 17 7 0 10 #fcfcfc #000000
#000000 0 1;
#X obj 483 375 tgl 15 0 empty empty empty 17 7 0 10 #fcfcfc #000000
#000000 0 1;
#X obj 500 375 tgl 15 0 empty empty empty 17 7 0 10 #fcfcfc #000000
#000000 0 1;
#X obj 517 375 tgl 15 0 empty empty empty 17 7 0 10 #fc0400 #000000
#000000 0 1;
#X obj 534 375 tgl 15 0 empty empty empty 17 7 0 10 #fcfcfc #000000
#000000 0 1;
#X obj 551 375 tgl 15 0 empty empty empty 17 7 0 10 #fcfcfc #000000
#000000 0 1;
#X obj 568 375 tgl 15 0 empty empty empty 17 7 0 10 #fcfcfc #000000
#000000 0 1;
#X obj 585 375 tgl 15 0 empty empty empty 17 7 0 10 #fc0400 #000000
#000000 0 1;
#X obj 602 375 tgl 15 0 empty empty empty 17 7 0 10 #fcfcfc #000000
#000000 0 1;
#X obj 619 375 tgl 15 0 empty empty empty 17 7 0 10 #fcfcfc #000000
#000000 0 1;
#X obj 636 375 tgl 15 0 empty empty empty 17 7 0 10 #fcfcfc #000000
#000000 0 1;
#X obj 109 393 tgl 15 0 empty empty empty 17 7 0 10 #fc0400 #000000
#000000 0 1;
#X obj 126 393 tgl 15 0 empty empty empty 17 7 0 10 #fcfcfc #000000
#000000 0 1;
#X obj 143 393 tgl 15 0 empty empty empty 17 7 0 10 #fcfcfc #000000
#000000 0 1;
#X obj 160 393 tgl 15 0 empty empty empty 17 7 0 10 #fcfcfc #000000
#000000 0 1;
#X obj 177 393 tgl 15 0 empty empty empty 17 7 0 10 #fc0400 #000000
#000000 0 1;
#X obj 194 393 tgl 15 0 empty empty empty 17 7 0 10 #fcfcfc #000000
#000000 0 1;
#X obj 211 393 tgl 15 0 empty empty empty 17 7 0 10 #fcfcfc #000000
#000000 0 1;
#X obj 228 393 tgl 15 0 empty empty empty 17 7 0 10 #fcfcfc #000000
#000000 0 1;
#X obj 245 393 tgl 15 0 empty empty empty 17 7 0 10 #fc0400 #000000
#000000 0 1;
#X obj 262 393 tgl 15 0 empty empty empty 17 7 0 10 #fcfcfc #000000
#000000 0 1;
#X obj 279 393 tgl 15 0 empty empty empty 17 7 0 10 #fcfcfc #000000
#000000 0 1;
#X obj 296 393 tgl 15 0 empty empty empty 17 7 0 10 #fcfcfc #000000
#000000 0 1;
#X obj 313 393 tgl 15 0 empty empty empty 17 7 0 10 #fc0400 #000000
#000000 0 1;
#X obj 330 393 tgl 15 0 empty empty empty 17 7 0 10 #fcfcfc #000000
#000000 0 1;
#X obj 347 393 tgl 15 0 empty empty empty 17 7 0 10 #fcfcfc #000000
#000000 0 1;
#X obj 364 393 tgl 15 0 empty empty empty 17 7 0 10 #fcfcfc #000000
#000000 0 1;
#X obj 381 393 tgl 15 0 empty empty empty 17 7 0 10 #fc0400 #000000
#000000 0 1;
#X obj 398 393 tgl 15 0 empty empty empty 17 7 0 10 #fcfcfc #000000
#000000 0 1;
#X obj 415 393 tgl 15 0 empty empty empty 17 7 0 10 #fcfcfc #000000
#000000 0 1;
#X obj 432 393 tgl 15 0 empty empty empty 17 7 0 10 #fcfcfc #000000
#000000 0 1;
#X obj 449 393 tgl 15 0 empty empty empty 17 7 0 10 #fc0400 #000000
#000000 0 1;
#X obj 466 393 tgl 15 0 empty empty empty 17 7 0 10 #fcfcfc #000000
#000000 0 1;
#X obj 483 393 tgl 15 0 empty empty empty 17 7 0 10 #fcfcfc #000000
#000000 0 1;
#X obj 500 393 tgl 15 0 empty empty empty 17 7 0 10 #fcfcfc #000000
#000000 0 1;
#X obj 517 393 tgl 15 0 empty empty empty 17 7 0 10 #fc0400 #000000
#000000 0 1;
#X obj 534 393 tgl 15 0 empty empty empty 17 7 0 10 #fcfcfc #000000
#000000 0 1;
#X obj 551 393 tgl 15 0 empty empty empty 17 7 0 10 #fcfcfc #000000
#000000 0 1;
#X obj 568 393 tgl 15 0 empty empty empty 17 7 0 10 #fcfcfc #000000
#000000 0 1;
#X obj 585 393 tgl 15 0 empty empty empty 17 7 0 10 #fc0400 #000000
#000000 0 1;
#X obj 602 393 tgl 15 0 empty empty empty 17 7 0 10 #fcfcfc #000000
#000000 0 1;
#X obj 619 393 tgl 15 0 empty empty empty 17 7 0 10 #fcfcfc #000000
#000000 0 1;
#X obj 636 393 tgl 15 0 empty empty empty 17 7 0 10 #fcfcfc #000000
#000000 0 1;
#X obj 111 343 tgl 15 0 empty empty empty 17 7 0 10 #fc0400 #000000
#000000 0 1;
#X obj 128 343 tgl 15 0 empty empty empty 17 7 0 10 #fcfcfc #000000
#000000 0 1;
#X obj 145 343 tgl 15 0 empty empty empty 17 7 0 10 #fcfcfc #000000
#000000 0 1;
#X obj 162 343 tgl 15 0 empty empty empty 17 7 0 10 #fcfcfc #000000
#000000 0 1;
#X obj 179 343 tgl 15 0 empty empty empty 17 7 0 10 #fc0400 #000000
#000000 0 1;
#X obj 196 343 tgl 15 0 empty empty empty 17 7 0 10 #fcfcfc #000000
#000000 0 1;
#X obj 213 343 tgl 15 0 empty empty empty 17 7 0 10 #fcfcfc #000000
#000000 0 1;
#X obj 230 343 tgl 15 0 empty empty empty 17 7 0 10 #fcfcfc #000000
#000000 0 1;
#X obj 247 343 tgl 15 0 empty empty empty 17 7 0 10 #fc0400 #000000
#000000 0 1;
#X obj 264 343 tgl 15 0 empty empty empty 17 7 0 10 #fcfcfc #000000
#000000 0 1;
#X obj 281 343 tgl 15 0 empty empty empty 17 7 0 10 #fcfcfc #000000
#000000 0 1;
#X obj 298 343 tgl 15 0 empty empty empty 17 7 0 10 #fcfcfc #000000
#000000 0 1;
#X obj 315 343 tgl 15 0 empty empty empty 17 7 0 10 #fc0400 #000000
#000000 0 1;
#X obj 332 343 tgl 15 0 empty empty empty 17 7 0 10 #fcfcfc #000000
#000000 0 1;
#X obj 349 343 tgl 15 0 empty empty empty 17 7 0 10 #fcfcfc #000000
#000000 0 1;
#X obj 366 343 tgl 15 0 empty empty empty 17 7 0 10 #fcfcfc #000000
#000000 0 1;
#X obj 383 343 tgl 15 0 empty empty empty 17 7 0 10 #fc0400 #000000
#000000 0 1;
#X obj 400 343 tgl 15 0 empty empty empty 17 7 0 10 #fcfcfc #000000
#000000 0 1;
#X obj 417 343 tgl 15 0 empty empty empty 17 7 0 10 #fcfcfc #000000
#000000 0 1;
#X obj 434 343 tgl 15 0 empty empty empty 17 7 0 10 #fcfcfc #000000
#000000 0 1;
#X obj 451 343 tgl 15 0 empty empty empty 17 7 0 10 #fc0400 #000000
#000000 0 1;
#X obj 468 343 tgl 15 0 empty empty empty 17 7 0 10 #fcfcfc #000000
#000000 0 1;
#X obj 485 343 tgl 15 0 empty empty empty 17 7 0 10 #fcfcfc #000000
#000000 0 1;
#X obj 502 343 tgl 15 0 empty empty empty 17 7 0 10 #fcfcfc #000000
#000000 0 1;
#X obj 519 343 tgl 15 0 empty empty empty 17 7 0 10 #fc0400 #000000
#000000 0 1;
#X obj 536 343 tgl 15 0 empty empty empty 17 7 0 10 #fcfcfc #000000
#000000 0 1;
#X obj 553 343 tgl 15 0 empty empty empty 17 7 0 10 #fcfcfc #000000
#000000 0 1;
#X obj 570 343 tgl 15 0 empty empty empty 17 7 0 10 #fcfcfc #000000
#000000 0 1;
#X obj 587 343 tgl 15 0 empty empty empty 17 7 0 10 #fc0400 #000000
#000000 0 1;
#X obj 604 343 tgl 15 0 empty empty empty 17 7 0 10 #fcfcfc #000000
#000000 0 1;
#X obj 621 343 tgl 15 0 empty empty empty 17 7 0 10 #fcfcfc #000000
#000000 0 1;
#X obj 638 343 tgl 15 0 empty empty empty 17 7 0 10 #fcfcfc #000000
#000000 0 1;
#X obj 111 325 tgl 15 0 empty empty empty 17 7 0 10 #fc0400 #000000
#000000 0 1;
#X obj 128 325 tgl 15 0 empty empty empty 17 7 0 10 #fcfcfc #000000
#000000 0 1;
#X obj 145 325 tgl 15 0 empty empty empty 17 7 0 10 #fcfcfc #000000
#000000 0 1;
#X obj 162 325 tgl 15 0 empty empty empty 17 7 0 10 #fcfcfc #000000
#000000 0 1;
#X obj 179 325 tgl 15 0 empty empty empty 17 7 0 10 #fc0400 #000000
#000000 0 1;
#X obj 196 325 tgl 15 0 empty empty empty 17 7 0 10 #fcfcfc #000000
#000000 0 1;
#X obj 213 325 tgl 15 0 empty empty empty 17 7 0 10 #fcfcfc #000000
#000000 0 1;
#X obj 230 325 tgl 15 0 empty empty empty 17 7 0 10 #fcfcfc #000000
#000000 0 1;
#X obj 247 325 tgl 15 0 empty empty empty 17 7 0 10 #fc0400 #000000
#000000 0 1;
#X obj 264 325 tgl 15 0 empty empty empty 17 7 0 10 #fcfcfc #000000
#000000 0 1;
#X obj 281 325 tgl 15 0 empty empty empty 17 7 0 10 #fcfcfc #000000
#000000 0 1;
#X obj 298 325 tgl 15 0 empty empty empty 17 7 0 10 #fcfcfc #000000
#000000 0 1;
#X obj 315 325 tgl 15 0 empty empty empty 17 7 0 10 #fc0400 #000000
#000000 0 1;
#X obj 332 325 tgl 15 0 empty empty empty 17 7 0 10 #fcfcfc #000000
#000000 0 1;
#X obj 349 325 tgl 15 0 empty empty empty 17 7 0 10 #fcfcfc #000000
#000000 0 1;
#X obj 366 325 tgl 15 0 empty empty empty 17 7 0 10 #fcfcfc #000000
#000000 0 1;
#X obj 383 325 tgl 15 0 empty empty empty 17 7 0 10 #fc0400 #000000
#000000 0 1;
#X obj 400 325 tgl 15 0 empty empty empty 17 7 0 10 #fcfcfc #000000
#000000 0 1;
#X obj 417 325 tgl 15 0 empty empty empty 17 7 0 10 #fcfcfc #000000
#000000 0 1;
#X obj 434 325 tgl 15 0 empty empty empty 17 7 0 10 #fcfcfc #000000
#000000 0 1;
#X obj 451 325 tgl 15 0 empty empty empty 17 7 0 10 #fc0400 #000000
#000000 0 1;
#X obj 468 325 tgl 15 0 empty empty empty 17 7 0 10 #fcfcfc #000000
#000000 0 1;
#X obj 485 325 tgl 15 0 empty empty empty 17 7 0 10 #fcfcfc #000000
#000000 0 1;
#X obj 502 325 tgl 15 0 empty empty empty 17 7 0 10 #fcfcfc #000000
#000000 0 1;
#X obj 519 325 tgl 15 0 empty empty empty 17 7 0 10 #fc0400 #000000
#000000 0 1;
#X obj 536 325 tgl 15 0 empty empty empty 17 7 0 10 #fcfcfc #000000
#000000 0 1;
#X obj 553 325 tgl 15 0 empty empty empty 17 7 0 10 #fcfcfc #000000
#000000 0 1;
#X obj 570 325 tgl 15 0 empty empty empty 17 7 0 10 #fcfcfc #000000
#000000 0 1;
#X obj 587 325 tgl 15 0 empty empty empty 17 7 0 10 #fc0400 #000000
#000000 0 1;
#X obj 604 325 tgl 15 0 empty empty empty 17 7 0 10 #fcfcfc #000000
#000000 0 1;
#X obj 621 325 tgl 15 0 empty empty empty 17 7 0 10 #fcfcfc #000000
#000000 0 1;
#X obj 638 325 tgl 15 0 empty empty empty 17 7 0 10 #fcfcfc #000000
#000000 0 1;
#X obj 111 289 tgl 15 0 empty empty empty 17 7 0 10 #fc0400 #000000
#000000 0 1;
#X obj 128 289 tgl 15 0 empty empty empty 17 7 0 10 #fcfcfc #000000
#000000 0 1;
#X obj 145 289 tgl 15 0 empty empty empty 17 7 0 10 #fcfcfc #000000
#000000 0 1;
#X obj 162 289 tgl 15 0 empty empty empty 17 7 0 10 #fcfcfc #000000
#000000 0 1;
#X obj 179 289 tgl 15 0 empty empty empty 17 7 0 10 #fc0400 #000000
#000000 0 1;
#X obj 196 289 tgl 15 0 empty empty empty 17 7 0 10 #fcfcfc #000000
#000000 0 1;
#X obj 213 289 tgl 15 0 empty empty empty 17 7 0 10 #fcfcfc #000000
#000000 0 1;
#X obj 230 289 tgl 15 0 empty empty empty 17 7 0 10 #fcfcfc #000000
#000000 0 1;
#X obj 247 289 tgl 15 0 empty empty empty 17 7 0 10 #fc0400 #000000
#000000 0 1;
#X obj 264 289 tgl 15 0 empty empty empty 17 7 0 10 #fcfcfc #000000
#000000 0 1;
#X obj 281 289 tgl 15 0 empty empty empty 17 7 0 10 #fcfcfc #000000
#000000 0 1;
#X obj 298 289 tgl 15 0 empty empty empty 17 7 0 10 #fcfcfc #000000
#000000 0 1;
#X obj 315 289 tgl 15 0 empty empty empty 17 7 0 10 #fc0400 #000000
#000000 0 1;
#X obj 332 289 tgl 15 0 empty empty empty 17 7 0 10 #fcfcfc #000000
#000000 0 1;
#X obj 349 289 tgl 15 0 empty empty empty 17 7 0 10 #fcfcfc #000000
#000000 0 1;
#X obj 366 289 tgl 15 0 empty empty empty 17 7 0 10 #fcfcfc #000000
#000000 0 1;
#X obj 383 289 tgl 15 0 empty empty empty 17 7 0 10 #fc0400 #000000
#000000 0 1;
#X obj 400 289 tgl 15 0 empty empty empty 17 7 0 10 #fcfcfc #000000
#000000 0 1;
#X obj 417 289 tgl 15 0 empty empty empty 17 7 0 10 #fcfcfc #000000
#000000 0 1;
#X obj 434 289 tgl 15 0 empty empty empty 17 7 0 10 #fcfcfc #000000
#000000 0 1;
#X obj 451 289 tgl 15 0 empty empty empty 17 7 0 10 #fc0400 #000000
#000000 0 1;
#X obj 468 289 tgl 15 0 empty empty empty 17 7 0 10 #fcfcfc #000000
#000000 0 1;
#X obj 485 289 tgl 15 0 empty empty empty 17 7 0 10 #fcfcfc #000000
#000000 0 1;
#X obj 502 289 tgl 15 0 empty empty empty 17 7 0 10 #fcfcfc #000000
#000000 0 1;
#X obj 519 289 tgl 15 0 empty empty empty 17 7 0 10 #fc0400 #000000
#000000 0 1;
#X obj 536 289 tgl 15 0 empty empty empty 17 7 0 10 #fcfcfc #000000
#000000 0 1;
#X obj 553 289 tgl 15 0 empty empty empty 17 7 0 10 #fcfcfc #000000
#000000 0 1;
#X obj 570 289 tgl 15 0 empty empty empty 17 7 0 10 #fcfcfc #000000
#000000 0 1;
#X obj 587 289 tgl 15 0 empty empty empty 17 7 0 10 #fc0400 #000000
#000000 0 1;
#X obj 604 289 tgl 15 0 empty empty empty 17 7 0 10 #fcfcfc #000000
#000000 0 1;
#X obj 621 289 tgl 15 0 empty empty empty 17 7 0 10 #fcfcfc #000000
#000000 0 1;
#X obj 638 289 tgl 15 0 empty empty empty 17 7 0 10 #fcfcfc #000000
#000000 0 1;
#X obj 111 307 tgl 15 0 empty empty empty 17 7 0 10 #fc0400 #000000
#000000 0 1;
#X obj 128 307 tgl 15 0 empty empty empty 17 7 0 10 #fcfcfc #000000
#000000 0 1;
#X obj 145 307 tgl 15 0 empty empty empty 17 7 0 10 #fcfcfc #000000
#000000 0 1;
#X obj 162 307 tgl 15 0 empty empty empty 17 7 0 10 #fcfcfc #000000
#000000 0 1;
#X obj 179 307 tgl 15 0 empty empty empty 17 7 0 10 #fc0400 #000000
#000000 0 1;
#X obj 196 307 tgl 15 0 empty empty empty 17 7 0 10 #fcfcfc #000000
#000000 0 1;
#X obj 213 307 tgl 15 0 empty empty empty 17 7 0 10 #fcfcfc #000000
#000000 0 1;
#X obj 230 307 tgl 15 0 empty empty empty 17 7 0 10 #fcfcfc #000000
#000000 0 1;
#X obj 247 307 tgl 15 0 empty empty empty 17 7 0 10 #fc0400 #000000
#000000 0 1;
#X obj 264 307 tgl 15 0 empty empty empty 17 7 0 10 #fcfcfc #000000
#000000 0 1;
#X obj 281 307 tgl 15 0 empty empty empty 17 7 0 10 #fcfcfc #000000
#000000 0 1;
#X obj 298 307 tgl 15 0 empty empty empty 17 7 0 10 #fcfcfc #000000
#000000 0 1;
#X obj 315 307 tgl 15 0 empty empty empty 17 7 0 10 #fc0400 #000000
#000000 0 1;
#X obj 332 307 tgl 15 0 empty empty empty 17 7 0 10 #fcfcfc #000000
#000000 0 1;
#X obj 349 307 tgl 15 0 empty empty empty 17 7 0 10 #fcfcfc #000000
#000000 0 1;
#X obj 366 307 tgl 15 0 empty empty empty 17 7 0 10 #fcfcfc #000000
#000000 0 1;
#X obj 383 307 tgl 15 0 empty empty empty 17 7 0 10 #fc0400 #000000
#000000 0 1;
#X obj 400 307 tgl 15 0 empty empty empty 17 7 0 10 #fcfcfc #000000
#000000 0 1;
#X obj 417 307 tgl 15 0 empty empty empty 17 7 0 10 #fcfcfc #000000
#000000 0 1;
#X obj 434 307 tgl 15 0 empty empty empty 17 7 0 10 #fcfcfc #000000
#000000 0 1;
#X obj 451 307 tgl 15 0 empty empty empty 17 7 0 10 #fc0400 #000000
#000000 0 1;
#X obj 468 307 tgl 15 0 empty empty empty 17 7 0 10 #fcfcfc #000000
#000000 0 1;
#X obj 485 307 tgl 15 0 empty empty empty 17 7 0 10 #fcfcfc #000000
#000000 0 1;
#X obj 502 307 tgl 15 0 empty empty empty 17 7 0 10 #fcfcfc #000000
#000000 0 1;
#X obj 519 307 tgl 15 0 empty empty empty 17 7 0 10 #fc0400 #000000
#000000 0 1;
#X obj 536 307 tgl 15 0 empty empty empty 17 7 0 10 #fcfcfc #000000
#000000 0 1;
#X obj 553 307 tgl 15 0 empty empty empty 17 7 0 10 #fcfcfc #000000
#000000 0 1;
#X obj 570 307 tgl 15 0 empty empty empty 17 7 0 10 #fcfcfc #000000
#000000 0 1;
#X obj 587 307 tgl 15 0 empty empty empty 17 7 0 10 #fc0400 #000000
#000000 0 1;
#X obj 604 307 tgl 15 0 empty empty empty 17 7 0 10 #fcfcfc #000000
#000000 0 1;
#X obj 621 307 tgl 15 0 empty empty empty 17 7 0 10 #fcfcfc #000000
#000000 0 1;
#X obj 638 307 tgl 15 0 empty empty empty 17 7 0 10 #fcfcfc #000000
#000000 0 1;
#X connect 1 0 70 0;
#X connect 1 0 134 0;
#X connect 1 0 198 0;
#X connect 1 0 262 0;
#X connect 2 0 71 0;
#X connect 2 0 135 0;
#X connect 2 0 199 0;
#X connect 2 0 263 0;
#X connect 3 0 72 0;
#X connect 3 0 136 0;
#X connect 3 0 200 0;
#X connect 3 0 264 0;
#X connect 4 0 73 0;
#X connect 4 0 137 0;
#X connect 4 0 201 0;
#X connect 4 0 265 0;
#X connect 5 0 74 0;
#X connect 5 0 138 0;
#X connect 5 0 202 0;
#X connect 5 0 266 0;
#X connect 6 0 75 0;
#X connect 6 0 139 0;
#X connect 6 0 203 0;
#X connect 6 0 267 0;
#X connect 7 0 76 0;
#X connect 7 0 140 0;
#X connect 7 0 204 0;
#X connect 7 0 268 0;
#X connect 8 0 77 0;
#X connect 8 0 141 0;
#X connect 8 0 205 0;
#X connect 8 0 269 0;
#X connect 9 0 78 0;
#X connect 9 0 142 0;
#X connect 9 0 206 0;
#X connect 9 0 270 0;
#X connect 10 0 79 0;
#X connect 10 0 143 0;
#X connect 10 0 207 0;
#X connect 10 0 271 0;
#X connect 11 0 80 0;
#X connect 11 0 144 0;
#X connect 11 0 208 0;
#X connect 11 0 272 0;
#X connect 12 0 81 0;
#X connect 12 0 145 0;
#X connect 12 0 209 0;
#X connect 12 0 273 0;
#X connect 13 0 82 0;
#X connect 13 0 146 0;
#X connect 13 0 210 0;
#X connect 13 0 274 0;
#X connect 14 0 83 0;
#X connect 14 0 147 0;
#X connect 14 0 211 0;
#X connect 14 0 275 0;
#X connect 15 0 84 0;
#X connect 15 0 148 0;
#X connect 15 0 212 0;
#X connect 15 0 276 0;
#X connect 16 0 85 0;
#X connect 16 0 149 0;
#X connect 16 0 213 0;
#X connect 16 0 277 0;
#X connect 17 0 86 0;
#X connect 17 0 150 0;
#X connect 17 0 214 0;
#X connect 17 0 278 0;
#X connect 18 0 87 0;
#X connect 18 0 151 0;
#X connect 18 0 215 0;
#X connect 18 0 279 0;
#X connect 19 0 88 0;
#X connect 19 0 152 0;
#X connect 19 0 216 0;
#X connect 19 0 280 0;
#X connect 20 0 89 0;
#X connect 20 0 153 0;
#X connect 20 0 217 0;
#X connect 20 0 281 0;
#X connect 21 0 90 0;
#X connect 21 0 154 0;
#X connect 21 0 218 0;
#X connect 21 0 282 0;
#X connect 22 0 91 0;
#X connect 22 0 155 0;
#X connect 22 0 219 0;
#X connect 22 0 283 0;
#X connect 23 0 92 0;
#X connect 23 0 156 0;
#X connect 23 0 220 0;
#X connect 23 0 284 0;
#X connect 24 0 93 0;
#X connect 24 0 157 0;
#X connect 24 0 221 0;
#X connect 24 0 285 0;
#X connect 24 0 286 0;
#X connect 25 0 95 0;
#X connect 25 0 159 0;
#X connect 25 0 223 0;
#X connect 25 0 287 0;
#X connect 26 0 96 0;
#X connect 26 0 160 0;
#X connect 26 0 224 0;
#X connect 26 0 288 0;
#X connect 27 0 97 0;
#X connect 27 0 161 0;
#X connect 27 0 225 0;
#X connect 27 0 289 0;
#X connect 28 0 98 0;
#X connect 28 0 162 0;
#X connect 28 0 226 0;
#X connect 28 0 274 0;
#X connect 28 0 290 0;
#X connect 29 0 99 0;
#X connect 29 0 163 0;
#X connect 29 0 227 0;
#X connect 29 0 275 0;
#X connect 29 0 291 0;
#X connect 30 0 100 0;
#X connect 30 0 164 0;
#X connect 30 0 228 0;
#X connect 30 0 276 0;
#X connect 30 0 292 0;
#X connect 31 0 101 0;
#X connect 31 0 165 0;
#X connect 31 0 229 0;
#X connect 31 0 277 0;
#X connect 31 0 293 0;
#X connect 32 0 94 0;
#X connect 32 0 158 0;
#X connect 32 0 222 0;
#X connect 33 0 1 0;
#X connect 33 1 2 0;
#X connect 33 2 3 0;
#X connect 33 3 4 0;
#X connect 33 4 5 0;
#X connect 33 5 6 0;
#X connect 33 6 7 0;
#X connect 33 7 8 0;
#X connect 33 8 9 0;
#X connect 33 9 10 0;
#X connect 33 10 11 0;
#X connect 33 11 12 0;
#X connect 33 12 13 0;
#X connect 33 13 14 0;
#X connect 33 14 15 0;
#X connect 33 15 16 0;
#X connect 33 16 17 0;
#X connect 33 17 18 0;
#X connect 33 18 19 0;
#X connect 33 19 20 0;
#X connect 33 20 21 0;
#X connect 33 21 22 0;
#X connect 33 22 23 0;
#X connect 33 23 24 0;
#X connect 33 24 32 0;
#X connect 33 25 25 0;
#X connect 33 26 26 0;
#X connect 33 27 27 0;
#X connect 33 28 28 0;
#X connect 33 29 29 0;
#X connect 33 30 30 0;
#X connect 33 31 31 0;
#X connect 34 0 335 0;
#X connect 35 0 335 0;
#X connect 36 0 335 0;
#X connect 37 0 335 0;
#X connect 38 0 70 1;
#X connect 39 0 71 1;
#X connect 40 0 72 1;
#X connect 41 0 73 1;
#X connect 42 0 74 1;
#X connect 43 0 75 1;
#X connect 44 0 76 1;
#X connect 45 0 77 1;
#X connect 46 0 78 1;
#X connect 47 0 79 1;
#X connect 48 0 80 1;
#X connect 49 0 81 1;
#X connect 50 0 82 1;
#X connect 51 0 83 1;
#X connect 52 0 84 1;
#X connect 53 0 85 1;
#X connect 54 0 86 1;
#X connect 55 0 87 1;
#X connect 56 0 88 1;
#X connect 57 0 89 1;
#X connect 58 0 90 1;
#X connect 59 0 91 1;
#X connect 60 0 92 1;
#X connect 61 0 93 1;
#X connect 62 0 94 1;
#X connect 63 0 95 1;
#X connect 64 0 96 1;
#X connect 65 0 97 1;
#X connect 66 0 98 1;
#X connect 67 0 99 1;
#X connect 68 0 100 1;
#X connect 69 0 101 1;
#X connect 70 0 36 1;
#X connect 71 0 36 1;
#X connect 72 0 36 1;
#X connect 73 0 36 1;
#X connect 74 0 36 1;
#X connect 75 0 36 1;
#X connect 76 0 36 1;
#X connect 77 0 36 1;
#X connect 78 0 36 1;
#X connect 79 0 36 1;
#X connect 80 0 36 1;
#X connect 81 0 36 1;
#X connect 82 0 36 1;
#X connect 83 0 36 1;
#X connect 84 0 36 1;
#X connect 85 0 36 1;
#X connect 86 0 36 1;
#X connect 87 0 36 1;
#X connect 88 0 36 1;
#X connect 89 0 36 1;
#X connect 90 0 36 1;
#X connect 91 0 36 1;
#X connect 92 0 36 1;
#X connect 93 0 36 1;
#X connect 94 0 36 1;
#X connect 95 0 36 1;
#X connect 96 0 36 1;
#X connect 97 0 36 1;
#X connect 98 0 36 1;
#X connect 99 0 36 1;
#X connect 100 0 36 1;
#X connect 101 0 36 1;
#X connect 102 0 134 1;
#X connect 103 0 135 1;
#X connect 104 0 136 1;
#X connect 105 0 137 1;
#X connect 106 0 138 1;
#X connect 107 0 139 1;
#X connect 108 0 140 1;
#X connect 109 0 141 1;
#X connect 110 0 142 1;
#X connect 111 0 143 1;
#X connect 112 0 144 1;
#X connect 113 0 145 1;
#X connect 114 0 146 1;
#X connect 115 0 147 1;
#X connect 116 0 148 1;
#X connect 117 0 149 1;
#X connect 118 0 150 1;
#X connect 119 0 151 1;
#X connect 120 0 152 1;
#X connect 121 0 153 1;
#X connect 122 0 154 1;
#X connect 123 0 155 1;
#X connect 124 0 156 1;
#X connect 125 0 157 1;
#X connect 126 0 158 1;
#X connect 127 0 159 1;
#X connect 128 0 160 1;
#X connect 129 0 161 1;
#X connect 130 0 162 1;
#X connect 131 0 163 1;
#X connect 132 0 164 1;
#X connect 133 0 165 1;
#X connect 134 0 37 4;
#X connect 135 0 37 4;
#X connect 136 0 37 4;
#X connect 137 0 37 4;
#X connect 138 0 37 4;
#X connect 139 0 37 4;
#X connect 140 0 37 4;
#X connect 141 0 37 4;
#X connect 142 0 37 4;
#X connect 143 0 37 4;
#X connect 144 0 37 4;
#X connect 145 0 37 4;
#X connect 146 0 37 4;
#X connect 147 0 37 4;
#X connect 148 0 37 4;
#X connect 149 0 37 4;
#X connect 150 0 37 4;
#X connect 151 0 37 4;
#X connect 152 0 37 4;
#X connect 153 0 37 4;
#X connect 154 0 37 4;
#X connect 155 0 37 4;
#X connect 156 0 37 4;
#X connect 157 0 37 4;
#X connect 158 0 37 4;
#X connect 159 0 37 4;
#X connect 160 0 37 4;
#X connect 161 0 37 4;
#X connect 162 0 37 4;
#X connect 163 0 37 4;
#X connect 164 0 37 4;
#X connect 165 0 37 4;
#X connect 166 0 198 1;
#X connect 167 0 199 1;
#X connect 168 0 200 1;
#X connect 169 0 201 1;
#X connect 170 0 202 1;
#X connect 171 0 203 1;
#X connect 172 0 204 1;
#X connect 173 0 205 1;
#X connect 174 0 206 1;
#X connect 175 0 207 1;
#X connect 176 0 208 1;
#X connect 177 0 209 1;
#X connect 178 0 210 1;
#X connect 179 0 211 1;
#X connect 180 0 212 1;
#X connect 181 0 213 1;
#X connect 182 0 214 1;
#X connect 183 0 215 1;
#X connect 184 0 216 1;
#X connect 185 0 217 1;
#X connect 186 0 218 1;
#X connect 187 0 219 1;
#X connect 188 0 220 1;
#X connect 189 0 221 1;
#X connect 190 0 222 1;
#X connect 191 0 223 1;
#X connect 192 0 224 1;
#X connect 193 0 225 1;
#X connect 194 0 226 1;
#X connect 195 0 227 1;
#X connect 196 0 228 1;
#X connect 197 0 229 1;
#X connect 198 0 34 0;
#X connect 199 0 34 0;
#X connect 200 0 34 0;
#X connect 201 0 34 0;
#X connect 202 0 34 0;
#X connect 203 0 34 0;
#X connect 204 0 34 0;
#X connect 205 0 34 0;
#X connect 206 0 34 0;
#X connect 207 0 34 0;
#X connect 208 0 34 0;
#X connect 209 0 34 0;
#X connect 210 0 34 0;
#X connect 211 0 34 0;
#X connect 212 0 34 0;
#X connect 213 0 34 0;
#X connect 214 0 34 0;
#X connect 215 0 34 0;
#X connect 216 0 34 0;
#X connect 217 0 34 0;
#X connect 218 0 34 0;
#X connect 219 0 34 0;
#X connect 220 0 34 0;
#X connect 221 0 34 0;
#X connect 222 0 34 0;
#X connect 223 0 34 0;
#X connect 224 0 34 0;
#X connect 225 0 34 0;
#X connect 226 0 34 0;
#X connect 227 0 34 0;
#X connect 228 0 34 0;
#X connect 229 0 34 0;
#X connect 230 0 262 1;
#X connect 231 0 263 1;
#X connect 232 0 264 1;
#X connect 233 0 265 1;
#X connect 234 0 266 1;
#X connect 235 0 267 1;
#X connect 236 0 268 1;
#X connect 237 0 269 1;
#X connect 238 0 270 1;
#X connect 239 0 271 1;
#X connect 240 0 272 1;
#X connect 241 0 273 1;
#X connect 242 0 274 1;
#X connect 243 0 275 1;
#X connect 244 0 276 1;
#X connect 245 0 277 1;
#X connect 246 0 278 1;
#X connect 247 0 279 1;
#X connect 248 0 280 1;
#X connect 249 0 281 1;
#X connect 250 0 282 1;
#X connect 251 0 283 1;
#X connect 252 0 284 1;
#X connect 253 0 285 1;
#X connect 254 0 286 1;
#X connect 255 0 287 1;
#X connect 256 0 288 1;
#X connect 257 0 289 1;
#X connect 258 0 290 1;
#X connect 259 0 291 1;
#X connect 260 0 292 1;
#X connect 261 0 293 1;
#X connect 262 0 35 1;
#X connect 263 0 35 1;
#X connect 264 0 35 1;
#X connect 265 0 35 1;
#X connect 266 0 35 1;
#X connect 267 0 35 1;
#X connect 268 0 35 1;
#X connect 269 0 35 1;
#X connect 270 0 35 1;
#X connect 271 0 35 1;
#X connect 272 0 35 1;
#X connect 273 0 35 1;
#X connect 274 0 35 1;
#X connect 275 0 35 1;
#X connect 276 0 35 1;
#X connect 277 0 35 1;
#X connect 278 0 35 1;
#X connect 279 0 35 1;
#X connect 280 0 35 1;
#X connect 281 0 35 1;
#X connect 282 0 35 1;
#X connect 283 0 35 1;
#X connect 284 0 35 1;
#X connect 285 0 35 1;
#X connect 286 0 35 1;
#X connect 287 0 35 1;
#X connect 288 0 35 1;
#X connect 289 0 35 1;
#X connect 290 0 35 1;
#X connect 291 0 35 1;
#X connect 292 0 35 1;
#X connect 293 0 35 1;
#X connect 294 0 36 0;
#X connect 295 0 37 0;
#X connect 296 0 35 0;
#X connect 297 0 34 1;
#X connect 299 0 301 0;
#X connect 300 0 306 1;
#X connect 301 0 323 1;
#X connect 302 0 306 1;
#X connect 303 0 330 0;
#X connect 304 0 330 0;
#X connect 305 0 301 0;
#X connect 306 0 307 0;
#X connect 307 0 305 0;
#X connect 308 0 319 0;
#X connect 308 1 320 0;
#X connect 308 2 321 0;
#X connect 308 3 322 0;
#X connect 309 0 313 0;
#X connect 310 0 313 1;
#X connect 311 0 313 2;
#X connect 312 0 313 3;
#X connect 313 0 314 0;
#X connect 314 0 330 1;
#X connect 315 0 316 0;
#X connect 316 0 317 0;
#X connect 316 0 318 0;
#X connect 317 0 316 1;
#X connect 318 0 308 0;
#X connect 319 0 323 0;
#X connect 320 0 323 0;
#X connect 321 0 323 0;
#X connect 322 0 323 0;
#X connect 323 0 309 0;
#X connect 323 1 310 0;
#X connect 323 2 311 0;
#X connect 323 3 312 0;
#X connect 324 0 325 0;
#X connect 324 0 331 0;
#X connect 325 0 324 1;
#X connect 326 0 324 0;
#X connect 326 0 306 0;
#X connect 327 0 304 0;
#X connect 328 0 303 0;
#X connect 329 0 319 0;
#X connect 330 0 326 0;
#X connect 331 0 33 0;
#X connect 332 0 320 0;
#X connect 333 0 321 0;
#X connect 334 0 322 0;
#X coords 0 -1 1 1 700 700 1 100 100;
