#N canvas 0 0 454 304 10;
#X obj 58 80 phasor~;
#X obj 89 50 mtof;
#X obj 171 51 mtof;
#X obj 137 80 osc~;
#X obj 59 157 *~ 0.5;
#X obj 60 221 dac~;
#X obj 46 11 inlet;
#X obj 120 16 inlet;
#X connect 0 0 4 0;
#X connect 1 0 0 0;
#X connect 2 0 3 0;
#X connect 3 0 4 0;
#X connect 4 0 5 0;
#X connect 4 0 5 1;
#X connect 6 0 0 0;
#X connect 6 0 3 0;
#X connect 7 0 1 0;
#X connect 7 0 2 0;
