#N canvas 241 229 1366 725 10;
#X obj 425 1015 dac~;
#X obj 21 676 *~;
#X obj 37 655 line~;
#X obj 128 121 vsl 15 128 0 0.9 0 0 empty empty empty 0 -9 0 10 #fcfcfc
#000000 #000000 0 1;
#X obj 22 735 lop~;
#X obj 128 271 vsl 15 64 0 2000 0 0 empty empty empty 0 -9 0 10 #fcfcfc
#000000 #000000 0 1;
#X obj 131 678 *~;
#X obj 147 657 line~;
#X obj 160 121 vsl 15 128 0 0.9 0 0 empty empty empty 0 -9 0 10 #fcfcfc
#000000 #000000 0 1;
#X obj 132 726 lop~;
#X obj 160 271 vsl 15 64 0 2000 0 0 empty empty empty 0 -9 0 10 #fcfcfc
#000000 #000000 0 1;
#X obj 236 674 *~;
#X obj 252 653 line~;
#X obj 192 121 vsl 15 128 0 0.9 0 0 empty empty empty 0 -9 0 10 #fcfcfc
#000000 #000000 0 1;
#X obj 237 733 lop~;
#X obj 192 271 vsl 15 64 0 2000 0 0 empty empty empty 0 -9 0 10 #fcfcfc
#000000 #000000 0 1;
#X obj 343 678 *~;
#X obj 359 657 line~;
#X obj 224 121 vsl 15 128 0 0.9 0 0 empty empty empty 0 -9 0 10 #fcfcfc
#000000 #000000 0 1;
#X obj 344 732 lop~;
#X obj 224 271 vsl 15 64 0 2000 0 0 empty empty empty 0 -9 0 10 #fcfcfc
#000000 #000000 0 1;
#X obj 443 679 *~;
#X obj 459 658 line~;
#X obj 256 121 vsl 15 128 0 0.9 0 0 empty empty empty 0 -9 0 10 #fcfcfc
#000000 #000000 0 1;
#X obj 444 730 lop~;
#X obj 256 271 vsl 15 64 0 2000 0 0 empty empty empty 0 -9 0 10 #fcfcfc
#000000 #000000 0 1;
#X obj 550 683 *~;
#X obj 566 662 line~;
#X obj 288 121 vsl 15 128 0 0.9 0 0 empty empty empty 0 -9 0 10 #fcfcfc
#000000 #000000 0 1;
#X obj 551 737 lop~;
#X obj 288 271 vsl 15 64 0 2000 0 0 empty empty empty 0 -9 0 10 #fcfcfc
#000000 #000000 0 1;
#X obj 658 677 *~;
#X obj 674 656 line~;
#X obj 320 121 vsl 15 128 0 0.9 0 0 empty empty empty 0 -9 0 10 #fcfcfc
#000000 #000000 0 1;
#X obj 655 730 lop~;
#X obj 320 271 vsl 15 64 0 2000 0 0 empty empty empty 0 -9 0 10 #fcfcfc
#000000 #000000 0 1;
#X obj 757 663 *~;
#X obj 773 642 line~;
#X obj 352 121 vsl 15 128 0 0.9 0 0 empty empty empty 0 -9 0 10 #fcfcfc
#000000 #000000 0 1;
#X obj 764 716 lop~;
#X obj 352 271 vsl 15 64 0 2000 0 0 empty empty empty 0 -9 0 10 #fcfcfc
#000000 #000000 0 1;
#X obj 35 279 cnv 15 100 60 empty empty empty 20 12 0 14 #e0e0e0 #404040
0;
#X obj 21 635 inlet~;
#X obj 131 637 inlet~;
#X obj 236 633 inlet~;
#X obj 343 637 inlet~;
#X obj 443 638 inlet~;
#X obj 550 642 inlet~;
#X obj 658 636 inlet~;
#X obj 757 622 inlet~;
#X obj 975 174 hsl 128 15 0 127 0 0 empty empty empty -2 -8 0 10 #fcfcfc
#000000 #000000 0 1;
#X obj 128 357 vsl 15 64 0 2e+07 0 0 empty empty empty 0 -9 0 10 #fcfcfc
#000000 #000000 0 1;
#X obj 865 83 vsl 15 64 0 2000 0 0 empty empty empty 0 -9 0 10 #fcfcfc
#000000 #000000 0 1;
#X obj 160 357 vsl 15 64 0 2e+07 0 0 empty empty empty 0 -9 0 10 #fcfcfc
#000000 #000000 0 1;
#X obj 932 127 hsl 128 15 0 127 0 0 empty empty empty -2 -8 0 10 #fcfcfc
#000000 #000000 0 1;
#X obj 192 357 vsl 15 64 0 2e+07 0 0 empty empty empty 0 -9 0 10 #fcfcfc
#000000 #000000 0 1;
#X obj 224 357 vsl 15 64 0 2e+07 0 0 empty empty empty 0 -9 0 10 #fcfcfc
#000000 #000000 0 1;
#X obj 256 357 vsl 15 64 0 2e+07 0 0 empty empty empty 0 -9 0 10 #fcfcfc
#000000 #000000 0 1;
#X obj 288 357 vsl 15 64 0 2e+07 0 0 empty empty empty 0 -9 0 10 #fcfcfc
#000000 #000000 0 1;
#X obj 320 357 vsl 15 64 0 2e+07 0 0 empty empty empty 0 -9 0 10 #fcfcfc
#000000 #000000 0 1;
#X obj 352 357 vsl 15 64 0 2e+07 0 0 empty empty empty 0 -9 0 10 #fcfcfc
#000000 #000000 0 1;
#X obj 658 705 hip~;
#X obj 550 710 hip~;
#X obj 443 704 hip~;
#X obj 343 705 hip~;
#X obj 237 703 hip~;
#X obj 132 703 hip~;
#X obj 21 705 hip~;
#X obj 762 691 hip~;
#X obj 423 171 vu 15 120 empty empty -1 -8 0 10 #404040 #000000 1 0
;
#X obj 484 171 vu 15 120 empty empty -1 -8 0 10 #404040 #000000 1 0
;
#X obj 545 171 vu 15 120 empty empty -1 -8 0 10 #404040 #000000 1 0
;
#X obj 606 171 vu 15 120 empty empty -1 -8 0 10 #404040 #000000 1 0
;
#X obj 423 356 vu 15 120 empty empty -1 -8 0 10 #404040 #000000 1 0
;
#X obj 484 356 vu 15 120 empty empty -1 -8 0 10 #404040 #000000 1 0
;
#X obj 545 356 vu 15 120 empty empty -1 -8 0 10 #404040 #000000 1 0
;
#X obj 606 356 vu 15 120 empty empty -1 -8 0 10 #404040 #000000 1 0
;
#N canvas 0 0 450 300 vu 0;
#X obj 59 129 env~ 1024;
#X obj 161 111 abs~;
#X obj 161 213 snapshot~;
#X obj 161 256 rmstodb;
#X obj 161 21 inlet~;
#X obj 161 288 - 100;
#X obj 59 287 - 100;
#X obj 59 361 outlet;
#X obj 161 361 outlet;
#X text 344 307 Check the help file of env~ and slop~ for more details.
, f 31;
#X obj 239 89 expr 1000 / $f1;
#X floatatom 239 117 5 0 0 0 - - - 0;
#X obj 161 146 slop~ 0 0 0 0 1e+09;
#X obj 239 18 inlet;
#X floatatom 239 57 5 0 0 0 - - - 0;
#X text 359 89 convert to hz;
#X text 282 118 hz;
#X text 284 57 peak decay time in ms;
#X obj 59 171 t f b;
#X text 345 132 The env~ object is dedicated to RMS analysis. Its output
is in dB (0-100 range \, pd style) but needs to be converted to dBFS
(and we do that by simply subtracting 100)., f 31;
#X text 345 225 The slop~ object is used here for peak detection. We
need to convert the output to dB with rmstodb and also subtract by
100 to convert it to dBFS., f 31;
#X connect 0 0 18 0;
#X connect 1 0 12 0;
#X connect 2 0 3 0;
#X connect 3 0 5 0;
#X connect 4 0 0 0;
#X connect 4 0 1 0;
#X connect 5 0 8 0;
#X connect 6 0 7 0;
#X connect 10 0 11 0;
#X connect 11 0 12 3;
#X connect 12 0 2 0;
#X connect 13 0 14 0;
#X connect 14 0 10 0;
#X connect 18 0 6 0;
#X connect 18 1 2 0;
#X restore 414 134 pd vu;
#X floatatom 441 106 5 0 0 0 - - - 0;
#N canvas 0 0 450 300 vu 0;
#X obj 59 129 env~ 1024;
#X obj 161 111 abs~;
#X obj 161 213 snapshot~;
#X obj 161 256 rmstodb;
#X obj 161 21 inlet~;
#X obj 161 288 - 100;
#X obj 59 287 - 100;
#X obj 59 361 outlet;
#X obj 161 361 outlet;
#X text 344 307 Check the help file of env~ and slop~ for more details.
, f 31;
#X obj 239 89 expr 1000 / $f1;
#X floatatom 239 117 5 0 0 0 - - - 0;
#X obj 161 146 slop~ 0 0 0 0 1e+09;
#X obj 239 18 inlet;
#X floatatom 239 57 5 0 0 0 - - - 0;
#X text 359 89 convert to hz;
#X text 282 118 hz;
#X text 284 57 peak decay time in ms;
#X obj 59 171 t f b;
#X text 345 132 The env~ object is dedicated to RMS analysis. Its output
is in dB (0-100 range \, pd style) but needs to be converted to dBFS
(and we do that by simply subtracting 100)., f 31;
#X text 345 225 The slop~ object is used here for peak detection. We
need to convert the output to dB with rmstodb and also subtract by
100 to convert it to dBFS., f 31;
#X connect 0 0 18 0;
#X connect 1 0 12 0;
#X connect 2 0 3 0;
#X connect 3 0 5 0;
#X connect 4 0 0 0;
#X connect 4 0 1 0;
#X connect 5 0 8 0;
#X connect 6 0 7 0;
#X connect 10 0 11 0;
#X connect 11 0 12 3;
#X connect 12 0 2 0;
#X connect 13 0 14 0;
#X connect 14 0 10 0;
#X connect 18 0 6 0;
#X connect 18 1 2 0;
#X restore 477 139 pd vu;
#X floatatom 504 111 5 0 0 0 - - - 0;
#N canvas 0 0 450 300 vu 0;
#X obj 59 129 env~ 1024;
#X obj 161 111 abs~;
#X obj 161 213 snapshot~;
#X obj 161 256 rmstodb;
#X obj 161 21 inlet~;
#X obj 161 288 - 100;
#X obj 59 287 - 100;
#X obj 59 361 outlet;
#X obj 161 361 outlet;
#X text 344 307 Check the help file of env~ and slop~ for more details.
, f 31;
#X obj 239 89 expr 1000 / $f1;
#X floatatom 239 117 5 0 0 0 - - - 0;
#X obj 161 146 slop~ 0 0 0 0 1e+09;
#X obj 239 18 inlet;
#X floatatom 239 57 5 0 0 0 - - - 0;
#X text 359 89 convert to hz;
#X text 282 118 hz;
#X text 284 57 peak decay time in ms;
#X obj 59 171 t f b;
#X text 345 132 The env~ object is dedicated to RMS analysis. Its output
is in dB (0-100 range \, pd style) but needs to be converted to dBFS
(and we do that by simply subtracting 100)., f 31;
#X text 345 225 The slop~ object is used here for peak detection. We
need to convert the output to dB with rmstodb and also subtract by
100 to convert it to dBFS., f 31;
#X connect 0 0 18 0;
#X connect 1 0 12 0;
#X connect 2 0 3 0;
#X connect 3 0 5 0;
#X connect 4 0 0 0;
#X connect 4 0 1 0;
#X connect 5 0 8 0;
#X connect 6 0 7 0;
#X connect 10 0 11 0;
#X connect 11 0 12 3;
#X connect 12 0 2 0;
#X connect 13 0 14 0;
#X connect 14 0 10 0;
#X connect 18 0 6 0;
#X connect 18 1 2 0;
#X restore 540 139 pd vu;
#X floatatom 567 111 5 0 0 0 - - - 0;
#N canvas 0 0 450 300 vu 0;
#X obj 59 129 env~ 1024;
#X obj 161 111 abs~;
#X obj 161 213 snapshot~;
#X obj 161 256 rmstodb;
#X obj 161 21 inlet~;
#X obj 161 288 - 100;
#X obj 59 287 - 100;
#X obj 59 361 outlet;
#X obj 161 361 outlet;
#X text 344 307 Check the help file of env~ and slop~ for more details.
, f 31;
#X obj 239 89 expr 1000 / $f1;
#X floatatom 239 117 5 0 0 0 - - - 0;
#X obj 161 146 slop~ 0 0 0 0 1e+09;
#X obj 239 18 inlet;
#X floatatom 239 57 5 0 0 0 - - - 0;
#X text 359 89 convert to hz;
#X text 282 118 hz;
#X text 284 57 peak decay time in ms;
#X obj 59 171 t f b;
#X text 345 132 The env~ object is dedicated to RMS analysis. Its output
is in dB (0-100 range \, pd style) but needs to be converted to dBFS
(and we do that by simply subtracting 100)., f 31;
#X text 345 225 The slop~ object is used here for peak detection. We
need to convert the output to dB with rmstodb and also subtract by
100 to convert it to dBFS., f 31;
#X connect 0 0 18 0;
#X connect 1 0 12 0;
#X connect 2 0 3 0;
#X connect 3 0 5 0;
#X connect 4 0 0 0;
#X connect 4 0 1 0;
#X connect 5 0 8 0;
#X connect 6 0 7 0;
#X connect 10 0 11 0;
#X connect 11 0 12 3;
#X connect 12 0 2 0;
#X connect 13 0 14 0;
#X connect 14 0 10 0;
#X connect 18 0 6 0;
#X connect 18 1 2 0;
#X restore 604 139 pd vu;
#X floatatom 631 111 5 0 0 0 - - - 0;
#N canvas 0 0 450 300 vu 0;
#X obj 59 129 env~ 1024;
#X obj 161 111 abs~;
#X obj 161 213 snapshot~;
#X obj 161 256 rmstodb;
#X obj 161 21 inlet~;
#X obj 161 288 - 100;
#X obj 59 287 - 100;
#X obj 59 361 outlet;
#X obj 161 361 outlet;
#X text 344 307 Check the help file of env~ and slop~ for more details.
, f 31;
#X obj 239 89 expr 1000 / $f1;
#X floatatom 239 117 5 0 0 0 - - - 0;
#X obj 161 146 slop~ 0 0 0 0 1e+09;
#X obj 239 18 inlet;
#X floatatom 239 57 5 0 0 0 - - - 0;
#X text 359 89 convert to hz;
#X text 282 118 hz;
#X text 284 57 peak decay time in ms;
#X obj 59 171 t f b;
#X text 345 132 The env~ object is dedicated to RMS analysis. Its output
is in dB (0-100 range \, pd style) but needs to be converted to dBFS
(and we do that by simply subtracting 100)., f 31;
#X text 345 225 The slop~ object is used here for peak detection. We
need to convert the output to dB with rmstodb and also subtract by
100 to convert it to dBFS., f 31;
#X connect 0 0 18 0;
#X connect 1 0 12 0;
#X connect 2 0 3 0;
#X connect 3 0 5 0;
#X connect 4 0 0 0;
#X connect 4 0 1 0;
#X connect 5 0 8 0;
#X connect 6 0 7 0;
#X connect 10 0 11 0;
#X connect 11 0 12 3;
#X connect 12 0 2 0;
#X connect 13 0 14 0;
#X connect 14 0 10 0;
#X connect 18 0 6 0;
#X connect 18 1 2 0;
#X restore 420 330 pd vu;
#X floatatom 447 302 5 0 0 0 - - - 0;
#N canvas 0 0 450 300 vu 0;
#X obj 59 129 env~ 1024;
#X obj 161 111 abs~;
#X obj 161 213 snapshot~;
#X obj 161 256 rmstodb;
#X obj 161 21 inlet~;
#X obj 161 288 - 100;
#X obj 59 287 - 100;
#X obj 59 361 outlet;
#X obj 161 361 outlet;
#X text 344 307 Check the help file of env~ and slop~ for more details.
, f 31;
#X obj 239 89 expr 1000 / $f1;
#X floatatom 239 117 5 0 0 0 - - - 0;
#X obj 161 146 slop~ 0 0 0 0 1e+09;
#X obj 239 18 inlet;
#X floatatom 239 57 5 0 0 0 - - - 0;
#X text 359 89 convert to hz;
#X text 282 118 hz;
#X text 284 57 peak decay time in ms;
#X obj 59 171 t f b;
#X text 345 132 The env~ object is dedicated to RMS analysis. Its output
is in dB (0-100 range \, pd style) but needs to be converted to dBFS
(and we do that by simply subtracting 100)., f 31;
#X text 345 225 The slop~ object is used here for peak detection. We
need to convert the output to dB with rmstodb and also subtract by
100 to convert it to dBFS., f 31;
#X connect 0 0 18 0;
#X connect 1 0 12 0;
#X connect 2 0 3 0;
#X connect 3 0 5 0;
#X connect 4 0 0 0;
#X connect 4 0 1 0;
#X connect 5 0 8 0;
#X connect 6 0 7 0;
#X connect 10 0 11 0;
#X connect 11 0 12 3;
#X connect 12 0 2 0;
#X connect 13 0 14 0;
#X connect 14 0 10 0;
#X connect 18 0 6 0;
#X connect 18 1 2 0;
#X restore 481 329 pd vu;
#X floatatom 508 301 5 0 0 0 - - - 0;
#N canvas 0 0 450 300 vu 0;
#X obj 59 129 env~ 1024;
#X obj 161 111 abs~;
#X obj 161 213 snapshot~;
#X obj 161 256 rmstodb;
#X obj 161 21 inlet~;
#X obj 161 288 - 100;
#X obj 59 287 - 100;
#X obj 59 361 outlet;
#X obj 161 361 outlet;
#X text 344 307 Check the help file of env~ and slop~ for more details.
, f 31;
#X obj 239 89 expr 1000 / $f1;
#X floatatom 239 117 5 0 0 0 - - - 0;
#X obj 161 146 slop~ 0 0 0 0 1e+09;
#X obj 239 18 inlet;
#X floatatom 239 57 5 0 0 0 - - - 0;
#X text 359 89 convert to hz;
#X text 282 118 hz;
#X text 284 57 peak decay time in ms;
#X obj 59 171 t f b;
#X text 345 132 The env~ object is dedicated to RMS analysis. Its output
is in dB (0-100 range \, pd style) but needs to be converted to dBFS
(and we do that by simply subtracting 100)., f 31;
#X text 345 225 The slop~ object is used here for peak detection. We
need to convert the output to dB with rmstodb and also subtract by
100 to convert it to dBFS., f 31;
#X connect 0 0 18 0;
#X connect 1 0 12 0;
#X connect 2 0 3 0;
#X connect 3 0 5 0;
#X connect 4 0 0 0;
#X connect 4 0 1 0;
#X connect 5 0 8 0;
#X connect 6 0 7 0;
#X connect 10 0 11 0;
#X connect 11 0 12 3;
#X connect 12 0 2 0;
#X connect 13 0 14 0;
#X connect 14 0 10 0;
#X connect 18 0 6 0;
#X connect 18 1 2 0;
#X restore 540 329 pd vu;
#X floatatom 567 301 5 0 0 0 - - - 0;
#N canvas 0 0 450 300 vu 0;
#X obj 59 129 env~ 1024;
#X obj 161 111 abs~;
#X obj 161 213 snapshot~;
#X obj 161 256 rmstodb;
#X obj 161 21 inlet~;
#X obj 161 288 - 100;
#X obj 59 287 - 100;
#X obj 59 361 outlet;
#X obj 161 361 outlet;
#X text 344 307 Check the help file of env~ and slop~ for more details.
, f 31;
#X obj 239 89 expr 1000 / $f1;
#X floatatom 239 117 5 0 0 0 - - - 0;
#X obj 161 146 slop~ 0 0 0 0 1e+09;
#X obj 239 18 inlet;
#X floatatom 239 57 5 0 0 0 - - - 0;
#X text 359 89 convert to hz;
#X text 282 118 hz;
#X text 284 57 peak decay time in ms;
#X obj 59 171 t f b;
#X text 345 132 The env~ object is dedicated to RMS analysis. Its output
is in dB (0-100 range \, pd style) but needs to be converted to dBFS
(and we do that by simply subtracting 100)., f 31;
#X text 345 225 The slop~ object is used here for peak detection. We
need to convert the output to dB with rmstodb and also subtract by
100 to convert it to dBFS., f 31;
#X connect 0 0 18 0;
#X connect 1 0 12 0;
#X connect 2 0 3 0;
#X connect 3 0 5 0;
#X connect 4 0 0 0;
#X connect 4 0 1 0;
#X connect 5 0 8 0;
#X connect 6 0 7 0;
#X connect 10 0 11 0;
#X connect 11 0 12 3;
#X connect 12 0 2 0;
#X connect 13 0 14 0;
#X connect 14 0 10 0;
#X connect 18 0 6 0;
#X connect 18 1 2 0;
#X restore 599 331 pd vu;
#X floatatom 626 303 5 0 0 0 - - - 0;
#X obj 938 515 osc~;
#X msg 961 469 400;
#X obj 426 976 +~;
#X connect 1 0 67 0;
#X connect 2 0 1 1;
#X connect 3 0 2 0;
#X connect 4 0 77 0;
#X connect 4 0 95 0;
#X connect 5 0 4 1;
#X connect 6 0 66 0;
#X connect 7 0 6 1;
#X connect 8 0 7 0;
#X connect 9 0 79 0;
#X connect 9 0 95 0;
#X connect 10 0 9 1;
#X connect 11 0 65 0;
#X connect 12 0 11 1;
#X connect 13 0 12 0;
#X connect 14 0 81 0;
#X connect 14 0 95 0;
#X connect 15 0 14 1;
#X connect 16 0 64 0;
#X connect 17 0 16 1;
#X connect 18 0 17 0;
#X connect 19 0 83 0;
#X connect 19 0 95 0;
#X connect 20 0 19 1;
#X connect 21 0 63 0;
#X connect 22 0 21 1;
#X connect 23 0 22 0;
#X connect 24 0 85 0;
#X connect 24 0 95 0;
#X connect 25 0 24 1;
#X connect 26 0 62 0;
#X connect 27 0 26 1;
#X connect 28 0 27 0;
#X connect 29 0 87 0;
#X connect 29 0 95 0;
#X connect 30 0 29 1;
#X connect 31 0 61 0;
#X connect 32 0 31 1;
#X connect 33 0 32 0;
#X connect 34 0 89 0;
#X connect 34 0 95 0;
#X connect 35 0 34 1;
#X connect 36 0 68 0;
#X connect 37 0 36 1;
#X connect 38 0 37 0;
#X connect 39 0 91 0;
#X connect 39 0 95 0;
#X connect 40 0 39 1;
#X connect 42 0 1 0;
#X connect 43 0 6 0;
#X connect 44 0 11 0;
#X connect 45 0 16 0;
#X connect 46 0 21 0;
#X connect 47 0 26 0;
#X connect 48 0 31 0;
#X connect 49 0 36 0;
#X connect 51 0 67 1;
#X connect 53 0 66 1;
#X connect 55 0 65 1;
#X connect 56 0 64 1;
#X connect 57 0 63 1;
#X connect 58 0 62 1;
#X connect 59 0 61 1;
#X connect 60 0 68 1;
#X connect 61 0 34 0;
#X connect 62 0 29 0;
#X connect 63 0 24 0;
#X connect 64 0 19 0;
#X connect 65 0 14 0;
#X connect 66 0 9 0;
#X connect 67 0 4 0;
#X connect 68 0 39 0;
#X connect 77 0 69 0;
#X connect 77 1 69 1;
#X connect 78 0 77 1;
#X connect 79 0 70 0;
#X connect 79 1 70 1;
#X connect 80 0 79 1;
#X connect 81 0 71 0;
#X connect 81 1 71 1;
#X connect 82 0 81 1;
#X connect 83 0 72 0;
#X connect 83 1 72 1;
#X connect 84 0 83 1;
#X connect 85 0 73 0;
#X connect 85 1 73 0;
#X connect 86 0 85 1;
#X connect 87 0 74 0;
#X connect 87 1 74 1;
#X connect 88 0 87 1;
#X connect 89 0 75 0;
#X connect 89 1 75 1;
#X connect 90 0 89 1;
#X connect 91 0 76 0;
#X connect 91 1 76 1;
#X connect 92 0 91 1;
#X connect 93 0 36 0;
#X connect 94 0 93 0;
#X connect 95 0 0 1;
#X connect 95 0 0 0;
#X coords 0 -1 1 1 600 400 1 100 100;
