#N canvas 304 98 1366 691 10;
#X obj -3 -49 inlet;
#X obj 33 -49 inlet;
#X obj 5 315 outlet;
#X obj 47 315 outlet;
#X obj 89 315 outlet;
#X obj 131 315 outlet;
#X obj 173 315 outlet;
#X obj 215 315 outlet;
#X obj 257 315 outlet;
#X obj 299 315 outlet;
#X obj 341 315 outlet;
#X obj 383 315 outlet;
#X obj 425 315 outlet;
#X obj 467 315 outlet;
#X obj 509 315 outlet;
#X obj 551 315 outlet;
#X obj 593 315 outlet;
#X obj 635 315 outlet;
#X obj 69 -49 inlet;
#X obj 105 -49 inlet;
#X obj 141 -49 inlet;
#X obj 177 -49 inlet;
#X obj 213 -49 inlet;
#X obj 249 -49 inlet;
#X obj 285 -49 inlet;
#X obj 321 -49 inlet;
#X obj 357 -49 inlet;
#X obj 393 -49 inlet;
#X obj 429 -49 inlet;
#X obj 465 -49 inlet;
#X obj 501 -49 inlet;
#X obj 537 -49 inlet;
#N canvas 667 50 703 721 2cmaj 0;
#X obj 83 26 inlet;
#X obj 115 222 f;
#X obj 139 222 f;
#X obj 163 222 f;
#X obj 187 222 f;
#X obj 211 222 f;
#X obj 235 222 f;
#X obj 259 222 f;
#X obj 283 222 f;
#X obj 307 222 f;
#X obj 331 222 f;
#X obj 355 222 f;
#X obj 379 222 f;
#X obj 403 222 f;
#X obj 427 222 f;
#X obj 451 222 f;
#X obj 475 222 f;
#X obj -6 170 t b b b b b b b b b b b b b b b b;
#X obj 5 315 outlet;
#X obj 47 315 outlet;
#X obj 89 315 outlet;
#X obj 131 315 outlet;
#X obj 173 315 outlet;
#X obj 215 315 outlet;
#X obj 257 315 outlet;
#X obj 299 315 outlet;
#X obj 341 315 outlet;
#X obj 383 315 outlet;
#X obj 425 315 outlet;
#X obj 467 315 outlet;
#X obj 509 315 outlet;
#X obj 551 315 outlet;
#X obj 593 315 outlet;
#X obj 635 315 outlet;
#X obj 297 72 loadbang;
#X obj 201 59 bng 15 250 50 0 empty empty empty 0 -6 0 10 #fcfcfc #000000
#000000;
#X msg 56 126 65.41;
#X msg 96 126 73.42;
#X msg 136 126 82.41;
#X msg 177 126 87.31;
#X msg 217 126 98;
#X msg 258 126 110;
#X msg 287 126 123.5;
#X msg 327 126 130.8;
#X msg 367 126 146.8;
#X msg 407 126 164.8;
#X msg 447 126 174.6;
#X msg 487 126 196;
#X msg 583 126 261.6;
#X msg 623 126 293.7;
#X msg 515 126 220;
#X msg 543 126 246.9;
#X connect 0 0 17 0;
#X connect 1 0 18 0;
#X connect 2 0 19 0;
#X connect 3 0 20 0;
#X connect 4 0 21 0;
#X connect 5 0 22 0;
#X connect 6 0 23 0;
#X connect 7 0 24 0;
#X connect 8 0 25 0;
#X connect 9 0 26 0;
#X connect 10 0 27 0;
#X connect 11 0 28 0;
#X connect 12 0 29 0;
#X connect 13 0 30 0;
#X connect 14 0 31 0;
#X connect 15 0 32 0;
#X connect 16 0 33 0;
#X connect 17 0 1 0;
#X connect 17 1 2 0;
#X connect 17 2 3 0;
#X connect 17 3 4 0;
#X connect 17 4 5 0;
#X connect 17 5 6 0;
#X connect 17 6 7 0;
#X connect 17 7 8 0;
#X connect 17 8 9 0;
#X connect 17 9 10 0;
#X connect 17 10 11 0;
#X connect 17 11 12 0;
#X connect 17 12 13 0;
#X connect 17 13 14 0;
#X connect 17 14 15 0;
#X connect 17 15 16 0;
#X connect 34 0 36 0;
#X connect 34 0 37 0;
#X connect 34 0 38 0;
#X connect 34 0 39 0;
#X connect 34 0 40 0;
#X connect 34 0 41 0;
#X connect 34 0 42 0;
#X connect 34 0 43 0;
#X connect 34 0 44 0;
#X connect 34 0 45 0;
#X connect 34 0 46 0;
#X connect 34 0 47 0;
#X connect 34 0 50 0;
#X connect 34 0 51 0;
#X connect 34 0 48 0;
#X connect 34 0 49 0;
#X connect 35 0 36 0;
#X connect 35 0 37 0;
#X connect 35 0 38 0;
#X connect 35 0 39 0;
#X connect 35 0 40 0;
#X connect 35 0 41 0;
#X connect 35 0 42 0;
#X connect 35 0 43 0;
#X connect 35 0 44 0;
#X connect 35 0 45 0;
#X connect 35 0 46 0;
#X connect 35 0 47 0;
#X connect 35 0 50 0;
#X connect 35 0 51 0;
#X connect 35 0 48 0;
#X connect 35 0 49 0;
#X connect 36 0 1 1;
#X connect 37 0 2 1;
#X connect 38 0 3 1;
#X connect 39 0 4 1;
#X connect 40 0 5 1;
#X connect 41 0 6 1;
#X connect 42 0 7 1;
#X connect 43 0 8 1;
#X connect 44 0 9 1;
#X connect 45 0 10 1;
#X connect 46 0 11 1;
#X connect 47 0 12 1;
#X connect 48 0 15 1;
#X connect 49 0 16 1;
#X connect 50 0 13 1;
#X connect 51 0 14 1;
#X restore 63 -10 pd 2cmaj;
#N canvas 0 50 764 522 3cmaj 0;
#X obj 83 26 inlet;
#X obj 115 222 f;
#X obj 139 222 f;
#X obj 163 222 f;
#X obj 187 222 f;
#X obj 211 222 f;
#X obj 235 222 f;
#X obj 259 222 f;
#X obj 283 222 f;
#X obj 307 222 f;
#X obj 331 222 f;
#X obj 355 222 f;
#X obj 379 222 f;
#X obj 403 222 f;
#X obj 427 222 f;
#X obj 451 222 f;
#X obj 475 222 f;
#X obj -6 170 t b b b b b b b b b b b b b b b b;
#X obj 5 315 outlet;
#X obj 47 315 outlet;
#X obj 89 315 outlet;
#X obj 131 315 outlet;
#X obj 173 315 outlet;
#X obj 215 315 outlet;
#X obj 257 315 outlet;
#X obj 299 315 outlet;
#X obj 341 315 outlet;
#X obj 383 315 outlet;
#X obj 425 315 outlet;
#X obj 467 315 outlet;
#X obj 509 315 outlet;
#X obj 551 315 outlet;
#X obj 593 315 outlet;
#X obj 635 315 outlet;
#X obj 297 72 loadbang;
#X obj 201 59 bng 15 250 50 0 empty empty empty 0 -6 0 10 #fcfcfc #000000
#000000;
#X msg 56 126 130.8;
#X msg 136 126 164.8;
#X msg 177 126 174.6;
#X msg 217 126 196;
#X msg 258 126 220;
#X msg 286 126 246.9;
#X msg 327 126 261.6;
#X msg 367 126 293.7;
#X msg 407 126 329.6;
#X msg 447 126 349.2;
#X msg 487 126 392;
#X msg 515 126 440;
#X msg 543 126 493.9;
#X msg 583 126 523.3;
#X msg 623 126 587.3;
#X msg 96 126 146.8;
#X connect 0 0 17 0;
#X connect 1 0 18 0;
#X connect 2 0 19 0;
#X connect 3 0 20 0;
#X connect 4 0 21 0;
#X connect 5 0 22 0;
#X connect 6 0 23 0;
#X connect 7 0 24 0;
#X connect 8 0 25 0;
#X connect 9 0 26 0;
#X connect 10 0 27 0;
#X connect 11 0 28 0;
#X connect 12 0 29 0;
#X connect 13 0 30 0;
#X connect 14 0 31 0;
#X connect 15 0 32 0;
#X connect 16 0 33 0;
#X connect 17 0 1 0;
#X connect 17 1 2 0;
#X connect 17 2 3 0;
#X connect 17 3 4 0;
#X connect 17 4 5 0;
#X connect 17 5 6 0;
#X connect 17 6 7 0;
#X connect 17 7 8 0;
#X connect 17 8 9 0;
#X connect 17 9 10 0;
#X connect 17 10 11 0;
#X connect 17 11 12 0;
#X connect 17 12 13 0;
#X connect 17 13 14 0;
#X connect 17 14 15 0;
#X connect 17 15 16 0;
#X connect 34 0 36 0;
#X connect 34 0 51 0;
#X connect 34 0 37 0;
#X connect 34 0 38 0;
#X connect 34 0 39 0;
#X connect 34 0 40 0;
#X connect 34 0 41 0;
#X connect 34 0 42 0;
#X connect 34 0 43 0;
#X connect 34 0 44 0;
#X connect 34 0 45 0;
#X connect 34 0 46 0;
#X connect 34 0 47 0;
#X connect 34 0 48 0;
#X connect 34 0 49 0;
#X connect 34 0 50 0;
#X connect 35 0 36 0;
#X connect 35 0 51 0;
#X connect 35 0 37 0;
#X connect 35 0 38 0;
#X connect 35 0 39 0;
#X connect 35 0 40 0;
#X connect 35 0 41 0;
#X connect 35 0 42 0;
#X connect 35 0 43 0;
#X connect 35 0 44 0;
#X connect 35 0 45 0;
#X connect 35 0 46 0;
#X connect 35 0 47 0;
#X connect 35 0 48 0;
#X connect 35 0 49 0;
#X connect 35 0 50 0;
#X connect 36 0 1 1;
#X connect 37 0 3 1;
#X connect 38 0 4 1;
#X connect 39 0 5 1;
#X connect 40 0 6 1;
#X connect 41 0 7 1;
#X connect 42 0 8 1;
#X connect 43 0 9 1;
#X connect 44 0 10 1;
#X connect 45 0 11 1;
#X connect 46 0 12 1;
#X connect 47 0 13 1;
#X connect 48 0 14 1;
#X connect 49 0 15 1;
#X connect 50 0 16 1;
#X connect 51 0 2 1;
#X restore 118 -10 pd 3cmaj;
#N canvas 0 50 756 514 4cmaj 0;
#X obj 83 26 inlet;
#X obj 115 222 f;
#X obj 139 222 f;
#X obj 163 222 f;
#X obj 187 222 f;
#X obj 211 222 f;
#X obj 235 222 f;
#X obj 259 222 f;
#X obj 283 222 f;
#X obj 307 222 f;
#X obj 331 222 f;
#X obj 355 222 f;
#X obj 379 222 f;
#X obj 403 222 f;
#X obj 427 222 f;
#X obj 451 222 f;
#X obj 475 222 f;
#X obj -6 170 t b b b b b b b b b b b b b b b b;
#X obj 5 315 outlet;
#X obj 47 315 outlet;
#X obj 89 315 outlet;
#X obj 131 315 outlet;
#X obj 173 315 outlet;
#X obj 215 315 outlet;
#X obj 257 315 outlet;
#X obj 299 315 outlet;
#X obj 341 315 outlet;
#X obj 383 315 outlet;
#X obj 425 315 outlet;
#X obj 467 315 outlet;
#X obj 509 315 outlet;
#X obj 551 315 outlet;
#X obj 593 315 outlet;
#X obj 635 315 outlet;
#X obj 297 72 loadbang;
#X obj 201 59 bng 15 250 50 0 empty empty empty 0 -6 0 10 #fcfcfc #000000
#000000;
#X msg 56 126 261.6;
#X msg 96 126 293.7;
#X msg 136 126 329.6;
#X msg 177 126 349.2;
#X msg 217 126 392;
#X msg 258 126 440;
#X msg 287 126 493.9;
#X msg 327 126 523.3;
#X msg 366 126 587.3;
#X msg 407 126 659.3;
#X msg 447 126 698.5;
#X msg 487 126 784;
#X msg 515 126 880;
#X msg 543 126 987.8;
#X msg 583 126 1047;
#X msg 623 126 1175;
#X connect 0 0 17 0;
#X connect 1 0 18 0;
#X connect 2 0 19 0;
#X connect 3 0 20 0;
#X connect 4 0 21 0;
#X connect 5 0 22 0;
#X connect 6 0 23 0;
#X connect 7 0 24 0;
#X connect 8 0 25 0;
#X connect 9 0 26 0;
#X connect 10 0 27 0;
#X connect 11 0 28 0;
#X connect 12 0 29 0;
#X connect 13 0 30 0;
#X connect 14 0 31 0;
#X connect 15 0 32 0;
#X connect 16 0 33 0;
#X connect 17 0 1 0;
#X connect 17 1 2 0;
#X connect 17 2 3 0;
#X connect 17 3 4 0;
#X connect 17 4 5 0;
#X connect 17 5 6 0;
#X connect 17 6 7 0;
#X connect 17 7 8 0;
#X connect 17 8 9 0;
#X connect 17 9 10 0;
#X connect 17 10 11 0;
#X connect 17 11 12 0;
#X connect 17 12 13 0;
#X connect 17 13 14 0;
#X connect 17 14 15 0;
#X connect 17 15 16 0;
#X connect 34 0 36 0;
#X connect 34 0 37 0;
#X connect 34 0 38 0;
#X connect 34 0 39 0;
#X connect 34 0 40 0;
#X connect 34 0 41 0;
#X connect 34 0 42 0;
#X connect 34 0 43 0;
#X connect 34 0 44 0;
#X connect 34 0 45 0;
#X connect 34 0 46 0;
#X connect 34 0 47 0;
#X connect 34 0 48 0;
#X connect 34 0 49 0;
#X connect 34 0 50 0;
#X connect 34 0 51 0;
#X connect 35 0 36 0;
#X connect 35 0 37 0;
#X connect 35 0 38 0;
#X connect 35 0 39 0;
#X connect 35 0 40 0;
#X connect 35 0 41 0;
#X connect 35 0 42 0;
#X connect 35 0 43 0;
#X connect 35 0 44 0;
#X connect 35 0 45 0;
#X connect 35 0 46 0;
#X connect 35 0 47 0;
#X connect 35 0 48 0;
#X connect 35 0 49 0;
#X connect 35 0 50 0;
#X connect 35 0 51 0;
#X connect 36 0 1 1;
#X connect 37 0 2 1;
#X connect 38 0 3 1;
#X connect 39 0 4 1;
#X connect 40 0 5 1;
#X connect 41 0 6 1;
#X connect 42 0 7 1;
#X connect 43 0 8 1;
#X connect 44 0 9 1;
#X connect 45 0 10 1;
#X connect 46 0 11 1;
#X connect 47 0 12 1;
#X connect 48 0 13 1;
#X connect 49 0 14 1;
#X connect 50 0 15 1;
#X connect 51 0 16 1;
#X restore 173 -10 pd 4cmaj;
#N canvas 622 130 748 506 2c#maj 0;
#X obj 83 26 inlet;
#X obj 115 222 f;
#X obj 139 222 f;
#X obj 163 222 f;
#X obj 187 222 f;
#X obj 211 222 f;
#X obj 235 222 f;
#X obj 259 222 f;
#X obj 283 222 f;
#X obj 307 222 f;
#X obj 331 222 f;
#X obj 355 222 f;
#X obj 379 222 f;
#X obj 403 222 f;
#X obj 427 222 f;
#X obj 451 222 f;
#X obj 475 222 f;
#X obj -6 170 t b b b b b b b b b b b b b b b b;
#X obj 5 315 outlet;
#X obj 47 315 outlet;
#X obj 89 315 outlet;
#X obj 131 315 outlet;
#X obj 173 315 outlet;
#X obj 215 315 outlet;
#X obj 257 315 outlet;
#X obj 299 315 outlet;
#X obj 341 315 outlet;
#X obj 383 315 outlet;
#X obj 425 315 outlet;
#X obj 467 315 outlet;
#X obj 509 315 outlet;
#X obj 551 315 outlet;
#X obj 593 315 outlet;
#X obj 635 315 outlet;
#X obj 297 72 loadbang;
#X obj 201 59 bng 15 250 50 0 empty empty empty 0 -6 0 10 #fcfcfc #000000
#000000;
#X msg 56 126 69.3;
#X msg 96 126 77.78;
#X msg 136 126 43.65;
#X msg 177 126 46.25;
#X msg 217 126 51.91;
#X msg 258 126 58.27;
#X msg 298 126 65.41;
#X msg 338 126 69.3;
#X msg 378 126 77.78;
#X msg 418 126 87.31;
#X msg 458 126 92.5;
#X msg 492 126 103.8;
#X msg 533 126 116.5;
#X msg 573 126 130.8;
#X msg 612 126 138.6;
#X msg 652 126 155.6;
#X connect 0 0 17 0;
#X connect 1 0 18 0;
#X connect 2 0 19 0;
#X connect 3 0 20 0;
#X connect 4 0 21 0;
#X connect 5 0 22 0;
#X connect 6 0 23 0;
#X connect 7 0 24 0;
#X connect 8 0 25 0;
#X connect 9 0 26 0;
#X connect 10 0 27 0;
#X connect 11 0 28 0;
#X connect 12 0 29 0;
#X connect 13 0 30 0;
#X connect 14 0 31 0;
#X connect 15 0 32 0;
#X connect 16 0 33 0;
#X connect 17 0 1 0;
#X connect 17 1 2 0;
#X connect 17 2 3 0;
#X connect 17 3 4 0;
#X connect 17 4 5 0;
#X connect 17 5 6 0;
#X connect 17 6 7 0;
#X connect 17 7 8 0;
#X connect 17 8 9 0;
#X connect 17 9 10 0;
#X connect 17 10 11 0;
#X connect 17 11 12 0;
#X connect 17 12 13 0;
#X connect 17 13 14 0;
#X connect 17 14 15 0;
#X connect 17 15 16 0;
#X connect 34 0 36 0;
#X connect 34 0 37 0;
#X connect 34 0 38 0;
#X connect 34 0 39 0;
#X connect 34 0 40 0;
#X connect 34 0 41 0;
#X connect 34 0 42 0;
#X connect 34 0 43 0;
#X connect 34 0 44 0;
#X connect 34 0 45 0;
#X connect 34 0 46 0;
#X connect 34 0 47 0;
#X connect 34 0 48 0;
#X connect 34 0 49 0;
#X connect 34 0 50 0;
#X connect 34 0 51 0;
#X connect 35 0 36 0;
#X connect 35 0 37 0;
#X connect 35 0 38 0;
#X connect 35 0 39 0;
#X connect 35 0 40 0;
#X connect 35 0 41 0;
#X connect 35 0 42 0;
#X connect 35 0 43 0;
#X connect 35 0 44 0;
#X connect 35 0 45 0;
#X connect 35 0 46 0;
#X connect 35 0 47 0;
#X connect 35 0 48 0;
#X connect 35 0 49 0;
#X connect 35 0 50 0;
#X connect 35 0 51 0;
#X connect 36 0 1 1;
#X connect 37 0 2 1;
#X connect 38 0 3 1;
#X connect 39 0 4 1;
#X connect 40 0 5 1;
#X connect 41 0 6 1;
#X connect 42 0 7 1;
#X connect 43 0 8 1;
#X connect 44 0 9 1;
#X connect 45 0 10 1;
#X connect 46 0 11 1;
#X connect 47 0 12 1;
#X connect 48 0 13 1;
#X connect 49 0 14 1;
#X connect 50 0 15 1;
#X connect 51 0 16 1;
#X restore 311 -11 pd 2c#maj;
#N canvas 0 50 756 514 1c#maj 0;
#X obj 83 26 inlet;
#X obj 115 222 f;
#X obj 139 222 f;
#X obj 163 222 f;
#X obj 187 222 f;
#X obj 211 222 f;
#X obj 235 222 f;
#X obj 259 222 f;
#X obj 283 222 f;
#X obj 307 222 f;
#X obj 331 222 f;
#X obj 355 222 f;
#X obj 379 222 f;
#X obj 403 222 f;
#X obj 427 222 f;
#X obj 451 222 f;
#X obj 475 222 f;
#X obj -6 170 t b b b b b b b b b b b b b b b b;
#X obj 5 315 outlet;
#X obj 47 315 outlet;
#X obj 89 315 outlet;
#X obj 131 315 outlet;
#X obj 173 315 outlet;
#X obj 215 315 outlet;
#X obj 257 315 outlet;
#X obj 299 315 outlet;
#X obj 341 315 outlet;
#X obj 383 315 outlet;
#X obj 425 315 outlet;
#X obj 467 315 outlet;
#X obj 509 315 outlet;
#X obj 551 315 outlet;
#X obj 593 315 outlet;
#X obj 635 315 outlet;
#X obj 334 24 loadbang;
#X obj 201 59 bng 15 250 50 0 empty empty empty 0 -6 0 10 #fcfcfc #000000
#000000;
#X msg 56 126 34.65;
#X msg 96 126 38.89;
#X msg 136 126 43.65;
#X msg 177 126 46.25;
#X msg 217 126 51.91;
#X msg 258 126 58.27;
#X msg 312 126 65.41;
#X msg 352 126 69.3;
#X msg 392 126 77.78;
#X msg 432 126 87.31;
#X msg 472 126 92.5;
#X msg 512 126 103.8;
#X msg 555 126 116.5;
#X msg 598 126 130.8;
#X msg 638 126 138.6;
#X msg 678 126 155.6;
#X connect 0 0 17 0;
#X connect 1 0 18 0;
#X connect 2 0 19 0;
#X connect 3 0 20 0;
#X connect 4 0 21 0;
#X connect 5 0 22 0;
#X connect 6 0 23 0;
#X connect 7 0 24 0;
#X connect 8 0 25 0;
#X connect 9 0 26 0;
#X connect 10 0 27 0;
#X connect 11 0 28 0;
#X connect 12 0 29 0;
#X connect 13 0 30 0;
#X connect 14 0 31 0;
#X connect 15 0 32 0;
#X connect 16 0 33 0;
#X connect 17 0 1 0;
#X connect 17 1 2 0;
#X connect 17 2 3 0;
#X connect 17 3 4 0;
#X connect 17 4 5 0;
#X connect 17 5 6 0;
#X connect 17 6 7 0;
#X connect 17 7 8 0;
#X connect 17 8 9 0;
#X connect 17 9 10 0;
#X connect 17 10 11 0;
#X connect 17 11 12 0;
#X connect 17 12 13 0;
#X connect 17 13 14 0;
#X connect 17 14 15 0;
#X connect 17 15 16 0;
#X connect 34 0 36 0;
#X connect 34 0 37 0;
#X connect 34 0 38 0;
#X connect 34 0 39 0;
#X connect 34 0 40 0;
#X connect 34 0 41 0;
#X connect 34 0 42 0;
#X connect 34 0 43 0;
#X connect 34 0 44 0;
#X connect 34 0 45 0;
#X connect 34 0 46 0;
#X connect 34 0 47 0;
#X connect 34 0 48 0;
#X connect 34 0 49 0;
#X connect 34 0 50 0;
#X connect 34 0 51 0;
#X connect 35 0 36 0;
#X connect 35 0 37 0;
#X connect 35 0 38 0;
#X connect 35 0 39 0;
#X connect 35 0 40 0;
#X connect 35 0 41 0;
#X connect 35 0 42 0;
#X connect 35 0 43 0;
#X connect 35 0 44 0;
#X connect 35 0 45 0;
#X connect 35 0 46 0;
#X connect 35 0 47 0;
#X connect 35 0 48 0;
#X connect 35 0 49 0;
#X connect 35 0 50 0;
#X connect 35 0 51 0;
#X connect 36 0 1 1;
#X connect 37 0 2 1;
#X connect 38 0 3 1;
#X connect 39 0 4 1;
#X connect 40 0 5 1;
#X connect 41 0 6 1;
#X connect 42 0 7 1;
#X connect 43 0 8 1;
#X connect 44 0 9 1;
#X connect 45 0 10 1;
#X connect 46 0 11 1;
#X connect 47 0 12 1;
#X connect 48 0 13 1;
#X connect 49 0 14 1;
#X connect 50 0 15 1;
#X connect 51 0 16 1;
#X restore 250 -10 pd 1c#maj;
#N canvas 0 50 744 502 3c#maj 0;
#X obj 83 26 inlet;
#X obj 115 222 f;
#X obj 139 222 f;
#X obj 163 222 f;
#X obj 187 222 f;
#X obj 211 222 f;
#X obj 235 222 f;
#X obj 259 222 f;
#X obj 283 222 f;
#X obj 307 222 f;
#X obj 331 222 f;
#X obj 355 222 f;
#X obj 379 222 f;
#X obj 403 222 f;
#X obj 427 222 f;
#X obj 451 222 f;
#X obj 475 222 f;
#X obj -6 170 t b b b b b b b b b b b b b b b b;
#X obj 5 315 outlet;
#X obj 47 315 outlet;
#X obj 89 315 outlet;
#X obj 131 315 outlet;
#X obj 173 315 outlet;
#X obj 215 315 outlet;
#X obj 257 315 outlet;
#X obj 299 315 outlet;
#X obj 341 315 outlet;
#X obj 383 315 outlet;
#X obj 425 315 outlet;
#X obj 467 315 outlet;
#X obj 509 315 outlet;
#X obj 551 315 outlet;
#X obj 593 315 outlet;
#X obj 635 315 outlet;
#X obj 297 72 loadbang;
#X obj 201 59 bng 15 250 50 0 empty empty empty 0 -6 0 10 #fcfcfc #000000
#000000;
#X msg 56 126 138.6;
#X msg 96 126 155.6;
#X msg 136 126 174.6;
#X msg 177 126 185;
#X msg 206 126 207.7;
#X msg 250 126 233.1;
#X msg 287 126 277.2;
#X msg 327 126 311.1;
#X msg 367 126 349.2;
#X msg 407 126 370;
#X msg 436 126 415.3;
#X msg 477 126 466.2;
#X msg 515 126 523.3;
#X msg 557 126 554.4;
#X msg 597 126 622.3;
#X msg 637 126 698.5;
#X connect 0 0 17 0;
#X connect 1 0 18 0;
#X connect 2 0 19 0;
#X connect 3 0 20 0;
#X connect 4 0 21 0;
#X connect 5 0 22 0;
#X connect 6 0 23 0;
#X connect 7 0 24 0;
#X connect 8 0 25 0;
#X connect 9 0 26 0;
#X connect 10 0 27 0;
#X connect 11 0 28 0;
#X connect 12 0 29 0;
#X connect 13 0 30 0;
#X connect 14 0 31 0;
#X connect 15 0 32 0;
#X connect 16 0 33 0;
#X connect 17 0 1 0;
#X connect 17 1 2 0;
#X connect 17 2 3 0;
#X connect 17 3 4 0;
#X connect 17 4 5 0;
#X connect 17 5 6 0;
#X connect 17 6 7 0;
#X connect 17 7 8 0;
#X connect 17 8 9 0;
#X connect 17 9 10 0;
#X connect 17 10 11 0;
#X connect 17 11 12 0;
#X connect 17 12 13 0;
#X connect 17 13 14 0;
#X connect 17 14 15 0;
#X connect 17 15 16 0;
#X connect 34 0 36 0;
#X connect 34 0 37 0;
#X connect 34 0 38 0;
#X connect 34 0 39 0;
#X connect 34 0 40 0;
#X connect 34 0 41 0;
#X connect 34 0 42 0;
#X connect 34 0 43 0;
#X connect 34 0 44 0;
#X connect 34 0 45 0;
#X connect 34 0 46 0;
#X connect 34 0 47 0;
#X connect 34 0 48 0;
#X connect 34 0 49 0;
#X connect 34 0 50 0;
#X connect 34 0 51 0;
#X connect 35 0 36 0;
#X connect 35 0 37 0;
#X connect 35 0 38 0;
#X connect 35 0 39 0;
#X connect 35 0 40 0;
#X connect 35 0 41 0;
#X connect 35 0 42 0;
#X connect 35 0 43 0;
#X connect 35 0 44 0;
#X connect 35 0 45 0;
#X connect 35 0 46 0;
#X connect 35 0 47 0;
#X connect 35 0 48 0;
#X connect 35 0 49 0;
#X connect 35 0 50 0;
#X connect 35 0 51 0;
#X connect 36 0 1 1;
#X connect 37 0 2 1;
#X connect 38 0 3 1;
#X connect 39 0 4 1;
#X connect 40 0 5 1;
#X connect 41 0 6 1;
#X connect 42 0 7 1;
#X connect 43 0 8 1;
#X connect 44 0 9 1;
#X connect 45 0 10 1;
#X connect 46 0 11 1;
#X connect 47 0 12 1;
#X connect 48 0 13 1;
#X connect 49 0 14 1;
#X connect 50 0 15 1;
#X connect 51 0 16 1;
#X restore 372 -11 pd 3c#maj;
#N canvas 0 50 740 498 4c#maj 0;
#X obj 83 26 inlet;
#X obj 115 222 f;
#X obj 139 222 f;
#X obj 163 222 f;
#X obj 187 222 f;
#X obj 211 222 f;
#X obj 235 222 f;
#X obj 259 222 f;
#X obj 283 222 f;
#X obj 307 222 f;
#X obj 331 222 f;
#X obj 355 222 f;
#X obj 379 222 f;
#X obj 403 222 f;
#X obj 427 222 f;
#X obj 451 222 f;
#X obj 475 222 f;
#X obj -6 170 t b b b b b b b b b b b b b b b b;
#X obj 5 315 outlet;
#X obj 47 315 outlet;
#X obj 89 315 outlet;
#X obj 131 315 outlet;
#X obj 173 315 outlet;
#X obj 215 315 outlet;
#X obj 257 315 outlet;
#X obj 299 315 outlet;
#X obj 341 315 outlet;
#X obj 383 315 outlet;
#X obj 425 315 outlet;
#X obj 467 315 outlet;
#X obj 509 315 outlet;
#X obj 551 315 outlet;
#X obj 593 315 outlet;
#X obj 635 315 outlet;
#X obj 297 72 loadbang;
#X obj 201 59 bng 15 250 50 0 empty empty empty 0 -6 0 10 #fcfcfc #000000
#000000;
#X msg 55 126 277.2;
#X msg 96 126 311.1;
#X msg 135 126 349.2;
#X msg 177 126 370;
#X msg 207 126 415.3;
#X msg 248 126 466.2;
#X msg 287 126 523.3;
#X msg 327 126 554.4;
#X msg 367 126 622.3;
#X msg 407 126 698.5;
#X msg 447 126 740;
#X msg 478 126 830.6;
#X msg 515 126 932.3;
#X msg 555 126 1047;
#X msg 595 126 1109;
#X msg 635 126 1245;
#X connect 0 0 17 0;
#X connect 1 0 18 0;
#X connect 2 0 19 0;
#X connect 3 0 20 0;
#X connect 4 0 21 0;
#X connect 5 0 22 0;
#X connect 6 0 23 0;
#X connect 7 0 24 0;
#X connect 8 0 25 0;
#X connect 9 0 26 0;
#X connect 10 0 27 0;
#X connect 11 0 28 0;
#X connect 12 0 29 0;
#X connect 13 0 30 0;
#X connect 14 0 31 0;
#X connect 15 0 32 0;
#X connect 16 0 33 0;
#X connect 17 0 1 0;
#X connect 17 1 2 0;
#X connect 17 2 3 0;
#X connect 17 3 4 0;
#X connect 17 4 5 0;
#X connect 17 5 6 0;
#X connect 17 6 7 0;
#X connect 17 7 8 0;
#X connect 17 8 9 0;
#X connect 17 9 10 0;
#X connect 17 10 11 0;
#X connect 17 11 12 0;
#X connect 17 12 13 0;
#X connect 17 13 14 0;
#X connect 17 14 15 0;
#X connect 17 15 16 0;
#X connect 34 0 36 0;
#X connect 34 0 37 0;
#X connect 34 0 38 0;
#X connect 34 0 39 0;
#X connect 34 0 40 0;
#X connect 34 0 41 0;
#X connect 34 0 42 0;
#X connect 34 0 43 0;
#X connect 34 0 44 0;
#X connect 34 0 45 0;
#X connect 34 0 46 0;
#X connect 34 0 47 0;
#X connect 34 0 48 0;
#X connect 34 0 49 0;
#X connect 34 0 50 0;
#X connect 34 0 51 0;
#X connect 35 0 36 0;
#X connect 35 0 37 0;
#X connect 35 0 38 0;
#X connect 35 0 39 0;
#X connect 35 0 40 0;
#X connect 35 0 41 0;
#X connect 35 0 42 0;
#X connect 35 0 43 0;
#X connect 35 0 44 0;
#X connect 35 0 45 0;
#X connect 35 0 46 0;
#X connect 35 0 47 0;
#X connect 35 0 48 0;
#X connect 35 0 49 0;
#X connect 35 0 50 0;
#X connect 35 0 51 0;
#X connect 36 0 1 1;
#X connect 37 0 2 1;
#X connect 38 0 3 1;
#X connect 39 0 4 1;
#X connect 40 0 5 1;
#X connect 41 0 6 1;
#X connect 42 0 7 1;
#X connect 43 0 8 1;
#X connect 44 0 9 1;
#X connect 45 0 10 1;
#X connect 46 0 11 1;
#X connect 47 0 12 1;
#X connect 48 0 13 1;
#X connect 49 0 14 1;
#X connect 50 0 15 1;
#X connect 51 0 16 1;
#X restore 433 -11 pd 4c#maj;
#X obj 682 316 outlet;
#X obj 729 316 outlet;
#X obj 778 316 outlet;
#X obj 825 316 outlet;
#N canvas 190 108 776 534 1cmaj 0;
#X obj 83 26 inlet;
#X obj 115 222 f;
#X obj 139 222 f;
#X obj 163 222 f;
#X obj 187 222 f;
#X obj 211 222 f;
#X obj 235 222 f;
#X obj 259 222 f;
#X obj 283 222 f;
#X obj 307 222 f;
#X obj 331 222 f;
#X obj 355 222 f;
#X obj 379 222 f;
#X obj 405 222 f;
#X obj 429 222 f;
#X obj 453 222 f;
#X obj 477 222 f;
#X obj 5 315 outlet;
#X obj 47 315 outlet;
#X obj 89 315 outlet;
#X obj 131 315 outlet;
#X obj 173 315 outlet;
#X obj 215 315 outlet;
#X obj 257 315 outlet;
#X obj 299 315 outlet;
#X obj 341 315 outlet;
#X obj 383 315 outlet;
#X obj 425 315 outlet;
#X obj 467 315 outlet;
#X obj 509 315 outlet;
#X obj 551 315 outlet;
#X obj 593 315 outlet;
#X obj 635 315 outlet;
#X msg 56 126 32.7;
#X msg 96 126 36.71;
#X msg 136 126 41.2;
#X msg 177 126 43.65;
#X msg 217 126 49;
#X msg 258 126 55;
#X msg 287 126 61.74;
#X msg 327 126 65.41;
#X msg 367 126 73.42;
#X msg 407 126 82.41;
#X msg 447 126 87.31;
#X msg 487 126 98;
#X msg 515 126 110;
#X msg 543 126 123.5;
#X msg 583 126 130.8;
#X msg 623 126 146.8;
#X obj 297 72 loadbang;
#X obj 201 59 bng 15 250 50 0 empty empty empty 0 -6 0 10 #fcfcfc #000000
#000000;
#X obj 682 314 outlet;
#X obj 724 314 outlet;
#X obj 766 314 outlet;
#X obj 808 314 outlet;
#X obj 503 222 f;
#X obj 527 222 f;
#X obj 551 222 f;
#X obj 575 222 f;
#X msg 666 126 110;
#X msg 694 126 123.5;
#X msg 734 126 130.8;
#X msg 774 126 146.8;
#X obj 72 166 t b b b b b b b b b b b b b b b b b b b b;
#X connect 0 0 63 0;
#X connect 1 0 17 0;
#X connect 2 0 18 0;
#X connect 3 0 19 0;
#X connect 4 0 20 0;
#X connect 5 0 21 0;
#X connect 6 0 22 0;
#X connect 7 0 23 0;
#X connect 8 0 24 0;
#X connect 9 0 25 0;
#X connect 10 0 26 0;
#X connect 11 0 27 0;
#X connect 12 0 28 0;
#X connect 13 0 29 0;
#X connect 14 0 30 0;
#X connect 15 0 31 0;
#X connect 16 0 32 0;
#X connect 33 0 1 1;
#X connect 34 0 2 1;
#X connect 35 0 3 1;
#X connect 36 0 4 1;
#X connect 37 0 5 1;
#X connect 38 0 6 1;
#X connect 39 0 7 1;
#X connect 40 0 8 1;
#X connect 41 0 9 1;
#X connect 42 0 10 1;
#X connect 43 0 11 1;
#X connect 44 0 12 1;
#X connect 45 0 13 1;
#X connect 46 0 14 1;
#X connect 47 0 15 1;
#X connect 48 0 16 1;
#X connect 49 0 33 0;
#X connect 49 0 34 0;
#X connect 49 0 35 0;
#X connect 49 0 36 0;
#X connect 49 0 37 0;
#X connect 49 0 38 0;
#X connect 49 0 39 0;
#X connect 49 0 40 0;
#X connect 49 0 41 0;
#X connect 49 0 42 0;
#X connect 49 0 43 0;
#X connect 49 0 44 0;
#X connect 49 0 45 0;
#X connect 49 0 46 0;
#X connect 49 0 47 0;
#X connect 49 0 48 0;
#X connect 50 0 33 0;
#X connect 50 0 34 0;
#X connect 50 0 35 0;
#X connect 50 0 36 0;
#X connect 50 0 37 0;
#X connect 50 0 38 0;
#X connect 50 0 39 0;
#X connect 50 0 40 0;
#X connect 50 0 41 0;
#X connect 50 0 42 0;
#X connect 50 0 43 0;
#X connect 50 0 44 0;
#X connect 50 0 45 0;
#X connect 50 0 46 0;
#X connect 50 0 47 0;
#X connect 50 0 48 0;
#X connect 55 0 51 0;
#X connect 56 0 52 0;
#X connect 57 0 53 0;
#X connect 58 0 54 0;
#X connect 59 0 55 1;
#X connect 60 0 56 1;
#X connect 61 0 57 1;
#X connect 62 0 58 1;
#X connect 63 0 1 0;
#X connect 63 1 2 0;
#X connect 63 2 3 0;
#X connect 63 3 4 0;
#X connect 63 4 5 0;
#X connect 63 5 6 0;
#X connect 63 6 7 0;
#X connect 63 7 8 0;
#X connect 63 8 9 0;
#X connect 63 9 10 0;
#X connect 63 10 11 0;
#X connect 63 11 12 0;
#X connect 63 12 13 0;
#X connect 63 13 14 0;
#X connect 63 14 15 0;
#X connect 63 15 16 0;
#X connect 63 16 55 0;
#X connect 63 17 56 0;
#X connect 63 18 57 0;
#X connect 63 19 58 0;
#X restore 5 -9 pd 1cmaj;
#X connect 0 0 43 0;
#X connect 1 0 32 0;
#X connect 18 0 33 0;
#X connect 19 0 34 0;
#X connect 20 0 36 0;
#X connect 21 0 35 0;
#X connect 22 0 37 0;
#X connect 23 0 38 0;
#X connect 32 0 2 0;
#X connect 32 1 3 0;
#X connect 32 2 4 0;
#X connect 32 3 5 0;
#X connect 32 4 6 0;
#X connect 32 5 7 0;
#X connect 32 6 8 0;
#X connect 32 7 9 0;
#X connect 32 8 10 0;
#X connect 32 9 11 0;
#X connect 32 10 12 0;
#X connect 32 11 13 0;
#X connect 32 12 14 0;
#X connect 32 13 15 0;
#X connect 32 14 16 0;
#X connect 32 15 17 0;
#X connect 33 0 2 0;
#X connect 33 1 3 0;
#X connect 33 2 4 0;
#X connect 33 3 5 0;
#X connect 33 4 6 0;
#X connect 33 5 7 0;
#X connect 33 6 8 0;
#X connect 33 7 9 0;
#X connect 33 8 10 0;
#X connect 33 9 11 0;
#X connect 33 10 12 0;
#X connect 33 11 13 0;
#X connect 33 12 14 0;
#X connect 33 13 15 0;
#X connect 33 14 16 0;
#X connect 33 15 17 0;
#X connect 34 0 2 0;
#X connect 34 1 3 0;
#X connect 34 2 4 0;
#X connect 34 3 5 0;
#X connect 34 4 6 0;
#X connect 34 5 7 0;
#X connect 34 6 8 0;
#X connect 34 7 9 0;
#X connect 34 8 10 0;
#X connect 34 9 11 0;
#X connect 34 10 12 0;
#X connect 34 11 13 0;
#X connect 34 12 14 0;
#X connect 34 13 15 0;
#X connect 34 14 16 0;
#X connect 34 15 17 0;
#X connect 35 0 2 0;
#X connect 35 1 3 0;
#X connect 35 2 4 0;
#X connect 35 3 5 0;
#X connect 35 4 6 0;
#X connect 35 5 7 0;
#X connect 35 6 8 0;
#X connect 35 7 9 0;
#X connect 35 8 10 0;
#X connect 35 9 11 0;
#X connect 35 10 12 0;
#X connect 35 11 13 0;
#X connect 35 12 14 0;
#X connect 35 13 15 0;
#X connect 35 14 16 0;
#X connect 35 15 17 0;
#X connect 36 0 2 0;
#X connect 36 1 3 0;
#X connect 36 2 4 0;
#X connect 36 3 5 0;
#X connect 36 4 6 0;
#X connect 36 5 7 0;
#X connect 36 6 8 0;
#X connect 36 7 9 0;
#X connect 36 8 10 0;
#X connect 36 9 11 0;
#X connect 36 10 12 0;
#X connect 36 11 13 0;
#X connect 36 12 14 0;
#X connect 36 13 15 0;
#X connect 36 14 16 0;
#X connect 36 15 17 0;
#X connect 37 0 2 0;
#X connect 37 1 3 0;
#X connect 37 2 4 0;
#X connect 37 3 5 0;
#X connect 37 4 6 0;
#X connect 37 5 7 0;
#X connect 37 6 8 0;
#X connect 37 7 9 0;
#X connect 37 8 10 0;
#X connect 37 9 11 0;
#X connect 37 10 12 0;
#X connect 37 11 13 0;
#X connect 37 12 14 0;
#X connect 37 13 15 0;
#X connect 37 14 16 0;
#X connect 37 15 17 0;
#X connect 38 0 2 0;
#X connect 38 1 3 0;
#X connect 38 2 4 0;
#X connect 38 3 5 0;
#X connect 38 4 6 0;
#X connect 38 5 7 0;
#X connect 38 6 8 0;
#X connect 38 7 9 0;
#X connect 38 8 10 0;
#X connect 38 9 11 0;
#X connect 38 10 12 0;
#X connect 38 11 13 0;
#X connect 38 12 14 0;
#X connect 38 13 15 0;
#X connect 38 14 16 0;
#X connect 38 15 17 0;
#X connect 43 0 2 0;
#X connect 43 1 3 0;
#X connect 43 2 4 0;
#X connect 43 3 5 0;
#X connect 43 4 6 0;
#X connect 43 5 7 0;
#X connect 43 6 8 0;
#X connect 43 7 9 0;
#X connect 43 8 10 0;
#X connect 43 9 11 0;
#X connect 43 10 12 0;
#X connect 43 11 13 0;
#X connect 43 12 14 0;
#X connect 43 13 15 0;
#X connect 43 14 16 0;
#X connect 43 15 17 0;
#X connect 43 16 39 0;
#X connect 43 17 40 0;
#X connect 43 18 41 0;
#X connect 43 19 42 0;
