#N canvas -316 266 1372 691 10;
#X obj -3 -49 inlet;
#X obj 33 -49 inlet;
#X obj 5 315 outlet;
#X obj 47 315 outlet;
#X obj 89 315 outlet;
#X obj 131 315 outlet;
#X obj 173 315 outlet;
#X obj 215 315 outlet;
#X obj 257 315 outlet;
#X obj 299 315 outlet;
#X obj 341 315 outlet;
#X obj 383 315 outlet;
#X obj 425 315 outlet;
#X obj 467 315 outlet;
#X obj 509 315 outlet;
#X obj 551 315 outlet;
#X obj 593 315 outlet;
#X obj 635 315 outlet;
#X obj 69 -49 inlet;
#X obj 105 -49 inlet;
#X obj 141 -49 inlet;
#X obj 177 -49 inlet;
#X obj 213 -49 inlet;
#X obj 249 -49 inlet;
#X obj 285 -49 inlet;
#X obj 321 -49 inlet;
#X obj 357 -49 inlet;
#X obj 393 -49 inlet;
#X obj 429 -49 inlet;
#X obj 465 -49 inlet;
#X obj 501 -49 inlet;
#X obj 537 -49 inlet;
#X obj 682 316 outlet;
#X obj 729 316 outlet;
#X obj 778 316 outlet;
#X obj 825 316 outlet;
#N canvas 0 0 667 709 1cmaj 0;
#X obj 83 26 inlet;
#X obj 114 241 f;
#X obj 138 241 f;
#X obj 162 241 f;
#X obj 186 241 f;
#X obj 210 241 f;
#X obj 234 241 f;
#X obj 258 241 f;
#X obj 282 241 f;
#X obj 306 241 f;
#X obj 330 241 f;
#X obj 354 241 f;
#X obj 378 241 f;
#X obj 404 241 f;
#X obj 428 241 f;
#X obj 452 241 f;
#X obj 476 241 f;
#X obj 5 315 outlet;
#X obj 47 315 outlet;
#X obj 89 315 outlet;
#X obj 131 315 outlet;
#X obj 173 315 outlet;
#X obj 215 315 outlet;
#X obj 257 315 outlet;
#X obj 299 315 outlet;
#X obj 341 315 outlet;
#X obj 383 315 outlet;
#X obj 425 315 outlet;
#X obj 467 315 outlet;
#X obj 509 315 outlet;
#X obj 551 315 outlet;
#X obj 593 315 outlet;
#X obj 635 315 outlet;
#X msg 515 126 110;
#X msg 543 126 123.5;
#X obj 438 54 loadbang;
#X obj 201 59 bng 15 250 50 0 empty empty empty 0 -6 0 10 -262144 -1
-1;
#X obj 682 314 outlet;
#X obj 724 314 outlet;
#X obj 766 314 outlet;
#X obj 808 314 outlet;
#X obj 502 241 f;
#X obj 526 241 f;
#X obj 550 241 f;
#X obj 574 241 f;
#X msg 666 126 110;
#X msg 734 126 130.8;
#X obj 72 166 t b b b b b b b b b b b b b b b b b b b b;
#X msg 217 126 0;
#X msg 327 126 0;
#X msg 367 126 100;
#X msg 407 126 0;
#X msg 447 126 105;
#X msg 487 126 0;
#X msg 583 126 125;
#X msg 623 126 100;
#X msg 694 126 0;
#X msg 774 126 150;
#X msg 258 126 133;
#X msg 287 126 135;
#X msg 56 126 0;
#X msg 96 126 100;
#X msg 177 126 0;
#X msg 136 126 127.716;
#X connect 0 0 47 0;
#X connect 1 0 17 0;
#X connect 2 0 18 0;
#X connect 3 0 19 0;
#X connect 4 0 20 0;
#X connect 5 0 21 0;
#X connect 6 0 22 0;
#X connect 7 0 23 0;
#X connect 8 0 24 0;
#X connect 9 0 25 0;
#X connect 10 0 26 0;
#X connect 11 0 27 0;
#X connect 12 0 28 0;
#X connect 13 0 29 0;
#X connect 14 0 30 0;
#X connect 15 0 31 0;
#X connect 16 0 32 0;
#X connect 33 0 13 1;
#X connect 34 0 14 1;
#X connect 35 0 60 0;
#X connect 35 0 61 0;
#X connect 35 0 63 0;
#X connect 35 0 62 0;
#X connect 35 0 48 0;
#X connect 35 0 58 0;
#X connect 35 0 59 0;
#X connect 35 0 49 0;
#X connect 35 0 50 0;
#X connect 35 0 51 0;
#X connect 35 0 52 0;
#X connect 35 0 53 0;
#X connect 35 0 33 0;
#X connect 35 0 34 0;
#X connect 35 0 54 0;
#X connect 35 0 55 0;
#X connect 35 0 45 0;
#X connect 35 0 56 0;
#X connect 35 0 46 0;
#X connect 35 0 57 0;
#X connect 36 0 60 0;
#X connect 36 0 61 0;
#X connect 36 0 63 0;
#X connect 36 0 62 0;
#X connect 36 0 48 0;
#X connect 36 0 58 0;
#X connect 36 0 59 0;
#X connect 36 0 49 0;
#X connect 36 0 50 0;
#X connect 36 0 51 0;
#X connect 36 0 52 0;
#X connect 36 0 53 0;
#X connect 36 0 33 0;
#X connect 36 0 34 0;
#X connect 36 0 54 0;
#X connect 36 0 55 0;
#X connect 36 0 45 0;
#X connect 36 0 56 0;
#X connect 36 0 46 0;
#X connect 36 0 57 0;
#X connect 41 0 37 0;
#X connect 42 0 38 0;
#X connect 43 0 39 0;
#X connect 44 0 40 0;
#X connect 45 0 41 1;
#X connect 46 0 43 1;
#X connect 47 0 1 0;
#X connect 47 1 2 0;
#X connect 47 2 3 0;
#X connect 47 3 4 0;
#X connect 47 4 5 0;
#X connect 47 5 6 0;
#X connect 47 6 7 0;
#X connect 47 7 8 0;
#X connect 47 8 9 0;
#X connect 47 9 10 0;
#X connect 47 10 11 0;
#X connect 47 11 12 0;
#X connect 47 12 13 0;
#X connect 47 13 14 0;
#X connect 47 14 15 0;
#X connect 47 15 16 0;
#X connect 47 16 41 0;
#X connect 47 17 42 0;
#X connect 47 18 43 0;
#X connect 47 19 44 0;
#X connect 48 0 5 1;
#X connect 49 0 8 1;
#X connect 50 0 9 1;
#X connect 51 0 10 1;
#X connect 52 0 11 1;
#X connect 53 0 12 1;
#X connect 54 0 15 1;
#X connect 55 0 16 1;
#X connect 56 0 42 1;
#X connect 57 0 44 1;
#X connect 58 0 6 1;
#X connect 59 0 7 1;
#X connect 60 0 1 1;
#X connect 61 0 2 1;
#X connect 62 0 4 1;
#X connect 63 0 3 1;
#X restore 5 -9 pd 1cmaj;
#N canvas 0 50 776 534 1cmaj 0;
#X obj 83 26 inlet;
#X obj 114 241 f;
#X obj 138 241 f;
#X obj 162 241 f;
#X obj 186 241 f;
#X obj 210 241 f;
#X obj 234 241 f;
#X obj 258 241 f;
#X obj 282 241 f;
#X obj 306 241 f;
#X obj 330 241 f;
#X obj 354 241 f;
#X obj 378 241 f;
#X obj 404 241 f;
#X obj 428 241 f;
#X obj 452 241 f;
#X obj 476 241 f;
#X obj 5 315 outlet;
#X obj 47 315 outlet;
#X obj 89 315 outlet;
#X obj 131 315 outlet;
#X obj 173 315 outlet;
#X obj 215 315 outlet;
#X obj 257 315 outlet;
#X obj 299 315 outlet;
#X obj 341 315 outlet;
#X obj 383 315 outlet;
#X obj 425 315 outlet;
#X obj 467 315 outlet;
#X obj 509 315 outlet;
#X obj 551 315 outlet;
#X obj 593 315 outlet;
#X obj 635 315 outlet;
#X msg 515 126 110;
#X msg 543 126 123.5;
#X obj 438 54 loadbang;
#X obj 201 59 bng 15 250 50 0 empty empty empty 0 -6 0 10 -262144 -1
-1;
#X obj 682 314 outlet;
#X obj 724 314 outlet;
#X obj 766 314 outlet;
#X obj 808 314 outlet;
#X obj 502 241 f;
#X obj 526 241 f;
#X obj 550 241 f;
#X obj 574 241 f;
#X msg 666 126 110;
#X msg 734 126 130.8;
#X obj 72 166 t b b b b b b b b b b b b b b b b b b b b;
#X msg 96 126 0;
#X msg 56 126 100;
#X msg 136 126 205;
#X msg 217 126 0;
#X msg 327 126 0;
#X msg 367 126 100;
#X msg 407 126 0;
#X msg 447 126 105;
#X msg 487 126 0;
#X msg 583 126 125;
#X msg 623 126 100;
#X msg 694 126 0;
#X msg 774 126 150;
#X msg 177 126 150;
#X msg 258 126 133;
#X msg 287 126 135;
#X connect 0 0 47 0;
#X connect 1 0 17 0;
#X connect 2 0 18 0;
#X connect 3 0 19 0;
#X connect 4 0 20 0;
#X connect 5 0 21 0;
#X connect 6 0 22 0;
#X connect 7 0 23 0;
#X connect 8 0 24 0;
#X connect 9 0 25 0;
#X connect 10 0 26 0;
#X connect 11 0 27 0;
#X connect 12 0 28 0;
#X connect 13 0 29 0;
#X connect 14 0 30 0;
#X connect 15 0 31 0;
#X connect 16 0 32 0;
#X connect 33 0 13 1;
#X connect 34 0 14 1;
#X connect 35 0 49 0;
#X connect 35 0 48 0;
#X connect 35 0 50 0;
#X connect 35 0 61 0;
#X connect 35 0 51 0;
#X connect 35 0 62 0;
#X connect 35 0 63 0;
#X connect 35 0 52 0;
#X connect 35 0 53 0;
#X connect 35 0 54 0;
#X connect 35 0 55 0;
#X connect 35 0 56 0;
#X connect 35 0 33 0;
#X connect 35 0 34 0;
#X connect 35 0 57 0;
#X connect 35 0 58 0;
#X connect 35 0 45 0;
#X connect 35 0 59 0;
#X connect 35 0 46 0;
#X connect 35 0 60 0;
#X connect 36 0 49 0;
#X connect 36 0 48 0;
#X connect 36 0 50 0;
#X connect 36 0 61 0;
#X connect 36 0 51 0;
#X connect 36 0 62 0;
#X connect 36 0 63 0;
#X connect 36 0 52 0;
#X connect 36 0 53 0;
#X connect 36 0 54 0;
#X connect 36 0 55 0;
#X connect 36 0 56 0;
#X connect 36 0 33 0;
#X connect 36 0 34 0;
#X connect 36 0 57 0;
#X connect 36 0 58 0;
#X connect 36 0 45 0;
#X connect 36 0 59 0;
#X connect 36 0 46 0;
#X connect 36 0 60 0;
#X connect 41 0 37 0;
#X connect 42 0 38 0;
#X connect 43 0 39 0;
#X connect 44 0 40 0;
#X connect 45 0 41 1;
#X connect 46 0 43 1;
#X connect 47 0 1 0;
#X connect 47 1 2 0;
#X connect 47 2 3 0;
#X connect 47 3 4 0;
#X connect 47 4 5 0;
#X connect 47 5 6 0;
#X connect 47 6 7 0;
#X connect 47 7 8 0;
#X connect 47 8 9 0;
#X connect 47 9 10 0;
#X connect 47 10 11 0;
#X connect 47 11 12 0;
#X connect 47 12 13 0;
#X connect 47 13 14 0;
#X connect 47 14 15 0;
#X connect 47 15 16 0;
#X connect 47 16 41 0;
#X connect 47 17 42 0;
#X connect 47 18 43 0;
#X connect 47 19 44 0;
#X connect 48 0 2 1;
#X connect 49 0 1 1;
#X connect 50 0 3 1;
#X connect 51 0 5 1;
#X connect 52 0 8 1;
#X connect 53 0 9 1;
#X connect 54 0 10 1;
#X connect 55 0 11 1;
#X connect 56 0 12 1;
#X connect 57 0 15 1;
#X connect 58 0 16 1;
#X connect 59 0 42 1;
#X connect 60 0 44 1;
#X connect 61 0 4 1;
#X connect 62 0 6 1;
#X connect 63 0 7 1;
#X restore 132 1 pd 1cmaj;
#N canvas 0 50 776 534 1cmaj 0;
#X obj 83 26 inlet;
#X obj 114 241 f;
#X obj 138 241 f;
#X obj 162 241 f;
#X obj 186 241 f;
#X obj 210 241 f;
#X obj 234 241 f;
#X obj 258 241 f;
#X obj 282 241 f;
#X obj 306 241 f;
#X obj 330 241 f;
#X obj 354 241 f;
#X obj 378 241 f;
#X obj 404 241 f;
#X obj 428 241 f;
#X obj 452 241 f;
#X obj 476 241 f;
#X obj 5 315 outlet;
#X obj 47 315 outlet;
#X obj 89 315 outlet;
#X obj 131 315 outlet;
#X obj 173 315 outlet;
#X obj 215 315 outlet;
#X obj 257 315 outlet;
#X obj 299 315 outlet;
#X obj 341 315 outlet;
#X obj 383 315 outlet;
#X obj 425 315 outlet;
#X obj 467 315 outlet;
#X obj 509 315 outlet;
#X obj 551 315 outlet;
#X obj 593 315 outlet;
#X obj 635 315 outlet;
#X msg 515 126 110;
#X msg 543 126 123.5;
#X obj 438 54 loadbang;
#X obj 201 59 bng 15 250 50 0 empty empty empty 0 -6 0 10 -262144 -1
-1;
#X obj 682 314 outlet;
#X obj 724 314 outlet;
#X obj 766 314 outlet;
#X obj 808 314 outlet;
#X obj 502 241 f;
#X obj 526 241 f;
#X obj 550 241 f;
#X obj 574 241 f;
#X msg 666 126 110;
#X msg 734 126 130.8;
#X obj 72 166 t b b b b b b b b b b b b b b b b b b b b;
#X msg 96 126 0;
#X msg 56 126 100;
#X msg 136 126 205;
#X msg 217 126 0;
#X msg 327 126 0;
#X msg 367 126 100;
#X msg 407 126 0;
#X msg 447 126 105;
#X msg 487 126 0;
#X msg 583 126 125;
#X msg 623 126 100;
#X msg 694 126 0;
#X msg 774 126 150;
#X msg 177 126 150;
#X msg 258 126 133;
#X msg 287 126 135;
#X connect 0 0 47 0;
#X connect 1 0 17 0;
#X connect 2 0 18 0;
#X connect 3 0 19 0;
#X connect 4 0 20 0;
#X connect 5 0 21 0;
#X connect 6 0 22 0;
#X connect 7 0 23 0;
#X connect 8 0 24 0;
#X connect 9 0 25 0;
#X connect 10 0 26 0;
#X connect 11 0 27 0;
#X connect 12 0 28 0;
#X connect 13 0 29 0;
#X connect 14 0 30 0;
#X connect 15 0 31 0;
#X connect 16 0 32 0;
#X connect 33 0 13 1;
#X connect 34 0 14 1;
#X connect 35 0 49 0;
#X connect 35 0 48 0;
#X connect 35 0 50 0;
#X connect 35 0 61 0;
#X connect 35 0 51 0;
#X connect 35 0 62 0;
#X connect 35 0 63 0;
#X connect 35 0 52 0;
#X connect 35 0 53 0;
#X connect 35 0 54 0;
#X connect 35 0 55 0;
#X connect 35 0 56 0;
#X connect 35 0 33 0;
#X connect 35 0 34 0;
#X connect 35 0 57 0;
#X connect 35 0 58 0;
#X connect 35 0 45 0;
#X connect 35 0 59 0;
#X connect 35 0 46 0;
#X connect 35 0 60 0;
#X connect 36 0 49 0;
#X connect 36 0 48 0;
#X connect 36 0 50 0;
#X connect 36 0 61 0;
#X connect 36 0 51 0;
#X connect 36 0 62 0;
#X connect 36 0 63 0;
#X connect 36 0 52 0;
#X connect 36 0 53 0;
#X connect 36 0 54 0;
#X connect 36 0 55 0;
#X connect 36 0 56 0;
#X connect 36 0 33 0;
#X connect 36 0 34 0;
#X connect 36 0 57 0;
#X connect 36 0 58 0;
#X connect 36 0 45 0;
#X connect 36 0 59 0;
#X connect 36 0 46 0;
#X connect 36 0 60 0;
#X connect 41 0 37 0;
#X connect 42 0 38 0;
#X connect 43 0 39 0;
#X connect 44 0 40 0;
#X connect 45 0 41 1;
#X connect 46 0 43 1;
#X connect 47 0 1 0;
#X connect 47 1 2 0;
#X connect 47 2 3 0;
#X connect 47 3 4 0;
#X connect 47 4 5 0;
#X connect 47 5 6 0;
#X connect 47 6 7 0;
#X connect 47 7 8 0;
#X connect 47 8 9 0;
#X connect 47 9 10 0;
#X connect 47 10 11 0;
#X connect 47 11 12 0;
#X connect 47 12 13 0;
#X connect 47 13 14 0;
#X connect 47 14 15 0;
#X connect 47 15 16 0;
#X connect 47 16 41 0;
#X connect 47 17 42 0;
#X connect 47 18 43 0;
#X connect 47 19 44 0;
#X connect 48 0 2 1;
#X connect 49 0 1 1;
#X connect 50 0 3 1;
#X connect 51 0 5 1;
#X connect 52 0 8 1;
#X connect 53 0 9 1;
#X connect 54 0 10 1;
#X connect 55 0 11 1;
#X connect 56 0 12 1;
#X connect 57 0 15 1;
#X connect 58 0 16 1;
#X connect 59 0 42 1;
#X connect 60 0 44 1;
#X connect 61 0 4 1;
#X connect 62 0 6 1;
#X connect 63 0 7 1;
#X restore 602 -4 pd 1cmaj;
#N canvas 0 50 776 534 1cmaj 0;
#X obj 83 26 inlet;
#X obj 114 241 f;
#X obj 138 241 f;
#X obj 162 241 f;
#X obj 186 241 f;
#X obj 210 241 f;
#X obj 234 241 f;
#X obj 258 241 f;
#X obj 282 241 f;
#X obj 306 241 f;
#X obj 330 241 f;
#X obj 354 241 f;
#X obj 378 241 f;
#X obj 404 241 f;
#X obj 428 241 f;
#X obj 452 241 f;
#X obj 476 241 f;
#X obj 5 315 outlet;
#X obj 47 315 outlet;
#X obj 89 315 outlet;
#X obj 131 315 outlet;
#X obj 173 315 outlet;
#X obj 215 315 outlet;
#X obj 257 315 outlet;
#X obj 299 315 outlet;
#X obj 341 315 outlet;
#X obj 383 315 outlet;
#X obj 425 315 outlet;
#X obj 467 315 outlet;
#X obj 509 315 outlet;
#X obj 551 315 outlet;
#X obj 593 315 outlet;
#X obj 635 315 outlet;
#X msg 515 126 110;
#X msg 543 126 123.5;
#X obj 438 54 loadbang;
#X obj 201 59 bng 15 250 50 0 empty empty empty 0 -6 0 10 -262144 -1
-1;
#X obj 682 314 outlet;
#X obj 724 314 outlet;
#X obj 766 314 outlet;
#X obj 808 314 outlet;
#X obj 502 241 f;
#X obj 526 241 f;
#X obj 550 241 f;
#X obj 574 241 f;
#X msg 666 126 110;
#X msg 734 126 130.8;
#X obj 72 166 t b b b b b b b b b b b b b b b b b b b b;
#X msg 96 126 0;
#X msg 56 126 100;
#X msg 136 126 205;
#X msg 217 126 0;
#X msg 327 126 0;
#X msg 367 126 100;
#X msg 407 126 0;
#X msg 447 126 105;
#X msg 487 126 0;
#X msg 583 126 125;
#X msg 623 126 100;
#X msg 694 126 0;
#X msg 774 126 150;
#X msg 177 126 150;
#X msg 258 126 133;
#X msg 287 126 135;
#X connect 0 0 47 0;
#X connect 1 0 17 0;
#X connect 2 0 18 0;
#X connect 3 0 19 0;
#X connect 4 0 20 0;
#X connect 5 0 21 0;
#X connect 6 0 22 0;
#X connect 7 0 23 0;
#X connect 8 0 24 0;
#X connect 9 0 25 0;
#X connect 10 0 26 0;
#X connect 11 0 27 0;
#X connect 12 0 28 0;
#X connect 13 0 29 0;
#X connect 14 0 30 0;
#X connect 15 0 31 0;
#X connect 16 0 32 0;
#X connect 33 0 13 1;
#X connect 34 0 14 1;
#X connect 35 0 49 0;
#X connect 35 0 48 0;
#X connect 35 0 50 0;
#X connect 35 0 61 0;
#X connect 35 0 51 0;
#X connect 35 0 62 0;
#X connect 35 0 63 0;
#X connect 35 0 52 0;
#X connect 35 0 53 0;
#X connect 35 0 54 0;
#X connect 35 0 55 0;
#X connect 35 0 56 0;
#X connect 35 0 33 0;
#X connect 35 0 34 0;
#X connect 35 0 57 0;
#X connect 35 0 58 0;
#X connect 35 0 45 0;
#X connect 35 0 59 0;
#X connect 35 0 46 0;
#X connect 35 0 60 0;
#X connect 36 0 49 0;
#X connect 36 0 48 0;
#X connect 36 0 50 0;
#X connect 36 0 61 0;
#X connect 36 0 51 0;
#X connect 36 0 62 0;
#X connect 36 0 63 0;
#X connect 36 0 52 0;
#X connect 36 0 53 0;
#X connect 36 0 54 0;
#X connect 36 0 55 0;
#X connect 36 0 56 0;
#X connect 36 0 33 0;
#X connect 36 0 34 0;
#X connect 36 0 57 0;
#X connect 36 0 58 0;
#X connect 36 0 45 0;
#X connect 36 0 59 0;
#X connect 36 0 46 0;
#X connect 36 0 60 0;
#X connect 41 0 37 0;
#X connect 42 0 38 0;
#X connect 43 0 39 0;
#X connect 44 0 40 0;
#X connect 45 0 41 1;
#X connect 46 0 43 1;
#X connect 47 0 1 0;
#X connect 47 1 2 0;
#X connect 47 2 3 0;
#X connect 47 3 4 0;
#X connect 47 4 5 0;
#X connect 47 5 6 0;
#X connect 47 6 7 0;
#X connect 47 7 8 0;
#X connect 47 8 9 0;
#X connect 47 9 10 0;
#X connect 47 10 11 0;
#X connect 47 11 12 0;
#X connect 47 12 13 0;
#X connect 47 13 14 0;
#X connect 47 14 15 0;
#X connect 47 15 16 0;
#X connect 47 16 41 0;
#X connect 47 17 42 0;
#X connect 47 18 43 0;
#X connect 47 19 44 0;
#X connect 48 0 2 1;
#X connect 49 0 1 1;
#X connect 50 0 3 1;
#X connect 51 0 5 1;
#X connect 52 0 8 1;
#X connect 53 0 9 1;
#X connect 54 0 10 1;
#X connect 55 0 11 1;
#X connect 56 0 12 1;
#X connect 57 0 15 1;
#X connect 58 0 16 1;
#X connect 59 0 42 1;
#X connect 60 0 44 1;
#X connect 61 0 4 1;
#X connect 62 0 6 1;
#X connect 63 0 7 1;
#X restore 680 -2 pd 1cmaj;
#N canvas 0 50 776 534 1cmaj 0;
#X obj 83 26 inlet;
#X obj 114 241 f;
#X obj 138 241 f;
#X obj 162 241 f;
#X obj 186 241 f;
#X obj 210 241 f;
#X obj 234 241 f;
#X obj 258 241 f;
#X obj 282 241 f;
#X obj 306 241 f;
#X obj 330 241 f;
#X obj 354 241 f;
#X obj 378 241 f;
#X obj 404 241 f;
#X obj 428 241 f;
#X obj 452 241 f;
#X obj 476 241 f;
#X obj 5 315 outlet;
#X obj 47 315 outlet;
#X obj 89 315 outlet;
#X obj 131 315 outlet;
#X obj 173 315 outlet;
#X obj 215 315 outlet;
#X obj 257 315 outlet;
#X obj 299 315 outlet;
#X obj 341 315 outlet;
#X obj 383 315 outlet;
#X obj 425 315 outlet;
#X obj 467 315 outlet;
#X obj 509 315 outlet;
#X obj 551 315 outlet;
#X obj 593 315 outlet;
#X obj 635 315 outlet;
#X msg 515 126 110;
#X msg 543 126 123.5;
#X obj 438 54 loadbang;
#X obj 201 59 bng 15 250 50 0 empty empty empty 0 -6 0 10 -262144 -1
-1;
#X obj 682 314 outlet;
#X obj 724 314 outlet;
#X obj 766 314 outlet;
#X obj 808 314 outlet;
#X obj 502 241 f;
#X obj 526 241 f;
#X obj 550 241 f;
#X obj 574 241 f;
#X msg 666 126 110;
#X msg 734 126 130.8;
#X obj 72 166 t b b b b b b b b b b b b b b b b b b b b;
#X msg 96 126 0;
#X msg 56 126 100;
#X msg 136 126 205;
#X msg 217 126 0;
#X msg 327 126 0;
#X msg 367 126 100;
#X msg 407 126 0;
#X msg 447 126 105;
#X msg 487 126 0;
#X msg 583 126 125;
#X msg 623 126 100;
#X msg 694 126 0;
#X msg 774 126 150;
#X msg 177 126 150;
#X msg 258 126 133;
#X msg 287 126 135;
#X connect 0 0 47 0;
#X connect 1 0 17 0;
#X connect 2 0 18 0;
#X connect 3 0 19 0;
#X connect 4 0 20 0;
#X connect 5 0 21 0;
#X connect 6 0 22 0;
#X connect 7 0 23 0;
#X connect 8 0 24 0;
#X connect 9 0 25 0;
#X connect 10 0 26 0;
#X connect 11 0 27 0;
#X connect 12 0 28 0;
#X connect 13 0 29 0;
#X connect 14 0 30 0;
#X connect 15 0 31 0;
#X connect 16 0 32 0;
#X connect 33 0 13 1;
#X connect 34 0 14 1;
#X connect 35 0 49 0;
#X connect 35 0 48 0;
#X connect 35 0 50 0;
#X connect 35 0 61 0;
#X connect 35 0 51 0;
#X connect 35 0 62 0;
#X connect 35 0 63 0;
#X connect 35 0 52 0;
#X connect 35 0 53 0;
#X connect 35 0 54 0;
#X connect 35 0 55 0;
#X connect 35 0 56 0;
#X connect 35 0 33 0;
#X connect 35 0 34 0;
#X connect 35 0 57 0;
#X connect 35 0 58 0;
#X connect 35 0 45 0;
#X connect 35 0 59 0;
#X connect 35 0 46 0;
#X connect 35 0 60 0;
#X connect 36 0 49 0;
#X connect 36 0 48 0;
#X connect 36 0 50 0;
#X connect 36 0 61 0;
#X connect 36 0 51 0;
#X connect 36 0 62 0;
#X connect 36 0 63 0;
#X connect 36 0 52 0;
#X connect 36 0 53 0;
#X connect 36 0 54 0;
#X connect 36 0 55 0;
#X connect 36 0 56 0;
#X connect 36 0 33 0;
#X connect 36 0 34 0;
#X connect 36 0 57 0;
#X connect 36 0 58 0;
#X connect 36 0 45 0;
#X connect 36 0 59 0;
#X connect 36 0 46 0;
#X connect 36 0 60 0;
#X connect 41 0 37 0;
#X connect 42 0 38 0;
#X connect 43 0 39 0;
#X connect 44 0 40 0;
#X connect 45 0 41 1;
#X connect 46 0 43 1;
#X connect 47 0 1 0;
#X connect 47 1 2 0;
#X connect 47 2 3 0;
#X connect 47 3 4 0;
#X connect 47 4 5 0;
#X connect 47 5 6 0;
#X connect 47 6 7 0;
#X connect 47 7 8 0;
#X connect 47 8 9 0;
#X connect 47 9 10 0;
#X connect 47 10 11 0;
#X connect 47 11 12 0;
#X connect 47 12 13 0;
#X connect 47 13 14 0;
#X connect 47 14 15 0;
#X connect 47 15 16 0;
#X connect 47 16 41 0;
#X connect 47 17 42 0;
#X connect 47 18 43 0;
#X connect 47 19 44 0;
#X connect 48 0 2 1;
#X connect 49 0 1 1;
#X connect 50 0 3 1;
#X connect 51 0 5 1;
#X connect 52 0 8 1;
#X connect 53 0 9 1;
#X connect 54 0 10 1;
#X connect 55 0 11 1;
#X connect 56 0 12 1;
#X connect 57 0 15 1;
#X connect 58 0 16 1;
#X connect 59 0 42 1;
#X connect 60 0 44 1;
#X connect 61 0 4 1;
#X connect 62 0 6 1;
#X connect 63 0 7 1;
#X restore 755 -2 pd 1cmaj;
#X connect 0 0 36 0;
#X connect 1 0 37 0;
#X connect 36 0 2 0;
#X connect 36 1 3 0;
#X connect 36 2 4 0;
#X connect 36 3 5 0;
#X connect 36 4 6 0;
#X connect 36 5 7 0;
#X connect 36 6 8 0;
#X connect 36 7 9 0;
#X connect 36 8 10 0;
#X connect 36 9 11 0;
#X connect 36 10 12 0;
#X connect 36 11 13 0;
#X connect 36 12 14 0;
#X connect 36 13 15 0;
#X connect 36 14 16 0;
#X connect 36 15 17 0;
#X connect 36 16 32 0;
#X connect 36 17 33 0;
#X connect 36 18 34 0;
#X connect 36 19 35 0;
