#N canvas 1347 78 1366 725 10;
#X obj 272 682 select 0 1 2 3 4 5 6 7 8 9 10 11 12 13 14 15;
#X obj 119 134 bng 15 250 50 0 empty empty empty 17 7 0 10 -4160 -1
-1;
#X obj 136 134 bng 15 250 50 0 empty empty empty 17 7 0 10 -262144
-1 -1;
#X obj 153 134 bng 15 250 50 0 empty empty empty 17 7 0 10 -258113
-1 -1;
#X obj 170 134 bng 15 250 50 0 empty empty empty 17 7 0 10 -262144
-1 -1;
#X obj 187 134 bng 15 250 50 0 empty empty empty 17 7 0 10 -258113
-1 -1;
#X obj 204 134 bng 15 250 50 0 empty empty empty 17 7 0 10 -262144
-1 -1;
#X obj 221 134 bng 15 250 50 0 empty empty empty 17 7 0 10 -258113
-1 -1;
#X obj 238 134 bng 15 250 50 0 empty empty empty 17 7 0 10 -262144
-1 -1;
#X obj 255 134 bng 15 250 50 0 empty empty empty 17 7 0 10 -4160 -1
-1;
#X obj 272 134 bng 15 250 50 0 empty empty empty 17 7 0 10 -262144
-1 -1;
#X obj 289 134 bng 15 250 50 0 empty empty empty 17 7 0 10 -258113
-1 -1;
#X obj 306 134 bng 15 250 50 0 empty empty empty 17 7 0 10 -262144
-1 -1;
#X obj 323 134 bng 15 250 50 0 empty empty empty 17 7 0 10 -258113
-1 -1;
#X obj 340 134 bng 15 250 50 0 empty empty empty 17 7 0 10 -262144
-1 -1;
#X obj 357 134 bng 15 250 50 0 empty empty empty 17 7 0 10 -258113
-1 -1;
#X obj 374 134 bng 15 250 50 0 empty empty empty 17 7 0 10 -262144
-1 -1;
#X obj 315 610 spigot;
#X obj 363 610 spigot;
#X obj 411 610 spigot;
#X obj 459 610 spigot;
#X obj 507 610 spigot;
#X obj 555 610 spigot;
#X obj 603 610 spigot;
#X obj 651 610 spigot;
#X obj 315 631 spigot;
#X obj 363 631 spigot;
#X obj 411 631 spigot;
#X obj 459 631 spigot;
#X obj 507 631 spigot;
#X obj 555 631 spigot;
#X obj 603 631 spigot;
#X obj 651 631 spigot;
#X obj 398 134 bng 15 250 50 0 empty empty empty 17 7 0 10 -4160 -1
-1;
#X obj 415 134 bng 15 250 50 0 empty empty empty 17 7 0 10 -262144
-1 -1;
#X obj 432 134 bng 15 250 50 0 empty empty empty 17 7 0 10 -258113
-1 -1;
#X obj 449 134 bng 15 250 50 0 empty empty empty 17 7 0 10 -262144
-1 -1;
#X obj 466 134 bng 15 250 50 0 empty empty empty 17 7 0 10 -258113
-1 -1;
#X obj 483 134 bng 15 250 50 0 empty empty empty 17 7 0 10 -262144
-1 -1;
#X obj 500 134 bng 15 250 50 0 empty empty empty 17 7 0 10 -258113
-1 -1;
#X obj 517 134 bng 15 250 50 0 empty empty empty 17 7 0 10 -262144
-1 -1;
#X obj 534 134 bng 15 250 50 0 empty empty empty 17 7 0 10 -4160 -1
-1;
#X obj 551 134 bng 15 250 50 0 empty empty empty 17 7 0 10 -262144
-1 -1;
#X obj 568 134 bng 15 250 50 0 empty empty empty 17 7 0 10 -258113
-1 -1;
#X obj 585 134 bng 15 250 50 0 empty empty empty 17 7 0 10 -262144
-1 -1;
#X obj 602 134 bng 15 250 50 0 empty empty empty 17 7 0 10 -258113
-1 -1;
#X obj 619 134 bng 15 250 50 0 empty empty empty 17 7 0 10 -262144
-1 -1;
#X obj 636 134 bng 15 250 50 0 empty empty empty 17 7 0 10 -258113
-1 -1;
#X obj 653 134 bng 15 250 50 0 empty empty empty 17 7 0 10 -262144
-1 -1;
#X obj 710 609 spigot;
#X obj 758 609 spigot;
#X obj 806 609 spigot;
#X obj 854 609 spigot;
#X obj 902 609 spigot;
#X obj 950 609 spigot;
#X obj 998 609 spigot;
#X obj 1046 609 spigot;
#X obj 710 630 spigot;
#X obj 758 630 spigot;
#X obj 806 630 spigot;
#X obj 854 630 spigot;
#X obj 902 630 spigot;
#X obj 950 630 spigot;
#X obj 998 630 spigot;
#X obj 1046 630 spigot;
#X obj 705 134 bng 15 250 50 0 empty empty empty 17 7 0 10 -4160 -1
-1;
#X obj 722 134 bng 15 250 50 0 empty empty empty 17 7 0 10 -262144
-1 -1;
#X obj 739 134 bng 15 250 50 0 empty empty empty 17 7 0 10 -258113
-1 -1;
#X obj 756 134 bng 15 250 50 0 empty empty empty 17 7 0 10 -262144
-1 -1;
#X obj 773 134 bng 15 250 50 0 empty empty empty 17 7 0 10 -258113
-1 -1;
#X obj 790 134 bng 15 250 50 0 empty empty empty 17 7 0 10 -262144
-1 -1;
#X obj 807 134 bng 15 250 50 0 empty empty empty 17 7 0 10 -258113
-1 -1;
#X obj 824 134 bng 15 250 50 0 empty empty empty 17 7 0 10 -262144
-1 -1;
#X obj 841 134 bng 15 250 50 0 empty empty empty 17 7 0 10 -4160 -1
-1;
#X obj 858 134 bng 15 250 50 0 empty empty empty 17 7 0 10 -262144
-1 -1;
#X obj 875 134 bng 15 250 50 0 empty empty empty 17 7 0 10 -258113
-1 -1;
#X obj 892 134 bng 15 250 50 0 empty empty empty 17 7 0 10 -262144
-1 -1;
#X obj 909 134 bng 15 250 50 0 empty empty empty 17 7 0 10 -258113
-1 -1;
#X obj 926 134 bng 15 250 50 0 empty empty empty 17 7 0 10 -262144
-1 -1;
#X obj 943 134 bng 15 250 50 0 empty empty empty 17 7 0 10 -258113
-1 -1;
#X obj 960 134 bng 15 250 50 0 empty empty empty 17 7 0 10 -262144
-1 -1;
#X obj 1181 628 spigot;
#X obj 1229 628 spigot;
#X obj 1277 628 spigot;
#X obj 1325 628 spigot;
#X obj 1373 628 spigot;
#X obj 1421 628 spigot;
#X obj 1469 628 spigot;
#X obj 1517 628 spigot;
#X obj 1181 649 spigot;
#X obj 1229 649 spigot;
#X obj 1277 649 spigot;
#X obj 1325 649 spigot;
#X obj 1373 649 spigot;
#X obj 1421 649 spigot;
#X obj 1469 649 spigot;
#X obj 1517 649 spigot;
#X obj 987 133 bng 15 250 50 0 empty empty empty 17 7 0 10 -4160 -1
-1;
#X obj 1004 133 bng 15 250 50 0 empty empty empty 17 7 0 10 -262144
-1 -1;
#X obj 1021 133 bng 15 250 50 0 empty empty empty 17 7 0 10 -258113
-1 -1;
#X obj 1038 133 bng 15 250 50 0 empty empty empty 17 7 0 10 -262144
-1 -1;
#X obj 1055 133 bng 15 250 50 0 empty empty empty 17 7 0 10 -258113
-1 -1;
#X obj 1072 133 bng 15 250 50 0 empty empty empty 17 7 0 10 -262144
-1 -1;
#X obj 1089 133 bng 15 250 50 0 empty empty empty 17 7 0 10 -258113
-1 -1;
#X obj 1106 133 bng 15 250 50 0 empty empty empty 17 7 0 10 -262144
-1 -1;
#X obj 1123 133 bng 15 250 50 0 empty empty empty 17 7 0 10 -4160 -1
-1;
#X obj 1140 133 bng 15 250 50 0 empty empty empty 17 7 0 10 -262144
-1 -1;
#X obj 1157 133 bng 15 250 50 0 empty empty empty 17 7 0 10 -258113
-1 -1;
#X obj 1174 133 bng 15 250 50 0 empty empty empty 17 7 0 10 -262144
-1 -1;
#X obj 1191 133 bng 15 250 50 0 empty empty empty 17 7 0 10 -258113
-1 -1;
#X obj 1208 133 bng 15 250 50 0 empty empty empty 17 7 0 10 -262144
-1 -1;
#X obj 1225 133 bng 15 250 50 0 empty empty empty 17 7 0 10 -258113
-1 -1;
#X obj 1242 133 bng 15 250 50 0 empty empty empty 17 7 0 10 -262144
-1 -1;
#X obj 1574 628 spigot;
#X obj 1622 628 spigot;
#X obj 1670 628 spigot;
#X obj 1718 628 spigot;
#X obj 1766 628 spigot;
#X obj 1814 628 spigot;
#X obj 1862 628 spigot;
#X obj 1910 628 spigot;
#X obj 1574 649 spigot;
#X obj 1622 649 spigot;
#X obj 1670 649 spigot;
#X obj 1718 649 spigot;
#X obj 1766 649 spigot;
#X obj 1814 649 spigot;
#X obj 1862 649 spigot;
#X obj 1910 649 spigot;
#X obj 125 52 select 0 1 2 3 4 5 6 7 8 9 10 11 12 13 14 15 16 17 18
19 20 21 22 23 24 25 26 27 28 29 30 31 32 33 34 35 36 37 38 39 40 41
42 43 44 45 46 47 48 49 50 51 52 53 54 55 56 57 58 59 60 61 62 63,
f 169;
#X obj 141 236 vsl 15 65 0 15 0 1 empty empty empty 0 -9 0 10 -262144
-1 -1 0 1;
#X obj 141 308 int;
#X floatatom 141 329 5 0 0 0 - - -, f 5;
#X obj 182 236 vsl 15 65 0 15 0 1 empty empty empty 0 -9 0 10 -262144
-1 -1 0 1;
#X obj 182 308 int;
#X floatatom 182 329 5 0 0 0 - - -, f 5;
#X obj 223 236 vsl 15 65 0 15 0 1 empty empty empty 0 -9 0 10 -262144
-1 -1 0 1;
#X obj 223 308 int;
#X floatatom 223 329 5 0 0 0 - - -, f 5;
#X obj 264 236 vsl 15 65 0 15 0 1 empty empty empty 0 -9 0 10 -262144
-1 -1 0 1;
#X obj 264 308 int;
#X floatatom 264 329 5 0 0 0 - - -, f 5;
#X obj 305 236 vsl 15 65 0 15 0 1 empty empty empty 0 -9 0 10 -262144
-1 -1 0 1;
#X obj 305 308 int;
#X floatatom 305 329 5 0 0 0 - - -, f 5;
#X obj 346 236 vsl 15 65 0 15 0 1 empty empty empty 0 -9 0 10 -262144
-1 -1 0 1;
#X obj 346 308 int;
#X floatatom 346 329 5 0 0 0 - - -, f 5;
#X obj 387 236 vsl 15 65 0 15 0 1 empty empty empty 0 -9 0 10 -262144
-1 -1 0 1;
#X obj 387 308 int;
#X floatatom 387 329 5 0 0 0 - - -, f 5;
#X obj 428 236 vsl 15 65 0 15 0 1 empty empty empty 0 -9 0 10 -262144
-1 -1 0 1;
#X obj 428 308 int;
#X floatatom 428 329 5 0 0 0 - - -, f 5;
#X obj 469 236 vsl 15 65 0 15 0 1 empty empty empty 0 -9 0 10 -262144
-1 -1 0 1;
#X obj 469 308 int;
#X floatatom 469 329 5 0 0 0 - - -, f 5;
#X obj 510 236 vsl 15 65 0 15 0 1 empty empty empty 0 -9 0 10 -262144
-1 -1 0 1;
#X obj 510 308 int;
#X floatatom 510 329 5 0 0 0 - - -, f 5;
#X obj 551 236 vsl 15 65 0 15 0 1 empty empty empty 0 -9 0 10 -262144
-1 -1 0 1;
#X obj 551 308 int;
#X floatatom 551 329 5 0 0 0 - - -, f 5;
#X obj 592 236 vsl 15 65 0 15 0 1 empty empty empty 0 -9 0 10 -262144
-1 -1 0 1;
#X obj 592 308 int;
#X floatatom 592 329 5 0 0 0 - - -, f 5;
#X obj 633 236 vsl 15 65 0 15 0 1 empty empty empty 0 -9 0 10 -262144
-1 -1 0 1;
#X obj 633 308 int;
#X floatatom 633 329 5 0 0 0 - - -, f 5;
#X obj 674 236 vsl 15 65 0 15 0 1 empty empty empty 0 -9 0 10 -262144
-1 -1 0 1;
#X obj 674 308 int;
#X floatatom 674 329 5 0 0 0 - - -, f 5;
#X obj 715 236 vsl 15 65 0 15 0 1 empty empty empty 0 -9 0 10 -262144
-1 -1 0 1;
#X obj 715 308 int;
#X floatatom 715 329 5 0 0 0 - - -, f 5;
#X obj 756 236 vsl 15 65 0 15 0 1 empty empty empty 0 -9 0 10 -262144
-1 -1 0 1;
#X obj 756 308 int;
#X floatatom 756 329 5 0 0 0 - - -, f 5;
#X obj 797 236 vsl 15 65 0 15 0 1 empty empty empty 0 -9 0 10 -262144
-1 -1 0 1;
#X obj 797 308 int;
#X floatatom 797 329 5 0 0 0 - - -, f 5;
#X obj 838 236 vsl 15 65 0 15 0 1 empty empty empty 0 -9 0 10 -262144
-1 -1 0 1;
#X obj 838 308 int;
#X floatatom 838 329 5 0 0 0 - - -, f 5;
#X obj 879 236 vsl 15 65 0 15 0 1 empty empty empty 0 -9 0 10 -262144
-1 -1 0 1;
#X obj 879 308 int;
#X floatatom 879 329 5 0 0 0 - - -, f 5;
#X obj 920 236 vsl 15 65 0 15 0 1 empty empty empty 0 -9 0 10 -262144
-1 -1 0 1;
#X obj 920 308 int;
#X floatatom 920 329 5 0 0 0 - - -, f 5;
#X obj 961 236 vsl 15 65 0 15 0 1 empty empty empty 0 -9 0 10 -262144
-1 -1 0 1;
#X obj 961 308 int;
#X floatatom 961 329 5 0 0 0 - - -, f 5;
#X obj 1002 236 vsl 15 65 0 15 0 1 empty empty empty 0 -9 0 10 -262144
-1 -1 0 1;
#X obj 1002 308 int;
#X floatatom 1002 329 5 0 0 0 - - -, f 5;
#X obj 1043 236 vsl 15 65 0 15 0 1 empty empty empty 0 -9 0 10 -262144
-1 -1 0 1;
#X obj 1043 308 int;
#X floatatom 1043 329 5 0 0 0 - - -, f 5;
#X obj 1084 236 vsl 15 65 0 15 0 1 empty empty empty 0 -9 0 10 -262144
-1 -1 0 1;
#X obj 1084 308 int;
#X floatatom 1084 329 5 0 0 0 - - -, f 5;
#X obj 1125 236 vsl 15 65 0 15 0 1 empty empty empty 0 -9 0 10 -262144
-1 -1 0 1;
#X obj 1125 308 int;
#X floatatom 1125 329 5 0 0 0 - - -, f 5;
#X obj 1166 236 vsl 15 65 0 15 0 1 empty empty empty 0 -9 0 10 -262144
-1 -1 0 1;
#X obj 1166 308 int;
#X floatatom 1166 329 5 0 0 0 - - -, f 5;
#X obj 1207 236 vsl 15 65 0 15 0 1 empty empty empty 0 -9 0 10 -262144
-1 -1 0 1;
#X obj 1207 308 int;
#X floatatom 1207 329 5 0 0 0 - - -, f 5;
#X obj 1248 236 vsl 15 65 0 15 0 1 empty empty empty 0 -9 0 10 -262144
-1 -1 0 1;
#X obj 1248 308 int;
#X floatatom 1248 329 5 0 0 0 - - -, f 5;
#X obj 1289 236 vsl 15 65 0 15 0 1 empty empty empty 0 -9 0 10 -262144
-1 -1 0 1;
#X obj 1289 308 int;
#X floatatom 1289 329 5 0 0 0 - - -, f 5;
#X obj 1330 236 vsl 15 65 0 15 0 1 empty empty empty 0 -9 0 10 -262144
-1 -1 0 1;
#X obj 1330 308 int;
#X floatatom 1330 329 5 0 0 0 - - -, f 5;
#X obj 1371 236 vsl 15 65 0 15 0 1 empty empty empty 0 -9 0 10 -262144
-1 -1 0 1;
#X obj 1371 308 int;
#X floatatom 1371 329 5 0 0 0 - - -, f 5;
#X obj 1412 236 vsl 15 65 0 15 0 1 empty empty empty 0 -9 0 10 -262144
-1 -1 0 1;
#X obj 1412 308 int;
#X floatatom 1412 329 5 0 0 0 - - -, f 5;
#X obj 141 348 vsl 15 65 0 15 0 1 empty empty empty 0 -9 0 10 -262144
-1 -1 0 1;
#X obj 141 420 int;
#X floatatom 141 441 5 0 0 0 - - -, f 5;
#X obj 182 348 vsl 15 65 0 15 0 1 empty empty empty 0 -9 0 10 -262144
-1 -1 0 1;
#X obj 182 420 int;
#X floatatom 182 441 5 0 0 0 - - -, f 5;
#X obj 223 348 vsl 15 65 0 15 0 1 empty empty empty 0 -9 0 10 -262144
-1 -1 0 1;
#X obj 223 420 int;
#X floatatom 223 441 5 0 0 0 - - -, f 5;
#X obj 264 348 vsl 15 65 0 15 0 1 empty empty empty 0 -9 0 10 -262144
-1 -1 0 1;
#X obj 264 420 int;
#X floatatom 264 441 5 0 0 0 - - -, f 5;
#X obj 305 348 vsl 15 65 0 15 0 1 empty empty empty 0 -9 0 10 -262144
-1 -1 0 1;
#X obj 305 420 int;
#X floatatom 305 441 5 0 0 0 - - -, f 5;
#X obj 346 348 vsl 15 65 0 15 0 1 empty empty empty 0 -9 0 10 -262144
-1 -1 0 1;
#X obj 346 420 int;
#X floatatom 346 441 5 0 0 0 - - -, f 5;
#X obj 387 348 vsl 15 65 0 15 0 1 empty empty empty 0 -9 0 10 -262144
-1 -1 0 1;
#X obj 387 420 int;
#X floatatom 387 441 5 0 0 0 - - -, f 5;
#X obj 428 348 vsl 15 65 0 15 0 1 empty empty empty 0 -9 0 10 -262144
-1 -1 0 1;
#X obj 428 420 int;
#X floatatom 428 441 5 0 0 0 - - -, f 5;
#X obj 469 348 vsl 15 65 0 15 0 1 empty empty empty 0 -9 0 10 -262144
-1 -1 0 1;
#X obj 469 420 int;
#X floatatom 469 441 5 0 0 0 - - -, f 5;
#X obj 510 348 vsl 15 65 0 15 0 1 empty empty empty 0 -9 0 10 -262144
-1 -1 0 1;
#X obj 510 420 int;
#X floatatom 510 441 5 0 0 0 - - -, f 5;
#X obj 551 348 vsl 15 65 0 15 0 1 empty empty empty 0 -9 0 10 -262144
-1 -1 0 1;
#X obj 551 420 int;
#X floatatom 551 441 5 0 0 0 - - -, f 5;
#X obj 592 348 vsl 15 65 0 15 0 1 empty empty empty 0 -9 0 10 -262144
-1 -1 0 1;
#X obj 592 420 int;
#X floatatom 592 441 5 0 0 0 - - -, f 5;
#X obj 633 348 vsl 15 65 0 15 0 1 empty empty empty 0 -9 0 10 -262144
-1 -1 0 1;
#X obj 633 420 int;
#X floatatom 633 441 5 0 0 0 - - -, f 5;
#X obj 674 348 vsl 15 65 0 15 0 1 empty empty empty 0 -9 0 10 -262144
-1 -1 0 1;
#X obj 674 420 int;
#X floatatom 674 441 5 0 0 0 - - -, f 5;
#X obj 715 348 vsl 15 65 0 15 0 1 empty empty empty 0 -9 0 10 -262144
-1 -1 0 1;
#X obj 715 420 int;
#X floatatom 715 441 5 0 0 0 - - -, f 5;
#X obj 756 348 vsl 15 65 0 15 0 1 empty empty empty 0 -9 0 10 -262144
-1 -1 0 1;
#X obj 756 420 int;
#X floatatom 756 441 5 0 0 0 - - -, f 5;
#X obj 797 348 vsl 15 65 0 15 0 1 empty empty empty 0 -9 0 10 -262144
-1 -1 0 1;
#X obj 797 420 int;
#X floatatom 797 441 5 0 0 0 - - -, f 5;
#X obj 838 348 vsl 15 65 0 15 0 1 empty empty empty 0 -9 0 10 -262144
-1 -1 0 1;
#X obj 838 420 int;
#X floatatom 838 441 5 0 0 0 - - -, f 5;
#X obj 879 348 vsl 15 65 0 15 0 1 empty empty empty 0 -9 0 10 -262144
-1 -1 0 1;
#X obj 879 420 int;
#X floatatom 879 441 5 0 0 0 - - -, f 5;
#X obj 920 348 vsl 15 65 0 15 0 1 empty empty empty 0 -9 0 10 -262144
-1 -1 0 1;
#X obj 920 420 int;
#X floatatom 920 441 5 0 0 0 - - -, f 5;
#X obj 961 348 vsl 15 65 0 15 0 1 empty empty empty 0 -9 0 10 -262144
-1 -1 0 1;
#X obj 961 420 int;
#X floatatom 961 441 5 0 0 0 - - -, f 5;
#X obj 1002 348 vsl 15 65 0 15 0 1 empty empty empty 0 -9 0 10 -262144
-1 -1 0 1;
#X obj 1002 420 int;
#X floatatom 1002 441 5 0 0 0 - - -, f 5;
#X obj 1043 348 vsl 15 65 0 15 0 1 empty empty empty 0 -9 0 10 -262144
-1 -1 0 1;
#X obj 1043 420 int;
#X floatatom 1043 441 5 0 0 0 - - -, f 5;
#X obj 1084 348 vsl 15 65 0 15 0 1 empty empty empty 0 -9 0 10 -262144
-1 -1 0 1;
#X obj 1084 420 int;
#X floatatom 1084 441 5 0 0 0 - - -, f 5;
#X obj 1125 348 vsl 15 65 0 15 0 1 empty empty empty 0 -9 0 10 -262144
-1 -1 0 1;
#X obj 1125 420 int;
#X floatatom 1125 441 5 0 0 0 - - -, f 5;
#X obj 1166 348 vsl 15 65 0 15 0 1 empty empty empty 0 -9 0 10 -262144
-1 -1 0 1;
#X obj 1166 420 int;
#X floatatom 1166 441 5 0 0 0 - - -, f 5;
#X obj 1207 348 vsl 15 65 0 15 0 1 empty empty empty 0 -9 0 10 -262144
-1 -1 0 1;
#X obj 1207 420 int;
#X floatatom 1207 441 5 0 0 0 - - -, f 5;
#X obj 1248 348 vsl 15 65 0 15 0 1 empty empty empty 0 -9 0 10 -262144
-1 -1 0 1;
#X obj 1248 420 int;
#X floatatom 1248 441 5 0 0 0 - - -, f 5;
#X obj 1289 348 vsl 15 65 0 15 0 1 empty empty empty 0 -9 0 10 -262144
-1 -1 0 1;
#X obj 1289 420 int;
#X floatatom 1289 441 5 0 0 0 - - -, f 5;
#X obj 1330 348 vsl 15 65 0 15 0 1 empty empty empty 0 -9 0 10 -262144
-1 -1 0 1;
#X obj 1330 420 int;
#X floatatom 1330 441 5 0 0 0 - - -, f 5;
#X obj 1371 348 vsl 15 65 0 15 0 1 empty empty empty 0 -9 0 10 -262144
-1 -1 0 1;
#X obj 1371 420 int;
#X floatatom 1371 441 5 0 0 0 - - -, f 5;
#X obj 1412 348 vsl 15 65 0 15 0 1 empty empty empty 0 -9 0 10 -262144
-1 -1 0 1;
#X obj 1412 420 int;
#X floatatom 1412 441 5 0 0 0 - - -, f 5;
#X obj 57 14 inlet;
#X obj 258 714 outlet;
#X obj 305 714 outlet;
#X obj 352 714 outlet;
#X obj 399 714 outlet;
#X obj 446 714 outlet;
#X obj 493 714 outlet;
#X obj 540 714 outlet;
#X obj 587 714 outlet;
#X obj 634 714 outlet;
#X obj 681 714 outlet;
#X obj 728 714 outlet;
#X obj 775 714 outlet;
#X obj 822 714 outlet;
#X obj 869 714 outlet;
#X obj 916 714 outlet;
#X obj 963 714 outlet;
#X obj 161 527 cnv 15 100 60 empty empty empty 20 12 0 14 -233017 -66577
0;
#X obj 131 3 f;
#X obj 158 4 + 1;
#X obj 149 25 % 63;
#X connect 0 0 323 0;
#X connect 0 1 324 0;
#X connect 0 2 325 0;
#X connect 0 3 326 0;
#X connect 0 4 327 0;
#X connect 0 5 328 0;
#X connect 0 6 329 0;
#X connect 0 7 330 0;
#X connect 0 8 331 0;
#X connect 0 9 332 0;
#X connect 0 10 333 0;
#X connect 0 11 334 0;
#X connect 0 12 335 0;
#X connect 0 13 336 0;
#X connect 0 14 337 0;
#X connect 0 15 338 0;
#X connect 1 0 17 0;
#X connect 2 0 18 0;
#X connect 3 0 19 0;
#X connect 4 0 20 0;
#X connect 5 0 21 0;
#X connect 6 0 22 0;
#X connect 7 0 23 0;
#X connect 8 0 24 0;
#X connect 9 0 25 0;
#X connect 10 0 26 0;
#X connect 11 0 27 0;
#X connect 12 0 28 0;
#X connect 13 0 29 0;
#X connect 14 0 30 0;
#X connect 15 0 31 0;
#X connect 16 0 32 0;
#X connect 17 0 0 0;
#X connect 18 0 0 0;
#X connect 19 0 0 0;
#X connect 20 0 0 0;
#X connect 21 0 0 0;
#X connect 22 0 0 0;
#X connect 23 0 0 0;
#X connect 24 0 0 0;
#X connect 25 0 0 0;
#X connect 26 0 0 0;
#X connect 27 0 0 0;
#X connect 28 0 0 0;
#X connect 29 0 0 0;
#X connect 30 0 0 0;
#X connect 31 0 0 0;
#X connect 32 0 0 0;
#X connect 33 0 49 0;
#X connect 34 0 50 0;
#X connect 35 0 51 0;
#X connect 36 0 52 0;
#X connect 37 0 53 0;
#X connect 38 0 54 0;
#X connect 39 0 55 0;
#X connect 40 0 56 0;
#X connect 41 0 57 0;
#X connect 42 0 58 0;
#X connect 43 0 59 0;
#X connect 44 0 60 0;
#X connect 45 0 61 0;
#X connect 46 0 62 0;
#X connect 47 0 63 0;
#X connect 48 0 64 0;
#X connect 49 0 0 0;
#X connect 50 0 0 0;
#X connect 51 0 0 0;
#X connect 52 0 0 0;
#X connect 53 0 0 0;
#X connect 54 0 0 0;
#X connect 55 0 0 0;
#X connect 56 0 0 0;
#X connect 57 0 0 0;
#X connect 58 0 0 0;
#X connect 59 0 0 0;
#X connect 60 0 0 0;
#X connect 61 0 0 0;
#X connect 62 0 0 0;
#X connect 63 0 0 0;
#X connect 64 0 0 0;
#X connect 65 0 81 0;
#X connect 66 0 82 0;
#X connect 67 0 83 0;
#X connect 68 0 84 0;
#X connect 69 0 85 0;
#X connect 70 0 86 0;
#X connect 71 0 87 0;
#X connect 72 0 88 0;
#X connect 73 0 89 0;
#X connect 74 0 90 0;
#X connect 75 0 91 0;
#X connect 76 0 92 0;
#X connect 77 0 93 0;
#X connect 78 0 94 0;
#X connect 79 0 95 0;
#X connect 80 0 96 0;
#X connect 81 0 0 0;
#X connect 82 0 0 0;
#X connect 83 0 0 0;
#X connect 84 0 0 0;
#X connect 85 0 0 0;
#X connect 86 0 0 0;
#X connect 87 0 0 0;
#X connect 88 0 0 0;
#X connect 89 0 0 0;
#X connect 90 0 0 0;
#X connect 91 0 0 0;
#X connect 92 0 0 0;
#X connect 93 0 0 0;
#X connect 94 0 0 0;
#X connect 95 0 0 0;
#X connect 96 0 0 0;
#X connect 97 0 113 0;
#X connect 98 0 114 0;
#X connect 99 0 115 0;
#X connect 100 0 116 0;
#X connect 101 0 117 0;
#X connect 102 0 118 0;
#X connect 103 0 119 0;
#X connect 104 0 120 0;
#X connect 105 0 121 0;
#X connect 106 0 122 0;
#X connect 107 0 123 0;
#X connect 108 0 124 0;
#X connect 109 0 125 0;
#X connect 110 0 126 0;
#X connect 111 0 127 0;
#X connect 112 0 128 0;
#X connect 113 0 0 0;
#X connect 114 0 0 0;
#X connect 115 0 0 0;
#X connect 116 0 0 0;
#X connect 117 0 0 0;
#X connect 118 0 0 0;
#X connect 119 0 0 0;
#X connect 120 0 0 0;
#X connect 121 0 0 0;
#X connect 122 0 0 0;
#X connect 123 0 0 0;
#X connect 124 0 0 0;
#X connect 125 0 0 0;
#X connect 126 0 0 0;
#X connect 127 0 0 0;
#X connect 128 0 0 0;
#X connect 129 0 1 0;
#X connect 129 1 2 0;
#X connect 129 2 3 0;
#X connect 129 3 4 0;
#X connect 129 4 5 0;
#X connect 129 5 6 0;
#X connect 129 6 7 0;
#X connect 129 7 8 0;
#X connect 129 8 9 0;
#X connect 129 9 10 0;
#X connect 129 10 11 0;
#X connect 129 11 12 0;
#X connect 129 12 13 0;
#X connect 129 13 14 0;
#X connect 129 14 15 0;
#X connect 129 15 16 0;
#X connect 129 16 33 0;
#X connect 129 17 34 0;
#X connect 129 18 35 0;
#X connect 129 19 36 0;
#X connect 129 20 37 0;
#X connect 129 21 38 0;
#X connect 129 22 39 0;
#X connect 129 23 40 0;
#X connect 129 24 41 0;
#X connect 129 25 42 0;
#X connect 129 26 43 0;
#X connect 129 27 44 0;
#X connect 129 28 45 0;
#X connect 129 29 46 0;
#X connect 129 30 47 0;
#X connect 129 31 48 0;
#X connect 129 32 65 0;
#X connect 129 33 66 0;
#X connect 129 34 67 0;
#X connect 129 35 68 0;
#X connect 129 36 69 0;
#X connect 129 37 70 0;
#X connect 129 38 71 0;
#X connect 129 39 72 0;
#X connect 129 40 73 0;
#X connect 129 41 74 0;
#X connect 129 42 75 0;
#X connect 129 43 76 0;
#X connect 129 44 77 0;
#X connect 129 45 78 0;
#X connect 129 46 79 0;
#X connect 129 47 80 0;
#X connect 129 48 97 0;
#X connect 129 49 98 0;
#X connect 129 50 99 0;
#X connect 129 51 100 0;
#X connect 129 52 101 0;
#X connect 129 53 102 0;
#X connect 129 54 103 0;
#X connect 129 55 104 0;
#X connect 129 56 105 0;
#X connect 129 57 106 0;
#X connect 129 58 107 0;
#X connect 129 59 108 0;
#X connect 129 60 109 0;
#X connect 129 61 110 0;
#X connect 129 62 111 0;
#X connect 129 63 112 0;
#X connect 130 0 131 0;
#X connect 131 0 132 0;
#X connect 132 0 17 1;
#X connect 133 0 134 0;
#X connect 134 0 135 0;
#X connect 135 0 18 1;
#X connect 136 0 137 0;
#X connect 137 0 138 0;
#X connect 138 0 19 1;
#X connect 139 0 140 0;
#X connect 140 0 141 0;
#X connect 141 0 20 1;
#X connect 142 0 143 0;
#X connect 143 0 144 0;
#X connect 144 0 21 1;
#X connect 145 0 146 0;
#X connect 146 0 147 0;
#X connect 147 0 22 1;
#X connect 148 0 149 0;
#X connect 149 0 150 0;
#X connect 150 0 23 1;
#X connect 151 0 152 0;
#X connect 152 0 153 0;
#X connect 153 0 24 1;
#X connect 154 0 155 0;
#X connect 155 0 156 0;
#X connect 156 0 25 1;
#X connect 157 0 158 0;
#X connect 158 0 159 0;
#X connect 159 0 26 1;
#X connect 160 0 161 0;
#X connect 161 0 162 0;
#X connect 162 0 27 1;
#X connect 163 0 164 0;
#X connect 164 0 165 0;
#X connect 165 0 28 1;
#X connect 166 0 167 0;
#X connect 167 0 168 0;
#X connect 168 0 29 1;
#X connect 169 0 170 0;
#X connect 170 0 171 0;
#X connect 171 0 30 1;
#X connect 172 0 173 0;
#X connect 173 0 174 0;
#X connect 174 0 31 1;
#X connect 175 0 176 0;
#X connect 176 0 177 0;
#X connect 177 0 32 1;
#X connect 178 0 179 0;
#X connect 179 0 180 0;
#X connect 180 0 49 1;
#X connect 181 0 182 0;
#X connect 182 0 183 0;
#X connect 183 0 50 1;
#X connect 184 0 185 0;
#X connect 185 0 186 0;
#X connect 186 0 51 1;
#X connect 187 0 188 0;
#X connect 188 0 189 0;
#X connect 189 0 52 1;
#X connect 190 0 191 0;
#X connect 191 0 192 0;
#X connect 192 0 53 1;
#X connect 193 0 194 0;
#X connect 194 0 195 0;
#X connect 195 0 54 1;
#X connect 196 0 197 0;
#X connect 197 0 198 0;
#X connect 198 0 55 1;
#X connect 199 0 200 0;
#X connect 200 0 201 0;
#X connect 201 0 56 1;
#X connect 202 0 203 0;
#X connect 203 0 204 0;
#X connect 204 0 57 1;
#X connect 205 0 206 0;
#X connect 206 0 207 0;
#X connect 207 0 58 1;
#X connect 208 0 209 0;
#X connect 209 0 210 0;
#X connect 210 0 59 1;
#X connect 211 0 212 0;
#X connect 212 0 213 0;
#X connect 213 0 60 1;
#X connect 214 0 215 0;
#X connect 215 0 216 0;
#X connect 216 0 61 1;
#X connect 217 0 218 0;
#X connect 218 0 219 0;
#X connect 219 0 62 1;
#X connect 220 0 221 0;
#X connect 221 0 222 0;
#X connect 222 0 63 1;
#X connect 223 0 224 0;
#X connect 224 0 225 0;
#X connect 225 0 64 1;
#X connect 226 0 227 0;
#X connect 227 0 228 0;
#X connect 228 0 81 1;
#X connect 229 0 230 0;
#X connect 230 0 231 0;
#X connect 231 0 82 1;
#X connect 232 0 233 0;
#X connect 233 0 234 0;
#X connect 234 0 83 1;
#X connect 235 0 236 0;
#X connect 236 0 237 0;
#X connect 237 0 84 1;
#X connect 238 0 239 0;
#X connect 239 0 240 0;
#X connect 240 0 85 1;
#X connect 241 0 242 0;
#X connect 242 0 243 0;
#X connect 243 0 86 1;
#X connect 244 0 245 0;
#X connect 245 0 246 0;
#X connect 246 0 87 1;
#X connect 247 0 248 0;
#X connect 248 0 249 0;
#X connect 249 0 88 1;
#X connect 250 0 251 0;
#X connect 251 0 252 0;
#X connect 252 0 89 1;
#X connect 253 0 254 0;
#X connect 254 0 255 0;
#X connect 255 0 90 1;
#X connect 256 0 257 0;
#X connect 257 0 258 0;
#X connect 258 0 91 1;
#X connect 259 0 260 0;
#X connect 260 0 261 0;
#X connect 261 0 92 1;
#X connect 262 0 263 0;
#X connect 263 0 264 0;
#X connect 264 0 93 1;
#X connect 265 0 266 0;
#X connect 266 0 267 0;
#X connect 267 0 94 1;
#X connect 268 0 269 0;
#X connect 269 0 270 0;
#X connect 270 0 95 1;
#X connect 271 0 272 0;
#X connect 272 0 273 0;
#X connect 273 0 96 1;
#X connect 274 0 275 0;
#X connect 275 0 276 0;
#X connect 276 0 113 1;
#X connect 277 0 278 0;
#X connect 278 0 279 0;
#X connect 279 0 114 1;
#X connect 280 0 281 0;
#X connect 281 0 282 0;
#X connect 282 0 115 1;
#X connect 283 0 284 0;
#X connect 284 0 285 0;
#X connect 285 0 116 1;
#X connect 286 0 287 0;
#X connect 287 0 288 0;
#X connect 288 0 117 1;
#X connect 289 0 290 0;
#X connect 290 0 291 0;
#X connect 291 0 118 1;
#X connect 292 0 293 0;
#X connect 293 0 294 0;
#X connect 294 0 119 1;
#X connect 295 0 296 0;
#X connect 296 0 297 0;
#X connect 297 0 120 1;
#X connect 298 0 299 0;
#X connect 299 0 300 0;
#X connect 300 0 121 1;
#X connect 301 0 302 0;
#X connect 302 0 303 0;
#X connect 303 0 122 1;
#X connect 304 0 305 0;
#X connect 305 0 306 0;
#X connect 306 0 123 1;
#X connect 307 0 308 0;
#X connect 308 0 309 0;
#X connect 309 0 124 1;
#X connect 310 0 311 0;
#X connect 311 0 312 0;
#X connect 312 0 125 1;
#X connect 313 0 314 0;
#X connect 314 0 315 0;
#X connect 315 0 126 1;
#X connect 316 0 317 0;
#X connect 317 0 318 0;
#X connect 318 0 127 1;
#X connect 319 0 320 0;
#X connect 320 0 321 0;
#X connect 321 0 128 1;
#X connect 322 0 340 0;
#X connect 340 0 341 0;
#X connect 340 0 342 0;
#X connect 341 0 340 1;
#X connect 342 0 129 0;
#X coords 0 -1 1 1 1600 400 1 100 100;
