#N canvas 35 408 1203 630 10;
#X obj 10 14;
#X obj 20 24;
#X obj 30 34;
#X obj 40 44;
#X msg 18 181;
#X msg 28 191;
#X msg 38 201;
#X msg 48 211;
#X msg 58 221;
#X msg 68 231;
#X msg 78 241;
#X msg 88 251;
#X msg 98 261;
#X msg 108 271;
#X floatatom 7 757 5 0 0 0 - - -, f 5;
#X floatatom 17 767 5 0 0 0 - - -, f 5;
#X floatatom 27 777 5 0 0 0 - - -, f 5;
#X floatatom 37 787 5 0 0 0 - - -, f 5;
#X floatatom 47 797 5 0 0 0 - - -, f 5;
#X floatatom 57 807 5 0 0 0 - - -, f 5;
#X floatatom 67 817 5 0 0 0 - - -, f 5;
#X floatatom 77 827 5 0 0 0 - - -, f 5;
#X floatatom 87 837 5 0 0 0 - - -, f 5;
#X floatatom 97 847 5 0 0 0 - - -, f 5;
#X floatatom 107 857 5 0 0 0 - - -, f 5;
#X floatatom 117 867 5 0 0 0 - - -, f 5;
#X floatatom 127 877 5 0 0 0 - - -, f 5;
#X floatatom 137 887 5 0 0 0 - - -, f 5;
#X floatatom 147 897 5 0 0 0 - - -, f 5;
#X floatatom 34 890 5 0 0 0 - - -, f 5;
#X msg 77 309 64;
#X obj 50 54;
#X obj 60 64;
#X obj 70 74;
#X obj 80 84;
#X obj 90 94;
#X obj 100 104;
#X obj 110 114;
#X obj 120 124;
#X obj 130 134;
#X obj 140 144;
#X obj 150 154;
#X obj 1188 170;
#X obj 276 112 scaleseq-wut;
#X obj 273 469 sinesum-sqr2;
#X obj 516 861 dac~;
#X obj 926 409 sinesum-sqr1;
#X obj 394 462 sinesum-sqr2;
#X obj 522 464 sinesum-sqr2;
#X obj 644 463 sinesum-sqr2;
#X obj 760 462 sinesum-sqr2;
#X obj 500 722 *~;
#X obj 742 736 *~;
#X connect 43 0 44 0;
#X connect 43 1 47 0;
#X connect 43 2 48 0;
#X connect 43 3 49 0;
#X connect 43 4 50 0;
#X connect 44 0 45 0;
#X connect 44 0 45 1;
#X connect 47 0 51 0;
#X connect 48 0 51 1;
#X connect 49 0 52 0;
#X connect 50 0 52 1;
#X connect 51 0 45 0;
#X connect 51 0 45 1;
#X connect 52 0 45 0;
#X connect 52 0 45 1;
