#N canvas 0 0 667 709 10;
#X obj 84 5 osc~;
#X obj 85 78 dac~;
#X obj 119 -29 mtof;
#X obj 52 -54 inlet;
#X obj 99 -55 inlet;
#X connect 0 0 1 0;
#X connect 0 0 1 1;
#X connect 2 0 0 0;
#X connect 3 0 0 0;
#X connect 4 0 2 0;
