#N canvas 349 395 454 304 10;
#X obj 113 27 mtof;
#X obj 81 86 phasor~;
#X obj 161 90 / 100;
#X obj 81 115 expr~ $v1 > $v2;
#X obj 161 72 nbx 5 14 -1e+037 1e+037 0 0 empty empty empty 0 -6 0
10 -262144 -1 -1 0 256;
#N canvas 0 50 450 300 (subpatch) 0;
#X array cock 100 float 3;
#A 0 1 1 1 1 1 1 1 1 1 1 1 1 1 1 1 1 1 1 1 1 1 1 1 1 1 1 1 1 1 1 1
1 1 1 1 1 1 1 1 1 1 1 1 1 1 1 1 1 1 1 1 1 1 1 1 1 1 1 1 1 1 1 1 1 1
1 1 1 1 1 1 1 1 1 1 1 1 1 1 1 1 1 1 1 1 1 1 1 1 1 1 1 1 1 1 1 1 1 1
1;
#X coords 0 1 99 -1 200 140 1;
#X restore 239 117 graph;
#X floatatom 59 44 5 0 0 0 - - -, f 5;
#X obj 124 213 tabwrite~ cock;
#X obj 154 186 metro 100;
#X obj 188 162 tgl 15 0 empty empty empty 0 -6 0 10 -262144 -1 -1 1
1;
#X obj 79 156 *~ 2;
#X obj 78 179 -~ 1;
#X obj 132 262 outlet~;
#X obj 55 13 inlet;
#X obj 112 4 inlet;
#X obj 175 16 inlet;
#X connect 0 0 1 0;
#X connect 1 0 3 0;
#X connect 2 0 3 1;
#X connect 3 0 10 0;
#X connect 4 0 2 0;
#X connect 6 0 1 0;
#X connect 8 0 7 0;
#X connect 9 0 8 0;
#X connect 10 0 11 0;
#X connect 11 0 7 0;
#X connect 11 0 12 0;
#X connect 13 0 6 0;
#X connect 14 0 0 0;
#X connect 15 0 4 0;
