#N canvas 0 50 1362 721 10;
#X obj 1546 1034 dac~;
#X obj 1191 640 osc~ 440;
#X obj 1138 733 *~;
#X obj 1202 713 line~;
#X msg 1199 688 0 100;
#N canvas 0 50 450 250 (subpatch) 0;
#X array arrayb1 16 float 3;
#A 0 65.41 65.41 65.41 65.41 82.41 82.41 82.41 82.41 110 110 110 110
110 110 110 110;
#X coords 0 1000 16 0 200 140 1;
#X restore 105 836 graph;
#X floatatom 1125 222 5 0 0 0 - - -, f 5;
#X obj 1164 198 phasor~ 1;
#X obj 1166 221 *~ 16;
#X obj 1328 714 line~;
#X msg 1329 682 0 100;
#N canvas 0 50 450 250 (subpatch) 0;
#X array arrayb2 16 float 3;
#A 0 130.8 130.8 130.8 130.8 130.8 130.8 130.8 130.8 110 110 110 110
110 110 110 110;
#X coords 0 1000 16 0 200 140 1;
#X restore 322 837 graph;
#X floatatom 1267 236 5 0 0 0 - - -, f 5;
#X obj 1301 212 phasor~ 1;
#X obj 1303 235 *~ 16;
#X obj 354 184 bng 30 250 50 0 empty empty empty 17 7 0 10 -262144
-1 -1;
#X obj 1689 649 bng 30 250 50 0 empty empty empty 17 7 0 10 -258113
-1 -1;
#X obj 168 109 vsl 15 128 0.0001 0.129 0 0 empty empty empty 0 -9 0
10 -260097 -1 -1 12700 1;
#X obj 1250 727 *~;
#X obj 1373 723 *~;
#X obj 1458 713 line~;
#X msg 1454 687 0 100;
#N canvas 0 50 454 254 (subpatch) 0;
#X array arraya1 16 float 3;
#A 0 0 329.6 392 493.9 0 329.6 392 493.9 0 329.6 392 493.9 0 329.6
392 493.9;
#X coords 0 1000 16 0 200 140 1;
#X restore 104 680 graph;
#X floatatom 1406 235 5 0 0 0 - - -, f 5;
#X obj 1442 210 phasor~ 1;
#X obj 1445 234 *~ 16;
#X obj 1612 644 osc~ 440;
#X obj 1615 711 line~;
#X msg 1614 686 0 100;
#N canvas 0 50 450 250 (subpatch) 0;
#X array arraya2 16 float 3;
#A 0 65.41 65.41 65.41 65.41 65.41 65.41 65.41 65.41 55 55 55 55 55
55 55 55;
#X coords 0 1000 16 0 200 140 1;
#X restore 322 681 graph;
#X floatatom 1559 229 5 0 0 0 - - -, f 5;
#X obj 1604 210 phasor~ 1;
#X obj 1606 233 *~ 16;
#X obj 353 151 bng 30 250 50 0 empty empty empty 17 7 0 10 -262144
-1 -1;
#X obj 415 111 bng 30 250 50 0 empty empty empty 17 7 0 10 -262144
-1 -1;
#X obj 1530 729 *~;
#X obj 1449 646 osc~ 880;
#X obj 1324 639 osc~ 220;
#X floatatom 1559 212 5 0 0 0 - - -, f 5;
#X floatatom 1123 199 5 0 0 0 - - -, f 5;
#X floatatom 1265 213 5 0 0 0 - - -, f 5;
#X floatatom 1404 211 5 0 0 0 - - -, f 5;
#X obj 148 109 vsl 15 128 1e-007 0.267 0 0 empty empty empty 0 -9 0
10 -262144 -1 -1 12700 1;
#X obj 108 108 vsl 15 128 0.0001 0.065 0 0 empty empty empty 0 -9 0
10 -2112 -1 -1 12700 1;
#X obj 128 108 vsl 15 128 0.0001 0.165 0 0 empty empty empty 0 -9 0
10 -262144 -1 -1 12700 1;
#X msg 1236 87 \; pd dsp 1 \; metro 1;
#X msg 1237 146 \; pd dsp 0 metro 0;
#X obj 2346 -17 bng 30 250 50 0 empty empty empty 17 7 0 10 -262144
-1 -1;
#X floatatom 2346 242 5 0 0 0 - - -, f 5;
#X text 1183 723 comment;
#N canvas 0 50 450 250 (subpatch) 0;
#X array arrayb3 16 float 3;
#A 0 65.41 65.41 65.41 65.41 82.41 82.41 82.41 82.41 110 110 110 110
110 110 110 110;
#X coords 0 1000 16 0 200 140 1;
#X restore 541 838 graph;
#N canvas 0 50 450 250 (subpatch) 0;
#X array arrayb4 16 float 3;
#A 0 263.6 329.6 392 493.9 261.6 329.6 392 493.9 263.6 329.6 392 493.9
263.6 329.6 392 493.9;
#X coords 0 1000 16 0 200 140 1;
#X restore 758 839 graph;
#N canvas 0 50 454 254 (subpatch) 0;
#X array arraya3 16 float 3;
#A 0 0 196 0 196 0 196 0 196 0 196 0 195.7 0 195.5 0 194.7;
#X coords 0 1000 16 0 200 140 1;
#X restore 540 682 graph;
#N canvas 0 50 450 250 (subpatch) 0;
#X array arraya4 16 float 3;
#A 0 0 130.8 0 0 130.8 0 0 130.8 0 0 123.5 123.5 0 130.8 0 130.8;
#X coords 0 1000 16 0 200 140 1;
#X restore 758 683 graph;
#N canvas 0 50 450 250 (subpatch) 0;
#X array arrayd1 16 float 3;
#A 0 65.41 65.41 65.41 65.41 82.41 82.41 82.41 82.41 110 110 110 110
110 110 110 110;
#X coords 0 1000 16 0 200 140 1;
#X restore 106 1149 graph;
#N canvas 0 50 450 250 (subpatch) 0;
#X array arrayd2 16 float 3;
#A 0 263.6 329.6 392 493.9 261.6 329.6 392 493.9 263.6 329.6 392 493.9
263.6 329.6 392 493.9;
#X coords 0 1000 16 0 200 140 1;
#X restore 323 1150 graph;
#N canvas 0 50 454 254 (subpatch) 0;
#X array arrayc1 16 float 3;
#A 0 0 196 0 196 0 196 0 196 0 196 0 195.7 0 195.5 0 194.7;
#X coords 0 1000 16 0 200 140 1;
#X restore 105 993 graph;
#N canvas 0 50 450 250 (subpatch) 0;
#X array arrayc2 16 float 3;
#A 0 98 98 98 98 82.41 82.41 82.41 82.41 132.5 132.5 132.5 132.5 146.8
146.8 130.8 130.8;
#X coords 0 1000 16 0 200 140 1;
#X restore 323 994 graph;
#N canvas 0 50 450 250 (subpatch) 0;
#X array arrayd3 16 float 3;
#A 0 65.41 65.41 65.41 65.41 82.41 82.41 82.41 82.41 110 110 110 110
110 110 110 110;
#X coords 0 1000 16 0 200 140 1;
#X restore 542 1151 graph;
#N canvas 0 50 450 250 (subpatch) 0;
#X array arrayd4 16 float 3;
#A 0 263.6 329.6 392 493.9 261.6 329.6 392 493.9 263.6 329.6 392 493.9
263.6 329.6 392 493.9;
#X coords 0 1000 16 0 200 140 1;
#X restore 759 1152 graph;
#N canvas 0 50 454 254 (subpatch) 0;
#X array arrayc3 16 float 3;
#A 0 0 196 0 196 0 196 0 196 0 196 0 195.7 0 195.5 0 194.7;
#X coords 0 1000 16 0 200 140 1;
#X restore 541 995 graph;
#N canvas 0 50 450 250 (subpatch) 0;
#X array arrayc4 16 float 3;
#A 0 0 130.8 0 0 130.8 0 0 130.8 0 0 123.5 123.5 0 130.8 0 130.8;
#X coords 0 1000 16 0 200 140 1;
#X restore 759 996 graph;
#X msg 1182 252 set arraya1;
#X msg 1182 274 set arraya2;
#X msg 1183 296 set arraya3;
#X msg 1183 318 set arraya4;
#X msg 1184 341 set arrayb1;
#X msg 1184 363 set arrayb2;
#X msg 1185 385 set arrayb3;
#X msg 1186 430 set arrayc1;
#X msg 1186 452 set arrayc2;
#X msg 1187 474 set arrayc3;
#X msg 1187 496 set arrayc4;
#X msg 1188 519 set arrayd1;
#X msg 1188 541 set arrayd2;
#X msg 1189 563 set arrayd3;
#X msg 1189 585 set arrayd4;
#X obj 1152 610 tabread~ arraya1;
#X floatatom 2443 65 5 0 0 0 - - -, f 5;
#X msg 1324 259 set arraya1;
#X msg 1324 281 set arraya2;
#X msg 1325 303 set arraya3;
#X msg 1325 325 set arraya4;
#X msg 1326 348 set arrayb1;
#X msg 1326 370 set arrayb2;
#X msg 1327 392 set arrayb3;
#X msg 1328 437 set arrayc1;
#X msg 1328 459 set arrayc2;
#X msg 1329 481 set arrayc3;
#X msg 1329 503 set arrayc4;
#X msg 1330 526 set arrayd1;
#X msg 1330 548 set arrayd2;
#X msg 1331 570 set arrayd3;
#X msg 1331 592 set arrayd4;
#X msg 1460 270 set arraya1;
#X msg 1460 292 set arraya2;
#X msg 1461 314 set arraya3;
#X msg 1461 336 set arraya4;
#X msg 1462 359 set arrayb1;
#X msg 1462 381 set arrayb2;
#X msg 1463 403 set arrayb3;
#X msg 1464 448 set arrayc1;
#X msg 1464 470 set arrayc2;
#X msg 1465 492 set arrayc3;
#X msg 1465 514 set arrayc4;
#X msg 1466 537 set arrayd1;
#X msg 1466 559 set arrayd2;
#X msg 1467 581 set arrayd3;
#X msg 1467 603 set arrayd4;
#X msg 1619 263 set arraya1;
#X msg 1619 285 set arraya2;
#X msg 1620 307 set arraya3;
#X msg 1620 329 set arraya4;
#X msg 1621 352 set arrayb1;
#X msg 1621 374 set arrayb2;
#X msg 1622 396 set arrayb3;
#X msg 1623 441 set arrayc1;
#X msg 1623 463 set arrayc2;
#X msg 1624 485 set arrayc3;
#X msg 1624 507 set arrayc4;
#X msg 1625 530 set arrayd1;
#X msg 1625 552 set arrayd2;
#X msg 1626 574 set arrayd3;
#X msg 1626 596 set arrayd4;
#X obj 1431 623 tabread~ arraya1;
#X obj 148 269 bng 15 250 50 0 empty empty empty 0 -6 0 10 -258113
-1 -1;
#X obj 1560 619 tabread~ arraya1;
#X obj 1689 157 bng 30 250 50 0 empty empty empty 17 7 0 10 -258113
-1 -1;
#X obj 2267 663 bng 30 250 50 0 empty empty empty 17 7 0 10 -258113
-1 -1;
#X obj 2266 173 bng 30 250 50 0 empty empty empty 17 7 0 10 -258113
-1 -1;
#X obj 450 111 bng 30 250 50 0 empty empty empty 17 7 0 10 -262144
-1 -1;
#X obj 2012 141 / 4;
#X obj 166 269 bng 15 250 50 0 empty empty empty 0 -6 0 10 -262144
-1 -1;
#X obj 184 269 bng 15 250 50 0 empty empty empty 0 -6 0 10 -262144
-1 -1;
#X obj 202 269 bng 15 250 50 0 empty empty empty 0 -6 0 10 -262144
-1 -1;
#X obj 220 269 bng 15 250 50 0 empty empty empty 0 -6 0 10 -258113
-1 -1;
#X obj 238 269 bng 15 250 50 0 empty empty empty 0 -6 0 10 -262144
-1 -1;
#X obj 256 269 bng 15 250 50 0 empty empty empty 0 -6 0 10 -262144
-1 -1;
#X obj 274 269 bng 15 250 50 0 empty empty empty 0 -6 0 10 -262144
-1 -1;
#X obj 292 269 bng 15 250 50 0 empty empty empty 0 -6 0 10 -258113
-1 -1;
#X obj 310 269 bng 15 250 50 0 empty empty empty 0 -6 0 10 -262144
-1 -1;
#X obj 328 269 bng 15 250 50 0 empty empty empty 0 -6 0 10 -262144
-1 -1;
#X obj 346 269 bng 15 250 50 0 empty empty empty 0 -6 0 10 -262144
-1 -1;
#X obj 364 269 bng 15 250 50 0 empty empty empty 0 -6 0 10 -258113
-1 -1;
#X obj 382 269 bng 15 250 50 0 empty empty empty 0 -6 0 10 -262144
-1 -1;
#X obj 400 269 bng 15 250 50 0 empty empty empty 0 -6 0 10 -262144
-1 -1;
#X obj 418 269 bng 15 250 50 0 empty empty empty 0 -6 0 10 -262144
-1 -1;
#X text 149 295 a1 a2 a3 a4 b1 b2 b3 b4 c1 c2 c3 c4 d1 d2 d3 d4;
#X text -104 875 fix arrayd4 > b4;
#X obj 1761 640 osc~ 440;
#X obj 1706 729 *~;
#X obj 1772 713 line~;
#X msg 1769 688 0 100;
#X floatatom 1695 222 5 0 0 0 - - -, f 5;
#X obj 1734 198 phasor~ 1;
#X obj 1736 221 *~ 16;
#X obj 1898 714 line~;
#X msg 1899 682 0 100;
#X floatatom 1837 236 5 0 0 0 - - -, f 5;
#X obj 1871 212 phasor~ 1;
#X obj 1873 235 *~ 16;
#X obj 388 184 bng 30 250 50 0 empty empty empty 17 7 0 10 -262144
-1 -1;
#X obj 1820 727 *~;
#X obj 1943 723 *~;
#X obj 2028 713 line~;
#X msg 2024 687 0 100;
#X floatatom 1976 235 5 0 0 0 - - -, f 5;
#X obj 2012 210 phasor~ 1;
#X obj 2015 234 *~ 16;
#X obj 2182 644 osc~ 440;
#X obj 2185 711 line~;
#X msg 2184 686 0 100;
#X floatatom 2129 229 5 0 0 0 - - -, f 5;
#X obj 2174 210 phasor~ 1;
#X obj 2176 233 *~ 16;
#X obj 387 151 bng 30 250 50 0 empty empty empty 17 7 0 10 -262144
-1 -1;
#X obj 2100 729 *~;
#X obj 2019 646 osc~ 880;
#X obj 1894 639 osc~ 220;
#X floatatom 2129 212 5 0 0 0 - - -, f 5;
#X floatatom 1693 199 5 0 0 0 - - -, f 5;
#X floatatom 1835 213 5 0 0 0 - - -, f 5;
#X floatatom 1974 211 5 0 0 0 - - -, f 5;
#X text 1753 723 comment;
#X msg 1752 252 set arraya1;
#X msg 1752 274 set arraya2;
#X msg 1753 296 set arraya3;
#X msg 1753 318 set arraya4;
#X msg 1754 341 set arrayb1;
#X msg 1754 363 set arrayb2;
#X msg 1755 385 set arrayb3;
#X msg 1756 430 set arrayc1;
#X msg 1756 452 set arrayc2;
#X msg 1757 474 set arrayc3;
#X msg 1757 496 set arrayc4;
#X msg 1758 519 set arrayd1;
#X msg 1758 541 set arrayd2;
#X msg 1759 563 set arrayd3;
#X msg 1759 585 set arrayd4;
#X msg 1894 259 set arraya1;
#X msg 1894 281 set arraya2;
#X msg 1895 303 set arraya3;
#X msg 1895 325 set arraya4;
#X msg 1896 348 set arrayb1;
#X msg 1896 370 set arrayb2;
#X msg 1897 392 set arrayb3;
#X msg 1898 437 set arrayc1;
#X msg 1898 459 set arrayc2;
#X msg 1899 481 set arrayc3;
#X msg 1899 503 set arrayc4;
#X msg 1900 526 set arrayd1;
#X msg 1900 548 set arrayd2;
#X msg 1901 570 set arrayd3;
#X msg 1901 592 set arrayd4;
#X msg 2030 270 set arraya1;
#X msg 2030 292 set arraya2;
#X msg 2031 314 set arraya3;
#X msg 2031 336 set arraya4;
#X msg 2032 359 set arrayb1;
#X msg 2032 381 set arrayb2;
#X msg 2033 403 set arrayb3;
#X msg 2034 448 set arrayc1;
#X msg 2034 470 set arrayc2;
#X msg 2035 492 set arrayc3;
#X msg 2035 514 set arrayc4;
#X msg 2036 537 set arrayd1;
#X msg 2036 559 set arrayd2;
#X msg 2037 581 set arrayd3;
#X msg 2037 603 set arrayd4;
#X msg 2189 263 set arraya1;
#X msg 2189 285 set arraya2;
#X msg 2190 307 set arraya3;
#X msg 2190 329 set arraya4;
#X msg 2191 352 set arrayb1;
#X msg 2191 374 set arrayb2;
#X msg 2192 396 set arrayb3;
#X msg 2193 441 set arrayc1;
#X msg 2193 463 set arrayc2;
#X msg 2194 485 set arrayc3;
#X msg 2194 507 set arrayc4;
#X msg 2195 530 set arrayd1;
#X msg 2195 552 set arrayd2;
#X msg 2196 574 set arrayd3;
#X msg 2196 596 set arrayd4;
#X obj 151 326 bng 15 250 50 0 empty empty empty 0 -6 0 10 -258113
-1 -1;
#X obj 169 326 bng 15 250 50 0 empty empty empty 0 -6 0 10 -262144
-1 -1;
#X obj 187 326 bng 15 250 50 0 empty empty empty 0 -6 0 10 -262144
-1 -1;
#X obj 205 326 bng 15 250 50 0 empty empty empty 0 -6 0 10 -262144
-1 -1;
#X obj 223 326 bng 15 250 50 0 empty empty empty 0 -6 0 10 -258113
-1 -1;
#X obj 241 326 bng 15 250 50 0 empty empty empty 0 -6 0 10 -262144
-1 -1;
#X obj 259 326 bng 15 250 50 0 empty empty empty 0 -6 0 10 -262144
-1 -1;
#X obj 277 326 bng 15 250 50 0 empty empty empty 0 -6 0 10 -262144
-1 -1;
#X obj 295 326 bng 15 250 50 0 empty empty empty 0 -6 0 10 -258113
-1 -1;
#X obj 313 326 bng 15 250 50 0 empty empty empty 0 -6 0 10 -262144
-1 -1;
#X obj 331 326 bng 15 250 50 0 empty empty empty 0 -6 0 10 -262144
-1 -1;
#X obj 349 326 bng 15 250 50 0 empty empty empty 0 -6 0 10 -262144
-1 -1;
#X obj 367 326 bng 15 250 50 0 empty empty empty 0 -6 0 10 -258113
-1 -1;
#X obj 385 326 bng 15 250 50 0 empty empty empty 0 -6 0 10 -262144
-1 -1;
#X obj 403 326 bng 15 250 50 0 empty empty empty 0 -6 0 10 -262144
-1 -1;
#X obj 421 326 bng 15 250 50 0 empty empty empty 0 -6 0 10 -262144
-1 -1;
#X text 152 352 a1 a2 a3 a4 b1 b2 b3 b4 c1 c2 c3 c4 d1 d2 d3 d4;
#X obj 2856 1058 dac~;
#X obj 2340 654 osc~ 440;
#X obj 2285 743 *~;
#X obj 2351 727 line~;
#X msg 2348 702 0 100;
#X floatatom 2274 236 5 0 0 0 - - -, f 5;
#X obj 2313 212 phasor~ 1;
#X obj 2315 235 *~ 16;
#X obj 2477 728 line~;
#X msg 2478 696 0 100;
#X floatatom 2416 250 5 0 0 0 - - -, f 5;
#X obj 2450 226 phasor~ 1;
#X obj 2452 249 *~ 16;
#X obj 421 183 bng 30 250 50 0 empty empty empty 17 7 0 10 -262144
-1 -1;
#X obj 2838 663 bng 30 250 50 0 empty empty empty 17 7 0 10 -258113
-1 -1;
#X obj 2399 741 *~;
#X obj 2522 737 *~;
#X obj 2607 727 line~;
#X msg 2603 701 0 100;
#X floatatom 2555 249 5 0 0 0 - - -, f 5;
#X obj 2591 224 phasor~ 1;
#X obj 2594 248 *~ 16;
#X obj 2761 658 osc~ 440;
#X obj 2764 725 line~;
#X msg 2763 700 0 100;
#X floatatom 2708 243 5 0 0 0 - - -, f 5;
#X obj 2753 224 phasor~ 1;
#X obj 2755 247 *~ 16;
#X obj 421 151 bng 30 250 50 0 empty empty empty 17 7 0 10 -262144
-1 -1;
#X obj 2679 743 *~;
#X obj 2598 660 osc~ 880;
#X obj 2473 653 osc~ 220;
#X floatatom 2708 226 5 0 0 0 - - -, f 5;
#X floatatom 2272 213 5 0 0 0 - - -, f 5;
#X floatatom 2414 227 5 0 0 0 - - -, f 5;
#X floatatom 2553 225 5 0 0 0 - - -, f 5;
#X text 2332 737 comment;
#X msg 2331 266 set arraya1;
#X msg 2331 288 set arraya2;
#X msg 2332 310 set arraya3;
#X msg 2332 332 set arraya4;
#X msg 2333 355 set arrayb1;
#X msg 2333 377 set arrayb2;
#X msg 2334 399 set arrayb3;
#X msg 2335 444 set arrayc1;
#X msg 2335 466 set arrayc2;
#X msg 2336 488 set arrayc3;
#X msg 2336 510 set arrayc4;
#X msg 2337 533 set arrayd1;
#X msg 2337 555 set arrayd2;
#X msg 2338 577 set arrayd3;
#X msg 2338 599 set arrayd4;
#X msg 2473 273 set arraya1;
#X msg 2473 295 set arraya2;
#X msg 2474 317 set arraya3;
#X msg 2474 339 set arraya4;
#X msg 2475 362 set arrayb1;
#X msg 2475 384 set arrayb2;
#X msg 2476 406 set arrayb3;
#X msg 2477 451 set arrayc1;
#X msg 2477 473 set arrayc2;
#X msg 2478 495 set arrayc3;
#X msg 2478 517 set arrayc4;
#X msg 2479 540 set arrayd1;
#X msg 2479 562 set arrayd2;
#X msg 2480 584 set arrayd3;
#X msg 2482 607 set arrayd4;
#X msg 2609 284 set arraya1;
#X msg 2609 306 set arraya2;
#X msg 2610 328 set arraya3;
#X msg 2610 350 set arraya4;
#X msg 2611 373 set arrayb1;
#X msg 2611 395 set arrayb2;
#X msg 2612 417 set arrayb3;
#X msg 2613 462 set arrayc1;
#X msg 2613 484 set arrayc2;
#X msg 2614 506 set arrayc3;
#X msg 2614 528 set arrayc4;
#X msg 2615 551 set arrayd1;
#X msg 2615 573 set arrayd2;
#X msg 2616 595 set arrayd3;
#X msg 2616 617 set arrayd4;
#X msg 2768 277 set arraya1;
#X msg 2768 299 set arraya2;
#X msg 2769 321 set arraya3;
#X msg 2769 343 set arraya4;
#X msg 2770 366 set arrayb1;
#X msg 2770 388 set arrayb2;
#X msg 2771 410 set arrayb3;
#X msg 2772 455 set arrayc1;
#X msg 2772 477 set arrayc2;
#X msg 2773 499 set arrayc3;
#X msg 2773 521 set arrayc4;
#X msg 2774 544 set arrayd1;
#X msg 2774 566 set arrayd2;
#X msg 2775 588 set arrayd3;
#X msg 2775 610 set arrayd4;
#X obj 156 392 bng 15 250 50 0 empty empty empty 0 -6 0 10 -258113
-1 -1;
#X obj 2838 171 bng 30 250 50 0 empty empty empty 17 7 0 10 -258113
-1 -1;
#X obj 174 392 bng 15 250 50 0 empty empty empty 0 -6 0 10 -262144
-1 -1;
#X obj 192 392 bng 15 250 50 0 empty empty empty 0 -6 0 10 -262144
-1 -1;
#X obj 210 392 bng 15 250 50 0 empty empty empty 0 -6 0 10 -262144
-1 -1;
#X obj 228 392 bng 15 250 50 0 empty empty empty 0 -6 0 10 -258113
-1 -1;
#X obj 246 392 bng 15 250 50 0 empty empty empty 0 -6 0 10 -262144
-1 -1;
#X obj 264 392 bng 15 250 50 0 empty empty empty 0 -6 0 10 -262144
-1 -1;
#X obj 282 392 bng 15 250 50 0 empty empty empty 0 -6 0 10 -262144
-1 -1;
#X obj 300 392 bng 15 250 50 0 empty empty empty 0 -6 0 10 -258113
-1 -1;
#X obj 318 392 bng 15 250 50 0 empty empty empty 0 -6 0 10 -262144
-1 -1;
#X obj 336 392 bng 15 250 50 0 empty empty empty 0 -6 0 10 -262144
-1 -1;
#X obj 354 392 bng 15 250 50 0 empty empty empty 0 -6 0 10 -262144
-1 -1;
#X obj 372 392 bng 15 250 50 0 empty empty empty 0 -6 0 10 -258113
-1 -1;
#X obj 390 392 bng 15 250 50 0 empty empty empty 0 -6 0 10 -262144
-1 -1;
#X obj 408 392 bng 15 250 50 0 empty empty empty 0 -6 0 10 -262144
-1 -1;
#X obj 426 392 bng 15 250 50 0 empty empty empty 0 -6 0 10 -262144
-1 -1;
#X obj 2910 654 osc~ 440;
#X obj 2855 743 *~;
#X obj 2921 727 line~;
#X msg 2918 702 0 100;
#X floatatom 2844 236 5 0 0 0 - - -, f 5;
#X obj 2883 212 phasor~ 1;
#X obj 2885 235 *~ 16;
#X obj 3047 728 line~;
#X msg 3048 696 0 100;
#X floatatom 2986 250 5 0 0 0 - - -, f 5;
#X obj 3020 226 phasor~ 1;
#X obj 3022 249 *~ 16;
#X obj 456 184 bng 30 250 50 0 empty empty empty 17 7 0 10 -262144
-1 -1;
#X obj 2969 741 *~;
#X obj 3092 737 *~;
#X obj 3177 727 line~;
#X msg 3173 701 0 100;
#X floatatom 3125 249 5 0 0 0 - - -, f 5;
#X obj 3161 224 phasor~ 1;
#X obj 3164 248 *~ 16;
#X obj 3331 658 osc~ 440;
#X obj 3334 725 line~;
#X msg 3333 700 0 100;
#X floatatom 3278 243 5 0 0 0 - - -, f 5;
#X obj 3323 224 phasor~ 1;
#X obj 3325 247 *~ 16;
#X obj 455 151 bng 30 250 50 0 empty empty empty 17 7 0 10 -262144
-1 -1;
#X obj 3249 743 *~;
#X obj 3168 660 osc~ 880;
#X obj 3043 653 osc~ 220;
#X floatatom 3278 226 5 0 0 0 - - -, f 5;
#X floatatom 2842 213 5 0 0 0 - - -, f 5;
#X floatatom 2984 227 5 0 0 0 - - -, f 5;
#X floatatom 3123 225 5 0 0 0 - - -, f 5;
#X text 2902 737 comment;
#X msg 2901 266 set arraya1;
#X msg 2901 288 set arraya2;
#X msg 2902 310 set arraya3;
#X msg 2902 332 set arraya4;
#X msg 2903 355 set arrayb1;
#X msg 2903 377 set arrayb2;
#X msg 2904 399 set arrayb3;
#X msg 2905 444 set arrayc1;
#X msg 2905 466 set arrayc2;
#X msg 2906 488 set arrayc3;
#X msg 2906 510 set arrayc4;
#X msg 2907 533 set arrayd1;
#X msg 2907 555 set arrayd2;
#X msg 2908 577 set arrayd3;
#X msg 2908 599 set arrayd4;
#X msg 3043 273 set arraya1;
#X msg 3043 295 set arraya2;
#X msg 3044 317 set arraya3;
#X msg 3044 339 set arraya4;
#X msg 3045 362 set arrayb1;
#X msg 3045 384 set arrayb2;
#X msg 3046 406 set arrayb3;
#X msg 3047 451 set arrayc1;
#X msg 3047 473 set arrayc2;
#X msg 3048 495 set arrayc3;
#X msg 3048 517 set arrayc4;
#X msg 3049 540 set arrayd1;
#X msg 3049 562 set arrayd2;
#X msg 3050 584 set arrayd3;
#X msg 3050 606 set arrayd4;
#X msg 3179 284 set arraya1;
#X msg 3179 306 set arraya2;
#X msg 3180 328 set arraya3;
#X msg 3180 350 set arraya4;
#X msg 3181 373 set arrayb1;
#X msg 3181 395 set arrayb2;
#X msg 3182 417 set arrayb3;
#X msg 3183 462 set arrayc1;
#X msg 3183 484 set arrayc2;
#X msg 3184 506 set arrayc3;
#X msg 3184 528 set arrayc4;
#X msg 3185 551 set arrayd1;
#X msg 3185 573 set arrayd2;
#X msg 3186 595 set arrayd3;
#X msg 3186 617 set arrayd4;
#X msg 3338 277 set arraya1;
#X msg 3338 299 set arraya2;
#X msg 3339 321 set arraya3;
#X msg 3339 343 set arraya4;
#X msg 3340 366 set arrayb1;
#X msg 3340 388 set arrayb2;
#X msg 3341 410 set arrayb3;
#X msg 3341 432 set arrayd4;
#X msg 3342 455 set arrayc1;
#X msg 3342 477 set arrayc2;
#X msg 3343 499 set arrayc3;
#X msg 3343 521 set arrayc4;
#X msg 3344 544 set arrayd1;
#X msg 3344 566 set arrayd2;
#X msg 3345 588 set arrayd3;
#X msg 3345 610 set arrayd4;
#X obj 159 450 bng 15 250 50 0 empty empty empty 0 -6 0 10 -258113
-1 -1;
#X obj 177 450 bng 15 250 50 0 empty empty empty 0 -6 0 10 -262144
-1 -1;
#X obj 195 450 bng 15 250 50 0 empty empty empty 0 -6 0 10 -262144
-1 -1;
#X obj 213 450 bng 15 250 50 0 empty empty empty 0 -6 0 10 -262144
-1 -1;
#X obj 231 450 bng 15 250 50 0 empty empty empty 0 -6 0 10 -258113
-1 -1;
#X obj 249 450 bng 15 250 50 0 empty empty empty 0 -6 0 10 -262144
-1 -1;
#X obj 267 450 bng 15 250 50 0 empty empty empty 0 -6 0 10 -262144
-1 -1;
#X obj 285 450 bng 15 250 50 0 empty empty empty 0 -6 0 10 -262144
-1 -1;
#X obj 303 450 bng 15 250 50 0 empty empty empty 0 -6 0 10 -258113
-1 -1;
#X obj 321 450 bng 15 250 50 0 empty empty empty 0 -6 0 10 -262144
-1 -1;
#X obj 339 450 bng 15 250 50 0 empty empty empty 0 -6 0 10 -262144
-1 -1;
#X obj 357 450 bng 15 250 50 0 empty empty empty 0 -6 0 10 -262144
-1 -1;
#X obj 375 450 bng 15 250 50 0 empty empty empty 0 -6 0 10 -258113
-1 -1;
#X obj 393 450 bng 15 250 50 0 empty empty empty 0 -6 0 10 -262144
-1 -1;
#X obj 411 450 bng 15 250 50 0 empty empty empty 0 -6 0 10 -262144
-1 -1;
#X obj 429 450 bng 15 250 50 0 empty empty empty 0 -6 0 10 -262144
-1 -1;
#X obj 1722 610 tabread~ arraya2;
#X obj 2001 623 tabread~ arraya2;
#X obj 2130 619 tabread~ arraya2;
#X obj 2301 624 tabread~ arraya3;
#X obj 2448 631 tabread~ arraya3;
#X obj 2580 637 tabread~ arraya3;
#X obj 2709 633 tabread~ arraya3;
#X obj 2871 624 tabread~ arraya4;
#X obj 3021 629 tabread~ arraya4;
#X obj 3150 637 tabread~ arraya4;
#X obj 3279 633 tabread~ arraya4;
#X obj 2577 129 / 2;
#X text 156 418 a1 a2 a3 a4 b1 b2 b3 b4 c1 c2 c3 c4 d1 d2 d3 d4;
#X text 158 476 a1 a2 a3 a4 b1 b2 b3 b4 c1 c2 c3 c4 d1 d2 d3 d4;
#X msg 2445 14 0.323;
#X obj 2529 27 loadbang;
#X msg 1185 407 set arrayb4;
#X msg 1327 414 set arrayb4;
#X msg 1463 425 set arrayb4;
#X msg 1622 418 set arrayb4;
#X msg 1755 407 set arrayb4;
#X msg 1897 414 set arrayb4;
#X msg 2033 425 set arrayb4;
#X msg 2192 418 set arrayb4;
#X msg 2334 421 set arrayb4;
#X msg 2476 428 set arrayb4;
#X msg 2612 439 set arrayb4;
#X msg 2770 432 set arrayb4;
#X msg 2904 421 set arrayb4;
#X msg 3046 428 set arrayb4;
#X msg 3182 439 set arrayb4;
#X obj -99 1070;
#X obj -82 1174;
#X msg -84 1206;
#X floatatom -84 1237 5 0 0 0 - - -, f 5;
#X symbolatom -86 1266 10 0 0 0 - - -, f 10;
#X text -81 1294 comment;
#X obj -80 1332 bng 15 250 50 0 empty empty empty 0 -6 0 10 -262144
-1 -1;
#X obj -80 1360 tgl 15 0 empty empty empty 0 -6 0 10 -262144 -1 -1
0 1;
#X obj -83 1387 nbx 5 14 -1e+037 1e+037 0 0 empty empty empty 0 -6
0 10 -262144 -1 -1 0 256;
#X obj -82 1412 vsl 15 128 0 127 0 0 empty empty empty 0 -8 0 10 -262144
-1 -1 0 1;
#X obj -82 1555 hsl 128 15 0 127 0 0 empty empty empty -2 -6 0 10 -262144
-1 -1 0 1;
#X obj -85 1589 vradio 15 1 0 8 empty empty empty 0 -6 0 10 -262144
-1 -1 0;
#X obj -60 1691 hradio 15 1 0 8 empty empty empty 0 -6 0 10 -262144
-1 -1 0;
#X obj -101 906 vu 15 120 empty empty -1 -8 0 10 -66577 -1 1 0;
#X obj -16 1437 cnv 15 100 60 empty empty empty 20 12 0 14 -233017
-66577 0;
#X obj 1882 616 tabread~ arraya2;
#X obj 1293 614 tabread~ arraya1;
#X obj 1460 855 /~ 4;
#X obj 1506 850 /~ 2;
#X obj 1576 850 /~ 2;
#X obj 1629 851 /~ 4;
#X obj 1674 853 /~ 2;
#X obj 1720 855 /~ 4;
#X obj 2598 899 /~ 2;
#X obj 2651 900 /~ 4;
#X obj 2696 902 /~ 2;
#X obj 2742 898 /~ 4;
#X obj 2812 898 /~ 4;
#X obj 2866 899 /~ 2;
#X obj 2910 901 /~ 2;
#X obj 2957 904 /~ 4;
#X obj 1410 846 /~ 4;
#X obj 1362 851 /~ 2;
#X obj 197 112 bng 15 250 50 0 empty empty empty 17 7 0 10 -262144
-1 -1;
#X obj 215 112 bng 15 250 50 0 empty empty empty 17 7 0 10 -262144
-1 -1;
#X obj 233 112 bng 15 250 50 0 empty empty empty 17 7 0 10 -262144
-1 -1;
#X obj 215 134 bng 15 250 50 0 empty empty empty 17 7 0 10 -262144
-1 -1;
#X obj 233 134 bng 15 250 50 0 empty empty empty 17 7 0 10 -262144
-1 -1;
#X obj 251 112 bng 15 250 50 0 empty empty empty 17 7 0 10 -262144
-1 -1;
#X obj 197 134 bng 15 250 50 0 empty empty empty 17 7 0 10 -262144
-1 -1;
#X obj 251 134 bng 15 250 50 0 empty empty empty 17 7 0 10 -262144
-1 -1;
#X obj 197 159 bng 15 250 50 0 empty empty empty 17 7 0 10 -262144
-1 -1;
#X obj 215 159 bng 15 250 50 0 empty empty empty 17 7 0 10 -262144
-1 -1;
#X obj 233 159 bng 15 250 50 0 empty empty empty 17 7 0 10 -262144
-1 -1;
#X obj 251 159 bng 15 250 50 0 empty empty empty 17 7 0 10 -262144
-1 -1;
#X obj 199 186 bng 15 250 50 0 empty empty empty 17 7 0 10 -262144
-1 -1;
#X obj 217 186 bng 15 250 50 0 empty empty empty 17 7 0 10 -262144
-1 -1;
#X obj 235 186 bng 15 250 50 0 empty empty empty 17 7 0 10 -262144
-1 -1;
#X obj 253 186 bng 15 250 50 0 empty empty empty 17 7 0 10 -262144
-1 -1;
#X obj 284 186 bng 15 250 50 0 empty empty empty 17 7 0 10 -262144
-1 -1;
#X msg 1194 666 0.065 100;
#X msg 1327 660 0.065 100;
#X msg 1452 666 0.065 100;
#X msg 1613 665 0.065 100;
#X msg 1764 666 0.165 100;
#X msg 1896 660 0.165 100;
#X msg 2022 666 0.165 100;
#X msg 2183 665 0.165 100;
#X msg 2343 680 0.267 100;
#X msg 2476 674 0.267 100;
#X msg 2601 680 0.267 100;
#X msg 2762 679 0.267 100;
#X floatatom 3183 1121 5 0 0 0 - - -, f 5;
#X msg 2913 680 0.129 100;
#X msg 3046 674 0.129 100;
#X msg 3171 680 0.129 100;
#X msg 3332 679 0.129 100;
#X connect 1 0 2 0;
#X connect 2 0 550 0;
#X connect 3 0 2 1;
#X connect 4 0 3 0;
#X connect 6 0 77 0;
#X connect 7 0 8 0;
#X connect 8 0 77 0;
#X connect 9 0 18 1;
#X connect 10 0 9 0;
#X connect 12 0 534 0;
#X connect 13 0 14 0;
#X connect 14 0 534 0;
#X connect 15 0 4 0;
#X connect 15 0 10 0;
#X connect 15 0 21 0;
#X connect 15 0 28 0;
#X connect 17 0 377 0;
#X connect 17 0 382 0;
#X connect 17 0 390 0;
#X connect 17 0 396 0;
#X connect 17 0 580 0;
#X connect 18 0 549 0;
#X connect 19 0 535 0;
#X connect 20 0 19 1;
#X connect 21 0 20 0;
#X connect 23 0 124 0;
#X connect 24 0 25 0;
#X connect 25 0 124 0;
#X connect 26 0 35 0;
#X connect 27 0 35 1;
#X connect 28 0 27 0;
#X connect 30 0 126 0;
#X connect 31 0 32 0;
#X connect 32 0 126 0;
#X connect 33 0 568 0;
#X connect 33 0 569 0;
#X connect 33 0 570 0;
#X connect 33 0 571 0;
#X connect 34 0 33 0;
#X connect 34 0 175 0;
#X connect 34 0 289 0;
#X connect 34 0 401 0;
#X connect 35 0 536 0;
#X connect 36 0 19 0;
#X connect 37 0 18 0;
#X connect 38 0 31 0;
#X connect 39 0 7 0;
#X connect 40 0 13 0;
#X connect 41 0 24 0;
#X connect 42 0 264 0;
#X connect 42 0 269 0;
#X connect 42 0 278 0;
#X connect 42 0 284 0;
#X connect 43 0 3 0;
#X connect 43 0 9 0;
#X connect 43 0 20 0;
#X connect 43 0 27 0;
#X connect 44 0 151 0;
#X connect 44 0 156 0;
#X connect 44 0 164 0;
#X connect 44 0 170 0;
#X connect 62 0 77 0;
#X connect 63 0 77 0;
#X connect 64 0 77 0;
#X connect 66 0 77 0;
#X connect 67 0 77 0;
#X connect 68 0 77 0;
#X connect 69 0 77 0;
#X connect 70 0 77 0;
#X connect 71 0 77 0;
#X connect 72 0 77 0;
#X connect 73 0 77 0;
#X connect 74 0 77 0;
#X connect 75 0 77 0;
#X connect 76 0 77 0;
#X connect 77 0 1 0;
#X connect 78 0 38 0;
#X connect 78 0 41 0;
#X connect 78 0 40 0;
#X connect 78 0 39 0;
#X connect 78 0 131 0;
#X connect 78 0 405 0;
#X connect 78 0 408 0;
#X connect 78 0 407 0;
#X connect 78 0 406 0;
#X connect 78 0 498 0;
#X connect 79 0 534 0;
#X connect 80 0 534 0;
#X connect 81 0 534 0;
#X connect 82 0 534 0;
#X connect 83 0 534 0;
#X connect 84 0 534 0;
#X connect 85 0 534 0;
#X connect 86 0 534 0;
#X connect 87 0 534 0;
#X connect 88 0 534 0;
#X connect 89 0 534 0;
#X connect 90 0 534 0;
#X connect 91 0 534 0;
#X connect 92 0 534 0;
#X connect 93 0 534 0;
#X connect 94 0 124 0;
#X connect 95 0 124 0;
#X connect 96 0 124 0;
#X connect 97 0 124 0;
#X connect 98 0 124 0;
#X connect 99 0 124 0;
#X connect 100 0 124 0;
#X connect 101 0 124 0;
#X connect 102 0 124 0;
#X connect 103 0 124 0;
#X connect 104 0 124 0;
#X connect 105 0 124 0;
#X connect 106 0 124 0;
#X connect 107 0 124 0;
#X connect 108 0 124 0;
#X connect 109 0 126 0;
#X connect 110 0 126 0;
#X connect 111 0 126 0;
#X connect 112 0 126 0;
#X connect 113 0 126 0;
#X connect 114 0 126 0;
#X connect 115 0 126 0;
#X connect 116 0 126 0;
#X connect 117 0 126 0;
#X connect 118 0 126 0;
#X connect 119 0 126 0;
#X connect 120 0 126 0;
#X connect 121 0 126 0;
#X connect 122 0 126 0;
#X connect 123 0 126 0;
#X connect 124 0 36 0;
#X connect 125 0 62 0;
#X connect 125 0 79 0;
#X connect 125 0 94 0;
#X connect 125 0 109 0;
#X connect 126 0 26 0;
#X connect 130 0 15 0;
#X connect 130 0 161 0;
#X connect 130 0 274 0;
#X connect 130 0 387 0;
#X connect 131 0 180 0;
#X connect 131 0 181 0;
#X connect 131 0 182 0;
#X connect 131 0 179 0;
#X connect 132 0 63 0;
#X connect 132 0 80 0;
#X connect 132 0 95 0;
#X connect 132 0 110 0;
#X connect 133 0 64 0;
#X connect 133 0 81 0;
#X connect 133 0 96 0;
#X connect 133 0 111 0;
#X connect 134 0 65 0;
#X connect 134 0 82 0;
#X connect 134 0 97 0;
#X connect 134 0 112 0;
#X connect 135 0 66 0;
#X connect 135 0 83 0;
#X connect 135 0 98 0;
#X connect 135 0 113 0;
#X connect 136 0 67 0;
#X connect 136 0 84 0;
#X connect 136 0 99 0;
#X connect 136 0 114 0;
#X connect 137 0 68 0;
#X connect 137 0 85 0;
#X connect 137 0 100 0;
#X connect 137 0 115 0;
#X connect 138 0 72 0;
#X connect 138 0 504 0;
#X connect 138 0 505 0;
#X connect 138 0 506 0;
#X connect 139 0 69 0;
#X connect 139 0 86 0;
#X connect 139 0 101 0;
#X connect 139 0 116 0;
#X connect 140 0 70 0;
#X connect 140 0 87 0;
#X connect 140 0 102 0;
#X connect 140 0 117 0;
#X connect 141 0 71 0;
#X connect 141 0 88 0;
#X connect 141 0 103 0;
#X connect 141 0 118 0;
#X connect 142 0 72 0;
#X connect 142 0 89 0;
#X connect 142 0 104 0;
#X connect 142 0 119 0;
#X connect 143 0 73 0;
#X connect 143 0 90 0;
#X connect 143 0 105 0;
#X connect 143 0 120 0;
#X connect 144 0 74 0;
#X connect 144 0 91 0;
#X connect 144 0 106 0;
#X connect 144 0 121 0;
#X connect 145 0 75 0;
#X connect 145 0 92 0;
#X connect 145 0 107 0;
#X connect 145 0 122 0;
#X connect 146 0 76 0;
#X connect 146 0 93 0;
#X connect 146 0 108 0;
#X connect 146 0 123 0;
#X connect 149 0 150 0;
#X connect 150 0 537 0;
#X connect 151 0 150 1;
#X connect 152 0 151 0;
#X connect 153 0 487 0;
#X connect 154 0 155 0;
#X connect 155 0 487 0;
#X connect 156 0 162 1;
#X connect 157 0 156 0;
#X connect 158 0 533 0;
#X connect 159 0 160 0;
#X connect 160 0 533 0;
#X connect 161 0 152 0;
#X connect 161 0 157 0;
#X connect 161 0 165 0;
#X connect 161 0 171 0;
#X connect 162 0 538 0;
#X connect 163 0 539 0;
#X connect 164 0 163 1;
#X connect 165 0 164 0;
#X connect 166 0 488 0;
#X connect 167 0 168 0;
#X connect 168 0 488 0;
#X connect 169 0 176 0;
#X connect 170 0 176 1;
#X connect 171 0 170 0;
#X connect 172 0 489 0;
#X connect 173 0 174 0;
#X connect 174 0 489 0;
#X connect 175 0 572 0;
#X connect 175 0 573 0;
#X connect 175 0 574 0;
#X connect 175 0 575 0;
#X connect 176 0 540 0;
#X connect 177 0 163 0;
#X connect 178 0 162 0;
#X connect 179 0 173 0;
#X connect 180 0 154 0;
#X connect 181 0 159 0;
#X connect 182 0 167 0;
#X connect 184 0 487 0;
#X connect 185 0 487 0;
#X connect 186 0 487 0;
#X connect 188 0 487 0;
#X connect 189 0 487 0;
#X connect 190 0 487 0;
#X connect 191 0 487 0;
#X connect 192 0 487 0;
#X connect 193 0 487 0;
#X connect 194 0 487 0;
#X connect 195 0 487 0;
#X connect 196 0 487 0;
#X connect 197 0 487 0;
#X connect 198 0 487 0;
#X connect 199 0 533 0;
#X connect 200 0 533 0;
#X connect 201 0 533 0;
#X connect 202 0 533 0;
#X connect 203 0 533 0;
#X connect 204 0 533 0;
#X connect 205 0 533 0;
#X connect 206 0 533 0;
#X connect 207 0 533 0;
#X connect 208 0 533 0;
#X connect 209 0 533 0;
#X connect 210 0 533 0;
#X connect 211 0 533 0;
#X connect 212 0 533 0;
#X connect 213 0 533 0;
#X connect 214 0 488 0;
#X connect 215 0 488 0;
#X connect 216 0 488 0;
#X connect 217 0 488 0;
#X connect 218 0 488 0;
#X connect 219 0 488 0;
#X connect 220 0 488 0;
#X connect 221 0 488 0;
#X connect 222 0 488 0;
#X connect 223 0 488 0;
#X connect 224 0 488 0;
#X connect 225 0 488 0;
#X connect 226 0 488 0;
#X connect 227 0 488 0;
#X connect 228 0 488 0;
#X connect 229 0 489 0;
#X connect 230 0 489 0;
#X connect 231 0 489 0;
#X connect 232 0 489 0;
#X connect 233 0 489 0;
#X connect 234 0 489 0;
#X connect 235 0 489 0;
#X connect 236 0 489 0;
#X connect 237 0 489 0;
#X connect 238 0 489 0;
#X connect 239 0 489 0;
#X connect 240 0 489 0;
#X connect 241 0 489 0;
#X connect 242 0 489 0;
#X connect 243 0 489 0;
#X connect 244 0 184 0;
#X connect 244 0 199 0;
#X connect 244 0 214 0;
#X connect 244 0 229 0;
#X connect 245 0 185 0;
#X connect 245 0 200 0;
#X connect 245 0 215 0;
#X connect 245 0 230 0;
#X connect 246 0 186 0;
#X connect 246 0 201 0;
#X connect 246 0 216 0;
#X connect 246 0 231 0;
#X connect 247 0 187 0;
#X connect 247 0 202 0;
#X connect 247 0 217 0;
#X connect 247 0 232 0;
#X connect 248 0 188 0;
#X connect 248 0 203 0;
#X connect 248 0 218 0;
#X connect 248 0 233 0;
#X connect 249 0 189 0;
#X connect 249 0 204 0;
#X connect 249 0 219 0;
#X connect 249 0 234 0;
#X connect 250 0 190 0;
#X connect 250 0 205 0;
#X connect 250 0 220 0;
#X connect 250 0 235 0;
#X connect 251 0 194 0;
#X connect 251 0 508 0;
#X connect 251 0 509 0;
#X connect 251 0 510 0;
#X connect 252 0 191 0;
#X connect 252 0 206 0;
#X connect 252 0 221 0;
#X connect 252 0 236 0;
#X connect 253 0 192 0;
#X connect 253 0 207 0;
#X connect 253 0 222 0;
#X connect 253 0 237 0;
#X connect 254 0 193 0;
#X connect 254 0 208 0;
#X connect 254 0 223 0;
#X connect 254 0 238 0;
#X connect 255 0 194 0;
#X connect 255 0 209 0;
#X connect 255 0 224 0;
#X connect 255 0 239 0;
#X connect 256 0 195 0;
#X connect 256 0 210 0;
#X connect 256 0 225 0;
#X connect 256 0 240 0;
#X connect 257 0 196 0;
#X connect 257 0 211 0;
#X connect 257 0 226 0;
#X connect 257 0 241 0;
#X connect 258 0 197 0;
#X connect 258 0 212 0;
#X connect 258 0 227 0;
#X connect 258 0 242 0;
#X connect 259 0 198 0;
#X connect 259 0 213 0;
#X connect 259 0 228 0;
#X connect 259 0 243 0;
#X connect 262 0 263 0;
#X connect 263 0 541 0;
#X connect 264 0 263 1;
#X connect 265 0 264 0;
#X connect 266 0 490 0;
#X connect 267 0 268 0;
#X connect 268 0 490 0;
#X connect 269 0 276 1;
#X connect 270 0 269 0;
#X connect 271 0 491 0;
#X connect 272 0 273 0;
#X connect 273 0 491 0;
#X connect 274 0 265 0;
#X connect 274 0 270 0;
#X connect 274 0 279 0;
#X connect 274 0 285 0;
#X connect 276 0 542 0;
#X connect 277 0 543 0;
#X connect 278 0 277 1;
#X connect 279 0 278 0;
#X connect 280 0 492 0;
#X connect 281 0 282 0;
#X connect 282 0 492 0;
#X connect 283 0 290 0;
#X connect 284 0 290 1;
#X connect 285 0 284 0;
#X connect 286 0 493 0;
#X connect 287 0 288 0;
#X connect 288 0 493 0;
#X connect 289 0 576 0;
#X connect 289 0 577 0;
#X connect 289 0 578 0;
#X connect 289 0 579 0;
#X connect 290 0 544 0;
#X connect 291 0 277 0;
#X connect 292 0 276 0;
#X connect 293 0 287 0;
#X connect 294 0 267 0;
#X connect 295 0 272 0;
#X connect 296 0 281 0;
#X connect 298 0 490 0;
#X connect 299 0 490 0;
#X connect 300 0 490 0;
#X connect 302 0 490 0;
#X connect 303 0 490 0;
#X connect 304 0 490 0;
#X connect 305 0 490 0;
#X connect 306 0 490 0;
#X connect 307 0 490 0;
#X connect 308 0 490 0;
#X connect 309 0 490 0;
#X connect 310 0 490 0;
#X connect 311 0 490 0;
#X connect 312 0 490 0;
#X connect 313 0 491 0;
#X connect 314 0 491 0;
#X connect 315 0 491 0;
#X connect 316 0 491 0;
#X connect 317 0 491 0;
#X connect 318 0 491 0;
#X connect 319 0 491 0;
#X connect 320 0 491 0;
#X connect 321 0 491 0;
#X connect 322 0 491 0;
#X connect 323 0 491 0;
#X connect 324 0 491 0;
#X connect 325 0 491 0;
#X connect 326 0 491 0;
#X connect 327 0 491 0;
#X connect 328 0 492 0;
#X connect 329 0 492 0;
#X connect 330 0 492 0;
#X connect 331 0 492 0;
#X connect 332 0 492 0;
#X connect 333 0 492 0;
#X connect 334 0 492 0;
#X connect 335 0 492 0;
#X connect 336 0 492 0;
#X connect 337 0 492 0;
#X connect 338 0 492 0;
#X connect 339 0 492 0;
#X connect 340 0 492 0;
#X connect 341 0 492 0;
#X connect 342 0 492 0;
#X connect 343 0 493 0;
#X connect 344 0 493 0;
#X connect 345 0 493 0;
#X connect 346 0 493 0;
#X connect 347 0 493 0;
#X connect 348 0 493 0;
#X connect 349 0 493 0;
#X connect 350 0 493 0;
#X connect 351 0 493 0;
#X connect 352 0 493 0;
#X connect 353 0 493 0;
#X connect 354 0 493 0;
#X connect 355 0 493 0;
#X connect 356 0 493 0;
#X connect 357 0 493 0;
#X connect 358 0 298 0;
#X connect 358 0 313 0;
#X connect 358 0 328 0;
#X connect 358 0 343 0;
#X connect 360 0 299 0;
#X connect 360 0 314 0;
#X connect 360 0 329 0;
#X connect 360 0 344 0;
#X connect 361 0 300 0;
#X connect 361 0 315 0;
#X connect 361 0 330 0;
#X connect 361 0 345 0;
#X connect 362 0 301 0;
#X connect 362 0 316 0;
#X connect 362 0 331 0;
#X connect 362 0 346 0;
#X connect 363 0 302 0;
#X connect 363 0 317 0;
#X connect 363 0 332 0;
#X connect 363 0 347 0;
#X connect 364 0 303 0;
#X connect 364 0 318 0;
#X connect 364 0 333 0;
#X connect 364 0 348 0;
#X connect 365 0 304 0;
#X connect 365 0 319 0;
#X connect 365 0 334 0;
#X connect 365 0 349 0;
#X connect 366 0 308 0;
#X connect 366 0 512 0;
#X connect 366 0 513 0;
#X connect 366 0 514 0;
#X connect 367 0 305 0;
#X connect 367 0 320 0;
#X connect 367 0 335 0;
#X connect 367 0 350 0;
#X connect 368 0 306 0;
#X connect 368 0 321 0;
#X connect 368 0 336 0;
#X connect 368 0 351 0;
#X connect 369 0 307 0;
#X connect 369 0 322 0;
#X connect 369 0 337 0;
#X connect 369 0 352 0;
#X connect 370 0 308 0;
#X connect 370 0 323 0;
#X connect 370 0 338 0;
#X connect 370 0 353 0;
#X connect 371 0 309 0;
#X connect 371 0 324 0;
#X connect 371 0 339 0;
#X connect 371 0 354 0;
#X connect 372 0 310 0;
#X connect 372 0 325 0;
#X connect 372 0 340 0;
#X connect 372 0 355 0;
#X connect 373 0 311 0;
#X connect 373 0 326 0;
#X connect 373 0 341 0;
#X connect 373 0 356 0;
#X connect 374 0 312 0;
#X connect 374 0 327 0;
#X connect 374 0 342 0;
#X connect 374 0 357 0;
#X connect 375 0 376 0;
#X connect 376 0 545 0;
#X connect 377 0 376 1;
#X connect 378 0 377 0;
#X connect 379 0 494 0;
#X connect 380 0 381 0;
#X connect 381 0 494 0;
#X connect 382 0 388 1;
#X connect 383 0 382 0;
#X connect 384 0 495 0;
#X connect 385 0 386 0;
#X connect 386 0 495 0;
#X connect 387 0 378 0;
#X connect 387 0 383 0;
#X connect 387 0 391 0;
#X connect 387 0 397 0;
#X connect 388 0 546 0;
#X connect 389 0 547 0;
#X connect 390 0 389 1;
#X connect 391 0 390 0;
#X connect 392 0 496 0;
#X connect 393 0 394 0;
#X connect 394 0 496 0;
#X connect 395 0 402 0;
#X connect 396 0 402 1;
#X connect 397 0 396 0;
#X connect 398 0 497 0;
#X connect 399 0 400 0;
#X connect 400 0 497 0;
#X connect 401 0 581 0;
#X connect 401 0 582 0;
#X connect 401 0 583 0;
#X connect 401 0 584 0;
#X connect 402 0 548 0;
#X connect 403 0 389 0;
#X connect 404 0 388 0;
#X connect 405 0 399 0;
#X connect 406 0 380 0;
#X connect 407 0 385 0;
#X connect 408 0 393 0;
#X connect 410 0 494 0;
#X connect 411 0 494 0;
#X connect 412 0 494 0;
#X connect 414 0 494 0;
#X connect 415 0 494 0;
#X connect 416 0 494 0;
#X connect 417 0 494 0;
#X connect 418 0 494 0;
#X connect 419 0 494 0;
#X connect 420 0 494 0;
#X connect 421 0 494 0;
#X connect 422 0 494 0;
#X connect 423 0 494 0;
#X connect 424 0 494 0;
#X connect 425 0 495 0;
#X connect 426 0 495 0;
#X connect 427 0 495 0;
#X connect 428 0 495 0;
#X connect 429 0 495 0;
#X connect 430 0 495 0;
#X connect 431 0 495 0;
#X connect 432 0 495 0;
#X connect 433 0 495 0;
#X connect 434 0 495 0;
#X connect 435 0 495 0;
#X connect 436 0 495 0;
#X connect 437 0 495 0;
#X connect 438 0 495 0;
#X connect 439 0 495 0;
#X connect 440 0 496 0;
#X connect 441 0 496 0;
#X connect 442 0 496 0;
#X connect 443 0 496 0;
#X connect 444 0 496 0;
#X connect 445 0 496 0;
#X connect 446 0 496 0;
#X connect 447 0 496 0;
#X connect 448 0 496 0;
#X connect 449 0 496 0;
#X connect 450 0 496 0;
#X connect 451 0 496 0;
#X connect 452 0 496 0;
#X connect 453 0 496 0;
#X connect 454 0 496 0;
#X connect 455 0 497 0;
#X connect 456 0 497 0;
#X connect 457 0 497 0;
#X connect 458 0 497 0;
#X connect 459 0 497 0;
#X connect 460 0 497 0;
#X connect 461 0 497 0;
#X connect 462 0 497 0;
#X connect 463 0 497 0;
#X connect 464 0 497 0;
#X connect 465 0 497 0;
#X connect 466 0 497 0;
#X connect 467 0 497 0;
#X connect 468 0 497 0;
#X connect 469 0 497 0;
#X connect 470 0 497 0;
#X connect 471 0 410 0;
#X connect 471 0 425 0;
#X connect 471 0 440 0;
#X connect 471 0 455 0;
#X connect 472 0 411 0;
#X connect 472 0 426 0;
#X connect 472 0 441 0;
#X connect 472 0 456 0;
#X connect 473 0 412 0;
#X connect 473 0 427 0;
#X connect 473 0 442 0;
#X connect 473 0 457 0;
#X connect 474 0 413 0;
#X connect 474 0 428 0;
#X connect 474 0 443 0;
#X connect 474 0 458 0;
#X connect 475 0 414 0;
#X connect 475 0 429 0;
#X connect 475 0 444 0;
#X connect 475 0 459 0;
#X connect 476 0 415 0;
#X connect 476 0 430 0;
#X connect 476 0 445 0;
#X connect 476 0 460 0;
#X connect 477 0 416 0;
#X connect 477 0 431 0;
#X connect 477 0 446 0;
#X connect 477 0 461 0;
#X connect 478 0 420 0;
#X connect 478 0 516 0;
#X connect 478 0 517 0;
#X connect 478 0 462 0;
#X connect 479 0 417 0;
#X connect 479 0 432 0;
#X connect 479 0 447 0;
#X connect 479 0 463 0;
#X connect 480 0 418 0;
#X connect 480 0 433 0;
#X connect 480 0 448 0;
#X connect 480 0 464 0;
#X connect 481 0 419 0;
#X connect 481 0 434 0;
#X connect 481 0 449 0;
#X connect 481 0 465 0;
#X connect 482 0 420 0;
#X connect 482 0 435 0;
#X connect 482 0 450 0;
#X connect 482 0 466 0;
#X connect 483 0 421 0;
#X connect 483 0 436 0;
#X connect 483 0 451 0;
#X connect 483 0 467 0;
#X connect 484 0 422 0;
#X connect 484 0 437 0;
#X connect 484 0 452 0;
#X connect 484 0 468 0;
#X connect 485 0 423 0;
#X connect 485 0 438 0;
#X connect 485 0 453 0;
#X connect 485 0 469 0;
#X connect 486 0 424 0;
#X connect 486 0 439 0;
#X connect 486 0 454 0;
#X connect 486 0 470 0;
#X connect 487 0 149 0;
#X connect 488 0 177 0;
#X connect 489 0 169 0;
#X connect 490 0 262 0;
#X connect 491 0 292 0;
#X connect 492 0 291 0;
#X connect 493 0 283 0;
#X connect 494 0 375 0;
#X connect 495 0 404 0;
#X connect 496 0 403 0;
#X connect 497 0 395 0;
#X connect 498 0 293 0;
#X connect 498 0 296 0;
#X connect 498 0 295 0;
#X connect 498 0 294 0;
#X connect 501 0 78 0;
#X connect 502 0 501 0;
#X connect 503 0 77 0;
#X connect 504 0 534 0;
#X connect 505 0 124 0;
#X connect 506 0 126 0;
#X connect 507 0 487 0;
#X connect 508 0 533 0;
#X connect 509 0 488 0;
#X connect 510 0 489 0;
#X connect 511 0 490 0;
#X connect 512 0 491 0;
#X connect 513 0 492 0;
#X connect 514 0 493 0;
#X connect 515 0 494 0;
#X connect 516 0 495 0;
#X connect 517 0 496 0;
#X connect 533 0 178 0;
#X connect 534 0 37 0;
#X connect 535 0 0 0;
#X connect 536 0 0 0;
#X connect 537 0 0 1;
#X connect 538 0 0 1;
#X connect 539 0 0 1;
#X connect 540 0 0 1;
#X connect 541 0 261 0;
#X connect 542 0 261 0;
#X connect 543 0 261 0;
#X connect 544 0 261 0;
#X connect 545 0 261 1;
#X connect 546 0 261 1;
#X connect 547 0 261 1;
#X connect 548 0 261 1;
#X connect 549 0 0 0;
#X connect 550 0 0 0;
#X connect 551 0 125 0;
#X connect 551 0 245 0;
#X connect 551 0 361 0;
#X connect 551 0 474 0;
#X connect 552 0 125 0;
#X connect 552 0 245 0;
#X connect 552 0 361 0;
#X connect 552 0 473 0;
#X connect 553 0 136 0;
#X connect 553 0 250 0;
#X connect 553 0 361 0;
#X connect 553 0 474 0;
#X connect 554 0 139 0;
#X connect 554 0 371 0;
#X connect 554 0 475 0;
#X connect 554 0 253 0;
#X connect 554 0 33 0;
#X connect 554 0 401 0;
#X connect 555 0 135 0;
#X connect 555 0 253 0;
#X connect 555 0 473 0;
#X connect 556 0 253 0;
#X connect 556 0 15 0;
#X connect 556 0 274 0;
#X connect 556 0 387 0;
#X connect 557 0 253 0;
#X connect 557 0 289 0;
#X connect 557 0 361 0;
#X connect 558 0 245 0;
#X connect 558 0 125 0;
#X connect 558 0 365 0;
#X connect 558 0 473 0;
#X connect 559 0 125 0;
#X connect 559 0 161 0;
#X connect 559 0 274 0;
#X connect 559 0 387 0;
#X connect 560 0 125 0;
#X connect 560 0 245 0;
#X connect 560 0 361 0;
#X connect 560 0 474 0;
#X connect 560 0 289 0;
#X connect 560 0 401 0;
#X connect 561 0 175 0;
#X connect 562 0 250 0;
#X connect 563 0 245 0;
#X connect 564 0 250 0;
#X connect 565 0 253 0;
#X connect 566 0 132 0;
#X connect 566 0 249 0;
#X connect 566 0 368 0;
#X connect 566 0 370 0;
#X connect 567 0 15 0;
#X connect 567 0 161 0;
#X connect 567 0 274 0;
#X connect 567 0 387 0;
#X connect 568 0 3 0;
#X connect 569 0 9 0;
#X connect 570 0 20 0;
#X connect 571 0 27 0;
#X connect 572 0 151 0;
#X connect 573 0 156 0;
#X connect 574 0 164 0;
#X connect 575 0 170 0;
#X connect 576 0 264 0;
#X connect 577 0 269 0;
#X connect 578 0 278 0;
#X connect 579 0 284 0;
#X connect 581 0 377 0;
#X connect 582 0 382 0;
#X connect 583 0 390 0;
#X connect 584 0 396 0;
#X coords 0 -1 1 1 400 400 1 100 100;
