#N canvas 0 -8 1920 1020 10;
#X obj 10 14;
#X obj 20 24;
#X obj 30 34;
#X obj 40 44;
#X msg 1776 18;
#X msg 1786 28;
#X msg 1796 38;
#X msg 1806 48;
#X msg 1816 58;
#X msg 1826 68;
#X msg 1836 78;
#X msg 1846 88;
#X msg 1856 98;
#X msg 1866 108;
#X floatatom 7 1476 5 0 0 0 - - - 0;
#X floatatom 18 1489 5 0 0 0 - - - 0;
#X floatatom 28 1499 5 0 0 0 - - - 0;
#X floatatom 38 1509 5 0 0 0 - - - 0;
#X floatatom 48 1519 5 0 0 0 - - - 0;
#X floatatom 58 1529 5 0 0 0 - - - 0;
#X floatatom 68 1539 5 0 0 0 - - - 0;
#X floatatom 78 1549 5 0 0 0 - - - 0;
#X floatatom 88 1559 5 0 0 0 - - - 0;
#X floatatom 98 1569 5 0 0 0 - - - 0;
#X floatatom 108 1579 5 0 0 0 - - - 0;
#X floatatom 118 1589 5 0 0 0 - - - 0;
#X floatatom 128 1599 5 0 0 0 - - - 0;
#X floatatom 138 1609 5 0 0 0 - - - 0;
#X floatatom 861 719 5 0 0 0 - - - 0;
#X floatatom 35 1612 5 0 0 0 - - - 0;
#X msg 77 309 64;
#X obj 50 54;
#X obj 60 64;
#X obj 70 74;
#X obj 80 84;
#X obj 90 94;
#X obj 100 104;
#X obj 110 114;
#X obj 120 124;
#X obj 130 134;
#X obj 140 144;
#X obj 150 154;
#X obj 212 954 mixer;
#X obj 900 444 scaleseq-wut;
#X obj 383 886 sqrfuk-wpulse;
#X obj 115 34;
#X obj 125 44;
#X obj 135 54;
#X obj 145 64;
#X obj 155 74;
#X obj 693 873 sinesum-triangle1;
#X obj 285 888 sqrfuk-wlfo;
#X obj 841 764 8-9;
#X obj 354 506 7-7;
#X obj 536 266 Synthmod;
#X connect 43 0 28 0;
#X connect 43 0 50 1;
#X connect 50 0 42 0;
