#N canvas 1007 121 450 300 10;
#X obj 79 189 noise~;
#X obj 99 351 bp~ 2000 4;
#X obj 295 350 bp~ 2000 4;
#X obj 192 350 bp~ 2000 4;
#X obj 404 354 bp~ 2000 4;
#X obj 41 253 env~;
#X obj 135 53 vsl 15 128 0 2000 0 0 empty empty empty 0 -9 0 10 -262144
-1 -1 0 1;
#X obj 205 54 vsl 15 128 1 100 0 0 empty empty empty 0 -9 0 10 -262144
-1 -1 0 1;
#X obj 278 54 vsl 15 128 0 127 0 0 empty empty empty 0 -9 0 10 -262144
-1 -1 0 1;
#X msg 19 62;
#X floatatom 19 119 5 0 0 0 - - -;
#X floatatom 116 329 5 0 0 0 - - -;
#X floatatom 155 329 5 0 0 0 - - -;
#X floatatom 210 329 5 0 0 0 - - -;
#X floatatom 249 329 5 0 0 0 - - -;
#X floatatom 313 329 5 0 0 0 - - -;
#X floatatom 352 329 5 0 0 0 - - -;
#X floatatom 421 329 5 0 0 0 - - -;
#X floatatom 460 329 5 0 0 0 - - -;
#X obj 208 305 * 2;
#X obj 312 308 * 3;
#X obj 421 307 * 4;
#X obj 380 186 t b f;
#X obj 351 193 / 5;
#X obj 351 212 + 1;
#X obj 387 208 *;
#X floatatom 453 255 5 0 0 0 - - -;
#X obj 269 453 *~ 2;
#X obj 170 454 env~;
#X floatatom 170 481 5 0 0 0 - - -;
#X floatatom 42 283 5 0 0 0 - - -;
#X obj 266 528 dac~;
#X connect 0 0 1 0;
#X connect 0 0 3 0;
#X connect 0 0 2 0;
#X connect 0 0 4 0;
#X connect 0 0 5 0;
#X connect 1 0 27 0;
#X connect 2 0 27 0;
#X connect 3 0 27 0;
#X connect 4 0 27 0;
#X connect 5 0 30 0;
#X connect 6 0 11 0;
#X connect 6 0 19 0;
#X connect 6 0 20 0;
#X connect 6 0 21 0;
#X connect 7 0 12 0;
#X connect 7 0 14 0;
#X connect 7 0 16 0;
#X connect 7 0 18 0;
#X connect 7 0 23 0;
#X connect 8 0 22 0;
#X connect 9 0 10 0;
#X connect 11 0 1 1;
#X connect 12 0 1 2;
#X connect 13 0 3 1;
#X connect 14 0 3 2;
#X connect 15 0 2 1;
#X connect 16 0 2 2;
#X connect 17 0 4 1;
#X connect 18 0 4 2;
#X connect 19 0 13 0;
#X connect 20 0 15 0;
#X connect 21 0 17 0;
#X connect 22 0 25 0;
#X connect 22 1 25 1;
#X connect 23 0 24 0;
#X connect 24 0 25 0;
#X connect 25 0 26 0;
#X connect 25 0 27 1;
#X connect 27 0 28 0;
#X connect 27 0 31 0;
#X connect 27 0 31 1;
#X connect 28 0 29 0;
